<svg xmlns="http://www.w3.org/2000/svg" viewBox="0 0 342.01 287.53"><defs><style>.cls-1{fill:#fae1cf;}.cls-2{fill:#fcebe0;}.cls-3{fill:#f0ceba;}.cls-4{fill:#016be3;}.cls-5{fill:#fff;}.cls-6{fill:#221b22;}.cls-7{fill:#fe5736;}.cls-8{fill:#f7c12d;}.cls-9{fill:#b11722;}.cls-10{fill:#dc5f34;}.cls-11{fill:#f2d15a;}.cls-12{fill:#f79e0b;}.cls-13{fill:#e7e2e8;}.cls-14{fill:#d1cad3;}.cls-15{fill:#0236a5;}.cls-16{fill:#f4a390;}.cls-17{fill:#4c414c;}.cls-18{fill:#870020;}.cls-19{fill:#ed727e;}.cls-20{fill:#d6a793;}.cls-21{fill:#34a793;}.cls-22{fill:#38cd89;}</style></defs><g id="OBJECTS"><ellipse class="cls-1" cx="171.01" cy="279.22" rx="171.01" ry="8.3"/><rect class="cls-2" x="7.18" y="7.48" width="167.03" height="103.45" rx="4.28"/><path class="cls-3" d="M509.53,146.06H457.82a.75.75,0,0,1,0-1.5h51.71a.75.75,0,0,1,0,1.5Z" transform="translate(-345.24 -113.91)"/><path class="cls-3" d="M509.53,157.08H457.82a.76.76,0,0,1,0-1.51h51.71a.76.76,0,0,1,0,1.51Z" transform="translate(-345.24 -113.91)"/><path class="cls-3" d="M509.53,168.09H457.82a.76.76,0,0,1,0-1.51h51.71a.76.76,0,0,1,0,1.51Z" transform="translate(-345.24 -113.91)"/><path class="cls-3" d="M509.53,179.1H457.82a.76.76,0,0,1,0-1.51h51.71a.76.76,0,0,1,0,1.51Z" transform="translate(-345.24 -113.91)"/><path class="cls-3" d="M509.53,190.11H457.82a.75.75,0,0,1,0-1.5h51.71a.75.75,0,0,1,0,1.5Z" transform="translate(-345.24 -113.91)"/><path class="cls-3" d="M509.53,201.12H457.82a.75.75,0,0,1,0-1.5h51.71a.75.75,0,0,1,0,1.5Z" transform="translate(-345.24 -113.91)"/><path class="cls-3" d="M509.53,212.14H457.82a.76.76,0,0,1,0-1.51h51.71a.76.76,0,0,1,0,1.51Z" transform="translate(-345.24 -113.91)"/><rect class="cls-4" x="22.64" y="29.9" width="79.54" height="67.57" rx="9.51"/><path class="cls-5" d="M441.05,152.75h-5.53a.89.89,0,0,0-.85.66l-.81,3H383.05a.89.89,0,0,0-.66.3.93.93,0,0,0-.2.72l.81,6a.78.78,0,0,0,0,.22.94.94,0,0,0,.12.45l1,7.54.24,1.79,1,7.1.25,1.79.86,6.28a.87.87,0,0,0,.86.77h37.6l-1.23,4.49a4.81,4.81,0,0,1-4.6,3.57H392.3a.9.9,0,0,0-.9.8.88.88,0,0,0,.87,1h3.33a3.55,3.55,0,0,0-1.59,3,3.45,3.45,0,1,0,6.9,0,3.55,3.55,0,0,0-1.59-3h15.09a3.54,3.54,0,0,0-1.58,3,3.45,3.45,0,1,0,6.89,0,3.55,3.55,0,0,0-1.59-3h.94a6.56,6.56,0,0,0,6.29-4.87l1.5-5.51h0a.76.76,0,0,0,0-.11l1.75-6.4.49-1.79,1.94-7.1.48-1.79,2-7.34.24-.9h0l1.59-5.82s0-.05,0-.08l.78-2.93h4.85a.9.9,0,0,0,0-1.8Zm-14.42,30.3h0l-.05.12-1.2,4.39H388.07l-.72-5.26h39.48Zm.69-2.54H387.1l-1-7.1h43.13Zm2.43-8.89H385.89l-1-7.1h46.76Zm2.42-8.88H384.68l-.62-4.52H433.4Z" transform="translate(-345.24 -113.91)"/><path class="cls-6" d="M519.45,125.43v6.11h-167v-6.11a4,4,0,0,1,4-4.05H515.48A4,4,0,0,1,519.45,125.43Z" transform="translate(-345.24 -113.91)"/><ellipse class="cls-4" cx="150.07" cy="12.56" rx="2.33" ry="2.37"/><ellipse class="cls-7" cx="158.18" cy="12.56" rx="2.33" ry="2.37"/><ellipse class="cls-8" cx="166.26" cy="12.56" rx="2.33" ry="2.37"/><polygon class="cls-9" points="78.63 277.71 13.61 277.71 22.57 203.88 69.67 203.88 78.63 277.71"/><polygon class="cls-10" points="75.34 277.71 10.32 277.71 19.28 203.88 66.39 203.88 75.34 277.71"/><path class="cls-9" d="M388.41,339A16.89,16.89,0,1,0,405,355.92,16.75,16.75,0,0,0,388.41,339Zm.66,23.13v-5.92h7.49a23,23,0,0,1-.89,5.92Zm4.69,6.74a18.89,18.89,0,0,0,2.88-5.38h5a15.23,15.23,0,0,1-9.91,7.55A16.54,16.54,0,0,0,393.76,368.9Zm1.46-5.38a17.63,17.63,0,0,1-2.47,4.5,13.94,13.94,0,0,1-3.68,3.42v-7.92Zm-6.15-15.92v-7.2l.59,0a21,21,0,0,1,5.19,7.16Zm7.24,0a22.13,22.13,0,0,0-2.23-4.15,22.63,22.63,0,0,0-2.1-2.63,15.32,15.32,0,0,1,9.28,6.78Zm-7.24,7.28V349h6.33a20,20,0,0,1,1.15,5.92Zm8.81,0a21,21,0,0,0-1.07-5.92H402a15.83,15.83,0,0,1,1.58,5.92Zm5.75,1.36a15.57,15.57,0,0,1-1.28,5.92h-5.29a24.52,24.52,0,0,0,.83-5.92Zm-23.72,5.92h-5.45a15.75,15.75,0,0,1-1.27-5.92h5.89A24,24,0,0,0,379.91,362.16Zm2.2-14.56a20.55,20.55,0,0,1,1.85-3.34,19.4,19.4,0,0,1,3.36-3.83l.42,0v7.2Zm5.63,1.36v5.92h-7.32a19.8,19.8,0,0,1,1.15-5.92Zm-12.18-1.36a15.3,15.3,0,0,1,9.47-6.83,21.68,21.68,0,0,0-2.14,2.68,22.13,22.13,0,0,0-2.23,4.15Zm12.18,8.64v5.92h-6.45a22.86,22.86,0,0,1-.88-5.92Zm-14.52-1.36A15.46,15.46,0,0,1,374.8,349h5.35a21.37,21.37,0,0,0-1.06,5.92Zm7.11,8.64a18.86,18.86,0,0,0,2.87,5.38,17.4,17.4,0,0,0,2.05,2.22,15.4,15.4,0,0,1-10.12-7.6Zm7.41,0v7.82a15.87,15.87,0,0,1-6-7.82Z" transform="translate(-345.24 -113.91)"/><path class="cls-9" d="M380,321.49a2.22,2.22,0,1,1-2.22-2.26A2.25,2.25,0,0,1,380,321.49Z" transform="translate(-345.24 -113.91)"/><path class="cls-9" d="M402.67,321.49a2.22,2.22,0,1,1-2.22-2.26A2.25,2.25,0,0,1,402.67,321.49Z" transform="translate(-345.24 -113.91)"/><path class="cls-6" d="M377.78,321.23h0a.94.94,0,0,1-.9-1,101,101,0,0,1,1.74-14.38c2.16-10.57,5.76-15.93,10.72-15.93s8.48,5.37,10.45,15.95a101.74,101.74,0,0,1,1.47,14.37.94.94,0,0,1-.92,1h0a.94.94,0,0,1-.93-.92c-.21-8.75-2.31-28.48-10.07-28.48s-10.24,19.74-10.61,28.49A.93.93,0,0,1,377.78,321.23Z" transform="translate(-345.24 -113.91)"/><path class="cls-6" d="M381.91,321.23h0a.91.91,0,0,1-.87-1,97.69,97.69,0,0,1,1.68-13.9c2.08-10.23,5.57-15.41,10.37-15.41s8.2,5.19,10.1,15.42a98.25,98.25,0,0,1,1.43,13.91.92.92,0,0,1-.89.94h0a.9.9,0,0,1-.9-.89c-.21-8.46-2.24-27.54-9.74-27.54s-9.9,19.09-10.26,27.55A.91.91,0,0,1,381.91,321.23Z" transform="translate(-345.24 -113.91)"/><rect class="cls-8" x="103.22" y="225.12" width="67.89" height="52.61"/><rect class="cls-11" x="100.97" y="222.49" width="72.38" height="8.75"/><rect class="cls-12" x="103.22" y="231.24" width="67.89" height="4.81"/><rect class="cls-5" x="134.19" y="222.49" width="5.95" height="55.29"/><rect class="cls-13" x="134.19" y="236.06" width="5.95" height="41.72"/><rect class="cls-14" x="134.19" y="231.24" width="5.95" height="4.81"/><path class="cls-6" d="M415,351.78h0c-.4,0-.71-.55-.67-1.16a50.89,50.89,0,0,1,1.83-11c2.36-8.06,6.54-12.32,12.08-12.32s9.65,4.27,11.87,12.34a51.51,51.51,0,0,1,1.63,11c0,.61-.3,1.13-.7,1.13h0c-.36,0-.67-.44-.69-1a48.51,48.51,0,0,0-1.54-10.32c-2-7.29-5.57-11-10.57-11s-8.66,3.72-10.81,11.06a48.53,48.53,0,0,0-1.72,10.28C415.7,351.37,415.39,351.79,415,351.78Z" transform="translate(-345.24 -113.91)"/><polygon class="cls-15" points="115.78 277.73 49.03 277.73 55.18 229.74 109.63 229.74 115.78 277.73"/><polygon class="cls-4" points="112.26 277.73 45.51 277.73 51.66 229.74 106.12 229.74 112.26 277.73"/><path class="cls-15" d="M432.46,369.8c-.83-1.81-2.65-2.73-4.53-3.33-2.15-.68-4.38-.92-5.28-1.57a.85.85,0,0,1-.42-.71c0-.65.58-1.18,2.26-1.2h.35a11.55,11.55,0,0,1,5.06,1.44l.39.21.51-1.15,1.63-3.71a12.9,12.9,0,0,0-3.48-1.42,17.44,17.44,0,0,0-2.2-.41l.06-1.85,0-1.23-4-.12-.08,3.14c-4.64.53-7,3.19-7.12,6.44a5.63,5.63,0,0,0,.56,2.75,5.44,5.44,0,0,0,2.19,2.22,19.35,19.35,0,0,0,5.12,1.73c1.62.4,2.84.76,2.81,1.61s-.7,1.08-2.59,1a11.56,11.56,0,0,1-2.43-.34,13.18,13.18,0,0,1-4-1.69L415,376.53a11.25,11.25,0,0,0,2.17,1.09,19.14,19.14,0,0,0,5,1.13l-.05,1.75,0,1.3,4,.12.09-3.2c4.39-.65,6.66-3.29,6.75-6.39A5.58,5.58,0,0,0,432.46,369.8Z" transform="translate(-345.24 -113.91)"/><path class="cls-15" d="M439.1,348a2.14,2.14,0,1,1-2.13-2.29A2.22,2.22,0,0,1,439.1,348Z" transform="translate(-345.24 -113.91)"/><path class="cls-15" d="M413.31,348a2.14,2.14,0,1,1-2.14-2.29A2.23,2.23,0,0,1,413.31,348Z" transform="translate(-345.24 -113.91)"/><path class="cls-6" d="M411.12,348.64a.7.7,0,0,0,.7-.64,46.88,46.88,0,0,1,1.53-8c2.14-7.34,5.78-11.06,10.81-11.06s8.56,3.7,10.57,11a46.75,46.75,0,0,1,1.39,8.08.7.7,0,0,0,.7.65h0a.72.72,0,0,0,.7-.78,50.65,50.65,0,0,0-1.49-8.72c-2.22-8.08-6.32-12.34-11.87-12.34s-9.72,4.26-12.08,12.31a49.17,49.17,0,0,0-1.65,8.74.71.71,0,0,0,.69.79Z" transform="translate(-345.24 -113.91)"/><rect class="cls-2" x="184.8" y="7.48" width="70.46" height="131.06" rx="2.99"/><path class="cls-3" d="M590.8,219.16H539.74a.69.69,0,0,1,0-1.38H590.8a.69.69,0,0,1,0,1.38Z" transform="translate(-345.24 -113.91)"/><path class="cls-3" d="M590.8,225.08H539.74a.69.69,0,0,1,0-1.38H590.8a.69.69,0,0,1,0,1.38Z" transform="translate(-345.24 -113.91)"/><path class="cls-3" d="M590.8,231H539.74a.69.69,0,0,1,0-1.38H590.8a.69.69,0,0,1,0,1.38Z" transform="translate(-345.24 -113.91)"/><path class="cls-3" d="M590.8,236.91H539.74a.69.69,0,0,1,0-1.38H590.8a.69.69,0,0,1,0,1.38Z" transform="translate(-345.24 -113.91)"/><path class="cls-3" d="M590.8,242.83H539.74a.69.69,0,0,1,0-1.38H590.8a.69.69,0,0,1,0,1.38Z" transform="translate(-345.24 -113.91)"/><path class="cls-7" d="M588.32,202.05s-.12.16-.37.45a19,19,0,0,1-1.87,1.79,27.18,27.18,0,0,1-5,3.34c-.56.28-1.16.57-1.79.84a30.75,30.75,0,0,1-3.71,1.33c-.54.15-1.09.3-1.66.43a37.53,37.53,0,0,1-8.61,1,31.72,31.72,0,0,1-8.35-1.1h0c-.72-.19-1.42-.41-2.09-.64A33.17,33.17,0,0,1,544.9,204a27.71,27.71,0,0,1-2.09-1.84c-.39-.39-.59-.61-.59-.61s.85-1.21,2.11-3.1l.93-1.41c1-1.57,2.23-3.43,3.43-5.39.37-.61.75-1.22,1.12-1.84h0a62.44,62.44,0,0,0,5-9.91c.06-.16.11-.31.16-.47a9.14,9.14,0,0,0,.29-1.2h0a14,14,0,0,0,.15-3.57c-.06-.74-.16-1.48-.29-2.23a43.7,43.7,0,0,0-3.76-10.86c-.26-.52-.42-.81-.42-.81l.08-.1c3.94-5.42,2.83-14.23,2.18-17.71l1.55-1.19a2,2,0,0,1,3.11.94,14.07,14.07,0,0,0,3.55,5.88,7.26,7.26,0,0,0,2.16,1.34,6.84,6.84,0,0,0,2.54.46,7.19,7.19,0,0,0,.94-.06,6.25,6.25,0,0,0,2.57-1,10.23,10.23,0,0,0,3.58-4.83,13.88,13.88,0,0,0,.53-1.62,3,3,0,0,1,.11-.32,2.21,2.21,0,0,1,2.79-1.23l.79.29a44.58,44.58,0,0,0,1.76,13.76c.16.51.32,1,.47,1.39a17.35,17.35,0,0,0,1.25,2.82l-.26.61c-.21.53-.56,1.39-1,2.51-.66,1.82-1.51,4.35-2.32,7.32a25.68,25.68,0,0,0-.43,9.42,32.44,32.44,0,0,0,3.44,10.38q.6,1.18,1.23,2.31a76.34,76.34,0,0,0,6.06,9.14Z" transform="translate(-345.24 -113.91)"/><path class="cls-9" d="M557.49,143.78a1.38,1.38,0,1,1-1.38-1.41A1.4,1.4,0,0,1,557.49,143.78Z" transform="translate(-345.24 -113.91)"/><path class="cls-9" d="M575.82,143.78a1.4,1.4,0,0,1-1.38,1.41,1.38,1.38,0,0,1-1.22-.75,13.88,13.88,0,0,0,.53-1.62,3,3,0,0,1,.11-.32,1.27,1.27,0,0,1,.58-.13A1.4,1.4,0,0,1,575.82,143.78Z" transform="translate(-345.24 -113.91)"/><path class="cls-9" d="M557.49,149.7a1.38,1.38,0,1,1-1.38-1.41A1.4,1.4,0,0,1,557.49,149.7Z" transform="translate(-345.24 -113.91)"/><path class="cls-9" d="M563.59,149.88a1.38,1.38,0,0,1-2.75-.18,1.42,1.42,0,0,1,.59-1.16A7.26,7.26,0,0,0,563.59,149.88Z" transform="translate(-345.24 -113.91)"/><path class="cls-9" d="M569.71,149.7a1.38,1.38,0,0,1-2.64.58,6.25,6.25,0,0,0,2.57-1A1.25,1.25,0,0,1,569.71,149.7Z" transform="translate(-345.24 -113.91)"/><path class="cls-9" d="M575.82,149.7a1.38,1.38,0,1,1-1.38-1.41A1.4,1.4,0,0,1,575.82,149.7Z" transform="translate(-345.24 -113.91)"/><path class="cls-9" d="M557.49,155.62a1.38,1.38,0,1,1-1.38-1.4A1.4,1.4,0,0,1,557.49,155.62Z" transform="translate(-345.24 -113.91)"/><ellipse class="cls-9" cx="216.98" cy="41.72" rx="1.38" ry="1.41"/><ellipse class="cls-9" cx="223.09" cy="41.72" rx="1.38" ry="1.41"/><path class="cls-9" d="M575.82,155.62a1.38,1.38,0,1,1-1.38-1.4A1.4,1.4,0,0,1,575.82,155.62Z" transform="translate(-345.24 -113.91)"/><path class="cls-9" d="M579.67,156.71a1.41,1.41,0,0,1-.5-1.09,1.45,1.45,0,0,1,0-.3C579.36,155.83,579.52,156.29,579.67,156.71Z" transform="translate(-345.24 -113.91)"/><path class="cls-9" d="M551.38,161.53c-.26-.52-.42-.81-.42-.81l.08-.1A1.49,1.49,0,0,1,551.38,161.53Z" transform="translate(-345.24 -113.91)"/><path class="cls-9" d="M557.49,161.55a1.38,1.38,0,1,1-1.38-1.41A1.4,1.4,0,0,1,557.49,161.55Z" transform="translate(-345.24 -113.91)"/><ellipse class="cls-9" cx="216.98" cy="47.64" rx="1.38" ry="1.41"/><ellipse class="cls-9" cx="223.09" cy="47.64" rx="1.38" ry="1.41"/><path class="cls-9" d="M575.82,161.55a1.38,1.38,0,1,1-1.38-1.41A1.4,1.4,0,0,1,575.82,161.55Z" transform="translate(-345.24 -113.91)"/><path class="cls-9" d="M580.66,160.14c-.21.53-.56,1.39-1,2.51a1.42,1.42,0,0,1-.52-1.1,1.4,1.4,0,0,1,1.38-1.41Z" transform="translate(-345.24 -113.91)"/><path class="cls-9" d="M557.49,167.47a1.38,1.38,0,1,1-1.38-1.41A1.4,1.4,0,0,1,557.49,167.47Z" transform="translate(-345.24 -113.91)"/><path class="cls-9" d="M563.6,167.47a1.38,1.38,0,1,1-1.38-1.41A1.4,1.4,0,0,1,563.6,167.47Z" transform="translate(-345.24 -113.91)"/><path class="cls-9" d="M569.71,167.47a1.38,1.38,0,1,1-1.38-1.41A1.4,1.4,0,0,1,569.71,167.47Z" transform="translate(-345.24 -113.91)"/><path class="cls-9" d="M575.82,167.47a1.38,1.38,0,1,1-1.38-1.41A1.4,1.4,0,0,1,575.82,167.47Z" transform="translate(-345.24 -113.91)"/><path class="cls-9" d="M557.49,173.4a1.4,1.4,0,0,1-1.38,1.41,1.31,1.31,0,0,1-.68-.19c-.06-.74-.16-1.48-.29-2.23a1.36,1.36,0,0,1,1-.4A1.4,1.4,0,0,1,557.49,173.4Z" transform="translate(-345.24 -113.91)"/><path class="cls-9" d="M563.6,173.4a1.38,1.38,0,1,1-1.38-1.41A1.39,1.39,0,0,1,563.6,173.4Z" transform="translate(-345.24 -113.91)"/><path class="cls-9" d="M569.71,173.4a1.38,1.38,0,1,1-1.38-1.41A1.39,1.39,0,0,1,569.71,173.4Z" transform="translate(-345.24 -113.91)"/><path class="cls-9" d="M575.82,173.4a1.38,1.38,0,1,1-1.38-1.41A1.39,1.39,0,0,1,575.82,173.4Z" transform="translate(-345.24 -113.91)"/><path class="cls-9" d="M557.49,179.32a1.38,1.38,0,0,1-2.66.54c.06-.16.11-.31.16-.47a9.14,9.14,0,0,0,.29-1.2h0a1.34,1.34,0,0,1,.83-.28A1.4,1.4,0,0,1,557.49,179.32Z" transform="translate(-345.24 -113.91)"/><ellipse class="cls-9" cx="216.98" cy="65.41" rx="1.38" ry="1.41"/><ellipse class="cls-9" cx="223.09" cy="65.41" rx="1.38" ry="1.41"/><path class="cls-9" d="M575.82,179.32a1.38,1.38,0,1,1-1.38-1.41A1.4,1.4,0,0,1,575.82,179.32Z" transform="translate(-345.24 -113.91)"/><path class="cls-9" d="M557.49,185.24a1.38,1.38,0,1,1-1.38-1.41A1.4,1.4,0,0,1,557.49,185.24Z" transform="translate(-345.24 -113.91)"/><ellipse class="cls-9" cx="216.98" cy="71.34" rx="1.38" ry="1.41"/><ellipse class="cls-9" cx="223.09" cy="71.34" rx="1.38" ry="1.41"/><path class="cls-9" d="M575.82,185.24a1.38,1.38,0,1,1-1.38-1.41A1.4,1.4,0,0,1,575.82,185.24Z" transform="translate(-345.24 -113.91)"/><path class="cls-9" d="M551.38,191.17a1.38,1.38,0,0,1-2.69.45c.37-.61.75-1.22,1.12-1.84H550A1.4,1.4,0,0,1,551.38,191.17Z" transform="translate(-345.24 -113.91)"/><path class="cls-9" d="M557.49,191.17a1.38,1.38,0,1,1-1.38-1.41A1.4,1.4,0,0,1,557.49,191.17Z" transform="translate(-345.24 -113.91)"/><path class="cls-9" d="M563.6,191.17a1.38,1.38,0,1,1-1.38-1.41A1.4,1.4,0,0,1,563.6,191.17Z" transform="translate(-345.24 -113.91)"/><path class="cls-9" d="M569.71,191.17a1.38,1.38,0,1,1-1.38-1.41A1.4,1.4,0,0,1,569.71,191.17Z" transform="translate(-345.24 -113.91)"/><path class="cls-9" d="M575.82,191.17a1.38,1.38,0,1,1-1.38-1.41A1.4,1.4,0,0,1,575.82,191.17Z" transform="translate(-345.24 -113.91)"/><path class="cls-9" d="M581.61,192.08a1.41,1.41,0,0,1-1.06.5,1.41,1.41,0,0,1-.17-2.81Q581,191,581.61,192.08Z" transform="translate(-345.24 -113.91)"/><path class="cls-9" d="M545.27,197.09a1.4,1.4,0,0,1-.94,1.33l.93-1.41A.22.22,0,0,1,545.27,197.09Z" transform="translate(-345.24 -113.91)"/><ellipse class="cls-9" cx="204.75" cy="83.18" rx="1.38" ry="1.41"/><path class="cls-9" d="M557.49,197.09a1.38,1.38,0,1,1-1.38-1.41A1.4,1.4,0,0,1,557.49,197.09Z" transform="translate(-345.24 -113.91)"/><ellipse class="cls-9" cx="216.98" cy="83.18" rx="1.38" ry="1.41"/><ellipse class="cls-9" cx="223.09" cy="83.18" rx="1.38" ry="1.41"/><path class="cls-9" d="M575.82,197.09a1.38,1.38,0,1,1-1.38-1.41A1.4,1.4,0,0,1,575.82,197.09Z" transform="translate(-345.24 -113.91)"/><ellipse class="cls-9" cx="235.31" cy="83.18" rx="1.38" ry="1.41"/><path class="cls-9" d="M545.27,203a1.39,1.39,0,0,1-.37.95,27.71,27.71,0,0,1-2.09-1.84,1.36,1.36,0,0,1,1.07-.52A1.4,1.4,0,0,1,545.27,203Z" transform="translate(-345.24 -113.91)"/><ellipse class="cls-9" cx="204.75" cy="89.11" rx="1.38" ry="1.41"/><path class="cls-9" d="M557.49,203a1.38,1.38,0,1,1-1.38-1.41A1.39,1.39,0,0,1,557.49,203Z" transform="translate(-345.24 -113.91)"/><ellipse class="cls-9" cx="216.98" cy="89.11" rx="1.38" ry="1.41"/><ellipse class="cls-9" cx="223.09" cy="89.11" rx="1.38" ry="1.41"/><path class="cls-9" d="M575.82,203a1.38,1.38,0,1,1-1.38-1.41A1.39,1.39,0,0,1,575.82,203Z" transform="translate(-345.24 -113.91)"/><ellipse class="cls-9" cx="235.31" cy="89.11" rx="1.38" ry="1.41"/><path class="cls-9" d="M588,202.5a19,19,0,0,1-1.87,1.79,1.41,1.41,0,0,1,.58-2.68A1.39,1.39,0,0,1,588,202.5Z" transform="translate(-345.24 -113.91)"/><path class="cls-9" d="M557.49,208.94a1.43,1.43,0,0,1-.57,1.14h0c-.72-.19-1.42-.41-2.09-.64a1.43,1.43,0,0,1-.09-.5,1.38,1.38,0,1,1,2.76,0Z" transform="translate(-345.24 -113.91)"/><path class="cls-9" d="M563.6,208.94a1.38,1.38,0,1,1-1.38-1.41A1.4,1.4,0,0,1,563.6,208.94Z" transform="translate(-345.24 -113.91)"/><path class="cls-9" d="M569.71,208.94a1.38,1.38,0,1,1-1.38-1.41A1.4,1.4,0,0,1,569.71,208.94Z" transform="translate(-345.24 -113.91)"/><path class="cls-9" d="M575.82,208.94a1.5,1.5,0,0,1-.28.86c-.54.15-1.09.3-1.66.43a1.41,1.41,0,0,1-.82-1.29,1.38,1.38,0,1,1,2.76,0Z" transform="translate(-345.24 -113.91)"/><path class="cls-9" d="M581,207.63c-.56.28-1.16.57-1.79.84a1.38,1.38,0,0,1,1.3-.94A1.16,1.16,0,0,1,581,207.63Z" transform="translate(-345.24 -113.91)"/><path class="cls-6" d="M600.5,124.36v7.12H530.05v-7.12a3,3,0,0,1,2.92-3h64.61A3,3,0,0,1,600.5,124.36Z" transform="translate(-345.24 -113.91)"/><path class="cls-4" d="M582.56,126.43a2.13,2.13,0,1,1-2.13-2.18A2.15,2.15,0,0,1,582.56,126.43Z" transform="translate(-345.24 -113.91)"/><path class="cls-7" d="M590,126.43a2.14,2.14,0,1,1-2.14-2.18A2.16,2.16,0,0,1,590,126.43Z" transform="translate(-345.24 -113.91)"/><path class="cls-8" d="M597.41,126.43a2.13,2.13,0,1,1-2.13-2.18A2.15,2.15,0,0,1,597.41,126.43Z" transform="translate(-345.24 -113.91)"/><path class="cls-15" d="M675.51,393.13a1.47,1.47,0,0,0,.5-.09,1.4,1.4,0,0,0,.76-1.79l-27-69.95a1.34,1.34,0,0,0-1.75-.78,1.4,1.4,0,0,0-.76,1.79l27,69.95A1.34,1.34,0,0,0,675.51,393.13Z" transform="translate(-345.24 -113.91)"/><path class="cls-15" d="M604,393.13a1.35,1.35,0,0,0,1.25-.87l27-69.95a1.39,1.39,0,0,0-.77-1.79,1.35,1.35,0,0,0-1.75.78l-27,69.95a1.4,1.4,0,0,0,.76,1.79A1.43,1.43,0,0,0,604,393.13Z" transform="translate(-345.24 -113.91)"/><path class="cls-15" d="M616.5,360.77a1.42,1.42,0,0,0,.45-.08l40.88-14.62a1.38,1.38,0,0,0,.83-1.76,1.35,1.35,0,0,0-1.72-.84l-40.89,14.62a1.38,1.38,0,0,0-.82,1.76A1.35,1.35,0,0,0,616.5,360.77Z" transform="translate(-345.24 -113.91)"/><path class="cls-15" d="M663,360.77a1.35,1.35,0,0,0,1.27-.92,1.38,1.38,0,0,0-.82-1.76l-40.89-14.62a1.35,1.35,0,0,0-1.72.84,1.38,1.38,0,0,0,.83,1.76l40.88,14.62A1.42,1.42,0,0,0,663,360.77Z" transform="translate(-345.24 -113.91)"/><path class="cls-15" d="M625.08,393.13a1.47,1.47,0,0,0,.5-.09,1.4,1.4,0,0,0,.76-1.79l-27-69.95a1.34,1.34,0,0,0-1.75-.78,1.4,1.4,0,0,0-.76,1.79l27,69.95A1.34,1.34,0,0,0,625.08,393.13Z" transform="translate(-345.24 -113.91)"/><path class="cls-15" d="M553.59,393.13a1.35,1.35,0,0,0,1.25-.87l27-69.95a1.39,1.39,0,0,0-.77-1.79,1.35,1.35,0,0,0-1.75.78l-27,69.95a1.4,1.4,0,0,0,.76,1.79A1.43,1.43,0,0,0,553.59,393.13Z" transform="translate(-345.24 -113.91)"/><path class="cls-15" d="M566.07,360.77a1.42,1.42,0,0,0,.45-.08l40.88-14.62a1.38,1.38,0,0,0,.83-1.76,1.35,1.35,0,0,0-1.72-.84l-40.89,14.62a1.38,1.38,0,0,0-.82,1.76A1.35,1.35,0,0,0,566.07,360.77Z" transform="translate(-345.24 -113.91)"/><path class="cls-15" d="M612.6,360.77a1.35,1.35,0,0,0,1.27-.92,1.38,1.38,0,0,0-.82-1.76l-40.89-14.62a1.35,1.35,0,0,0-1.72.84,1.38,1.38,0,0,0,.83,1.76l40.88,14.62A1.42,1.42,0,0,0,612.6,360.77Z" transform="translate(-345.24 -113.91)"/><path class="cls-4" d="M557.58,323.51s56.89,33.21,93,6.35a52.26,52.26,0,0,0,4.2-3.5l1.4-1.34c30.78-30.7-8.47-79.93-8.47-79.93-1,.43-2,.88-3.05,1.34l-1.07.48C587.38,272.78,557.58,323.51,557.58,323.51Z" transform="translate(-345.24 -113.91)"/><path class="cls-15" d="M654.55,264.87c4.69,9.59,9.85,24,7.75,37.86-1.83,12.11-6.12,20.86-11.72,27.13a52.26,52.26,0,0,0,4.2-3.5c4.38-6.37,7.29-14.21,8.68-23.45a53.61,53.61,0,0,0-1.2-20.48,87.64,87.64,0,0,0-6.67-18.12,111.15,111.15,0,0,0-10.93-17.88l-1.07.48a.65.65,0,0,0,.11.22A108.61,108.61,0,0,1,654.55,264.87Z" transform="translate(-345.24 -113.91)"/><path class="cls-15" d="M636.76,274.73s11,30.49.53,44.26-34.62,20.3-69.63-.54Z" transform="translate(-345.24 -113.91)"/><path class="cls-8" d="M600.62,226.24l-.06.51-.1.65c-.07.45-.15.91-.23,1.37-.16.93-.34,1.87-.53,2.81q-.6,2.82-1.36,5.66a107.12,107.12,0,0,1-3.58,11.15c-.71,1.82-1.44,3.63-2.22,5.42s-1.62,3.54-2.5,5.27c-.22.44-.45.87-.67,1.3s-.45.86-.68,1.28c-.48.85-.94,1.71-1.43,2.54-.25.41-.49.84-.74,1.25l-.76,1.24-.19.3-.1.16,0,0h0l0-.05.15-.19.09-.09c.11-.09.06,0-.05.06a7.68,7.68,0,0,1-1.39.89c-.63.33-1.38.67-2.16,1-1.59.65-3.36,1.25-5.18,1.81s-3.71,1.06-5.62,1.53-3.86.92-5.83,1.33c-3.92.83-7.91,1.57-11.92,2.24q-3,.52-6,1l-3,.44-1.51.22-1.47.2,1.18,13.95,1.64-.09,1.6-.1,3.17-.25c2.12-.17,4.23-.37,6.35-.58,4.23-.45,8.46-1,12.72-1.65s8.53-1.46,12.9-2.57a69.39,69.39,0,0,0,6.71-2c1.16-.43,2.34-.9,3.57-1.49a24.63,24.63,0,0,0,4-2.33,15.79,15.79,0,0,0,2.31-2c.2-.21.41-.45.61-.69s.41-.51.62-.81l.23-.33.12-.18.24-.35,1-1.42.92-1.44c.63-1,1.21-1.93,1.8-2.91.3-.48.58-1,.86-1.47s.58-1,.85-1.49l.82-1.5c.27-.5.53-1,.79-1.51.53-1,1-2,1.53-3.06q1.47-3.08,2.78-6.24a131.09,131.09,0,0,0,4.49-12.9c.62-2.2,1.17-4.43,1.67-6.69.25-1.13.48-2.26.69-3.42.11-.59.21-1.17.3-1.77l.14-.92.06-.48.07-.59Z" transform="translate(-345.24 -113.91)"/><path class="cls-12" d="M590.44,272a.51.51,0,0,0,.45-.13.53.53,0,0,0,0-.73,42.17,42.17,0,0,0-4.72-4.5.49.49,0,0,0-.71.09.53.53,0,0,0,.09.73,42.86,42.86,0,0,1,4.59,4.38A.45.45,0,0,0,590.44,272Z" transform="translate(-345.24 -113.91)"/><path class="cls-12" d="M589.62,268.3a.51.51,0,0,0,.59-.37.53.53,0,0,0-.36-.64s-2-.54-3.59-.87a.51.51,0,0,0-.6.41.53.53,0,0,0,.4.61c1.61.32,3.51.85,3.52.85Z" transform="translate(-345.24 -113.91)"/><path class="cls-12" d="M550.87,292.4H551a.52.52,0,0,0,.46-.57l-1.56-16.4a.51.51,0,0,0-.56-.47.52.52,0,0,0-.45.57l1.56,16.4A.51.51,0,0,0,550.87,292.4Z" transform="translate(-345.24 -113.91)"/><path class="cls-12" d="M542.81,288.63H543l7.37-.86a.52.52,0,0,0,.45-.57.51.51,0,0,0-.56-.46l-7.38.86a.53.53,0,0,0,0,1Z" transform="translate(-345.24 -113.91)"/><path class="cls-12" d="M545.05,283.33a1.21,1.21,0,0,0,.63,1.57,1.16,1.16,0,0,0,1.54-.65,1.2,1.2,0,0,0-.64-1.56A1.16,1.16,0,0,0,545.05,283.33Z" transform="translate(-345.24 -113.91)"/><polygon class="cls-16" points="200.5 258.29 197.61 265.96 186.86 264.44 189.07 256.29 200.5 258.29"/><path class="cls-6" d="M504,392l39.14,5.54a5.56,5.56,0,0,0,.82-2.14c.7-3.34.38-8.88.33-12.36,0-.4,0-.78,0-1.12a10.68,10.68,0,0,1,.07-1.41c.38-2.77-2.09-2.64-2.09-2.64-4.5,3.41-8.18-3.17-11.06-1.59,0,0-1.24.66-4.74,3.07s-9,3.55-13.79,4.83c-6.15,1.65-8.13,3.89-8.69,5.55A3.27,3.27,0,0,0,504,392Z" transform="translate(-345.24 -113.91)"/><path class="cls-17" d="M504,392l39.14,5.54a5.56,5.56,0,0,0,.82-2.14l-40-5.67A3.27,3.27,0,0,0,504,392Z" transform="translate(-345.24 -113.91)"/><path class="cls-5" d="M530.35,377.91s-.46-1.84-2.09-1.51-1.83,3-1.83,3S527,381.88,530.35,377.91Z" transform="translate(-345.24 -113.91)"/><path class="cls-5" d="M529.76,385.83a.66.66,0,0,0,.74-.57,8.58,8.58,0,0,0-1.69-6.56.64.64,0,0,0-.92-.05.66.66,0,0,0,0,.93,7.32,7.32,0,0,1,1.37,5.5A.66.66,0,0,0,529.76,385.83Z" transform="translate(-345.24 -113.91)"/><path class="cls-5" d="M522.33,379.5a.68.68,0,0,0,.46-.1c.92-.63,3.34-.43,4.65-.15a.66.66,0,0,0,.26-1.3c-.4-.09-4-.79-5.64.34a.67.67,0,0,0-.18.92A.63.63,0,0,0,522.33,379.5Z" transform="translate(-345.24 -113.91)"/><path class="cls-5" d="M528.31,378.1l.28.39,0,0v0l-.45,1.31.14.05a9.26,9.26,0,0,0,1.23.24l.27,0a22.9,22.9,0,0,0,2.89.16,5.39,5.39,0,0,0,3.94-1.34,2.71,2.71,0,0,0,.42-.6l.06-.12a2.07,2.07,0,0,0-.24-2.08,2.75,2.75,0,0,0-1.9-1.17h0a4.87,4.87,0,0,0-1.88.14,13,13,0,0,0-3.41,1.52l-.22.13c-.37.23-.68.44-.91.6l-.41.31Zm1.34.6-.46-.08c.31-.22.7-.48,1.15-.75a13.79,13.79,0,0,1,2.18-1.07,7.26,7.26,0,0,1,1.2-.34,3.28,3.28,0,0,1,.93,0h0a1.37,1.37,0,0,1,1,.58.64.64,0,0,1,.12.58.61.61,0,0,1,0,.12,2.23,2.23,0,0,1-1.41.94,5.9,5.9,0,0,1-1.7.22A21.91,21.91,0,0,1,529.65,378.7Z" transform="translate(-345.24 -113.91)"/><path class="cls-5" d="M527.1,379.05l.78-1.2c-1.21-.8-2.21-2.62-2-3.59,0-.24.19-.52.82-.61a.79.79,0,0,1,.76.19c.6.63.56,2.46.4,3.47l1.39.24c.06-.34.51-3.36-.78-4.71a2.43,2.43,0,0,0-4,1.1C524.12,375.68,525.57,378,527.1,379.05Z" transform="translate(-345.24 -113.91)"/><path class="cls-17" d="M539.12,397l1.16.16a9,9,0,0,1-1.23-6.69,11.35,11.35,0,0,1,5.21-7.41c0-.4,0-.78,0-1.12a12.32,12.32,0,0,0-6.13,8.35A10,10,0,0,0,539.12,397Z" transform="translate(-345.24 -113.91)"/><path class="cls-5" d="M526.78,381.82a.64.64,0,0,0,.69-.41.67.67,0,0,0-.36-.86l-2.36-1a.65.65,0,0,0-.85.37.67.67,0,0,0,.36.86l2.36,1Z" transform="translate(-345.24 -113.91)"/><path class="cls-5" d="M524.13,382.93a.67.67,0,0,0,.34-1.28l-2.36-1a.65.65,0,0,0-.85.37.67.67,0,0,0,.36.87l2.36,1Z" transform="translate(-345.24 -113.91)"/><path class="cls-5" d="M521.5,384a.64.64,0,0,0,.69-.41.66.66,0,0,0-.36-.86l-2.36-1a.65.65,0,0,0-.85.37.66.66,0,0,0,.37.86l2.36,1A.42.42,0,0,0,521.5,384Z" transform="translate(-345.24 -113.91)"/><path class="cls-5" d="M518.66,384.88a.64.64,0,0,0,.69-.41.66.66,0,0,0-.36-.86l-2.36-1a.66.66,0,0,0-.85.37.68.68,0,0,0,.36.87l2.37,1A.42.42,0,0,0,518.66,384.88Z" transform="translate(-345.24 -113.91)"/><path class="cls-5" d="M515.62,385.57a.64.64,0,0,0,.69-.41.66.66,0,0,0-.36-.86l-2.36-1a.66.66,0,0,0-.85.37.68.68,0,0,0,.36.87l2.36,1A.47.47,0,0,0,515.62,385.57Z" transform="translate(-345.24 -113.91)"/><polygon class="cls-16" points="159.68 253.77 155.54 258.98 146.28 253.2 150.42 248 159.68 253.77"/><path class="cls-6" d="M460.39,368.2l33.72,21a5.53,5.53,0,0,0,1.58-1.64c2-2.77,3.83-8,5.14-11.19.15-.38.29-.73.43-1a11.43,11.43,0,0,1,.62-1.26,2.07,2.07,0,0,0-.89-3.27c-5.46,1.29-6.25-6.24-9.52-6,0,0-1.39.11-5.54.9s-9.67-.43-14.54-1.19c-6.28-1-9,.26-10.13,1.55A3.19,3.19,0,0,0,460.39,368.2Z" transform="translate(-345.24 -113.91)"/><path class="cls-17" d="M460.39,368.2l33.72,21a5.53,5.53,0,0,0,1.58-1.64l-34.43-21.47A3.19,3.19,0,0,0,460.39,368.2Z" transform="translate(-345.24 -113.91)"/><path class="cls-5" d="M490.1,366s.29-1.88-1.33-2.23-2.84,2-2.84,2S485.51,368.29,490.1,366Z" transform="translate(-345.24 -113.91)"/><path class="cls-5" d="M486.46,373a.64.64,0,0,0,.89-.22,8.63,8.63,0,0,0,1-6.7.65.65,0,0,0-.82-.43.68.68,0,0,0-.42.84,7.25,7.25,0,0,1-.89,5.6A.66.66,0,0,0,486.46,373Z" transform="translate(-345.24 -113.91)"/><path class="cls-5" d="M482.12,364.2a.63.63,0,0,0,.45.08c1.09-.19,3.23,1,4.33,1.76a.65.65,0,0,0,.91-.16.68.68,0,0,0-.16-.92c-.34-.24-3.34-2.34-5.31-2a.65.65,0,0,0-.52.77A.65.65,0,0,0,482.12,364.2Z" transform="translate(-345.24 -113.91)"/><path class="cls-5" d="M488.14,365.34l.11.47,0,0,0,0-.93,1,.12.1a8,8,0,0,0,1,.73l.23.14a23.62,23.62,0,0,0,2.58,1.32,5.37,5.37,0,0,0,4.15.38,2.58,2.58,0,0,0,.62-.38l.09-.08a2.06,2.06,0,0,0,.6-2,2.78,2.78,0,0,0-1.28-1.84l0,0a5.1,5.1,0,0,0-1.78-.64,12.85,12.85,0,0,0-3.72,0l-.25,0c-.43.06-.8.13-1.07.18l-.5.11Zm1,1.1-.39-.26c.36-.07.83-.15,1.35-.22a14.72,14.72,0,0,1,2.41-.1,7.7,7.7,0,0,1,1.24.18,3,3,0,0,1,.86.36l0,0a1.41,1.41,0,0,1,.67.92.66.66,0,0,1-.12.59l-.09.09a2.21,2.21,0,0,1-1.66.28,5.67,5.67,0,0,1-1.65-.49A21.48,21.48,0,0,1,489.14,366.44Z" transform="translate(-345.24 -113.91)"/><path class="cls-5" d="M486.67,365.73l1.18-.79c-.79-1.23-1-3.3-.43-4.11.14-.19.38-.4,1-.22a.8.8,0,0,1,.62.48c.3.82-.44,2.49-1,3.35l1.19.78c.18-.29,1.77-2.87,1.12-4.64a2.2,2.2,0,0,0-1.56-1.36,2.16,2.16,0,0,0-2.51.76C485.25,361.42,485.66,364.16,486.67,365.73Z" transform="translate(-345.24 -113.91)"/><path class="cls-17" d="M490.67,387.07l1,.63a9,9,0,0,1,1.48-6.64,11.1,11.1,0,0,1,7.68-4.67c.15-.38.29-.73.43-1a12,12,0,0,0-8.88,5.17A9.89,9.89,0,0,0,490.67,387.07Z" transform="translate(-345.24 -113.91)"/><path class="cls-5" d="M485.28,368.13a.64.64,0,0,0,.8-.09.67.67,0,0,0,0-.94l-1.79-1.85a.64.64,0,0,0-.92,0,.66.66,0,0,0,0,.93l1.79,1.85Z" transform="translate(-345.24 -113.91)"/><path class="cls-5" d="M482.43,368.07a.65.65,0,0,0,.8-.1.67.67,0,0,0,0-.94l-1.78-1.84a.65.65,0,0,0-.93,0,.68.68,0,0,0,0,.94l1.79,1.85A.58.58,0,0,0,482.43,368.07Z" transform="translate(-345.24 -113.91)"/><path class="cls-5" d="M479.6,368a.65.65,0,0,0,.8-.1.67.67,0,0,0,0-.94l-1.79-1.84a.63.63,0,0,0-.92,0,.67.67,0,0,0,0,.94l1.79,1.85Z" transform="translate(-345.24 -113.91)"/><path class="cls-5" d="M476.64,367.63a.64.64,0,0,0,.8-.09.67.67,0,0,0,0-.94l-1.79-1.85a.64.64,0,0,0-.92,0,.67.67,0,0,0,0,.94l1.79,1.84A.53.53,0,0,0,476.64,367.63Z" transform="translate(-345.24 -113.91)"/><path class="cls-5" d="M473.59,367a.64.64,0,0,0,.79-.1.66.66,0,0,0,0-.93l-1.79-1.85a.64.64,0,0,0-.92,0,.67.67,0,0,0,0,.94l1.79,1.85Z" transform="translate(-345.24 -113.91)"/><path class="cls-9" d="M538.88,288.88c4.12-2.79,62-6.06,79.1,2.71,1.3,4.49-27.07,16.28-35.39,24.55-24.59-.76-39.46,4.77-39.46,4.77s-12.25,18.25-18.67,24.57-19.85,24.71-19.85,24.71l-11.95-9S527.65,296.47,538.88,288.88Z" transform="translate(-345.24 -113.91)"/><path class="cls-18" d="M509.59,363.14a.5.5,0,0,0,.52-.22.52.52,0,0,0-.13-.72l-12.37-8.64a.5.5,0,0,0-.71.13.52.52,0,0,0,.14.72l12.36,8.65A.52.52,0,0,0,509.59,363.14Z" transform="translate(-345.24 -113.91)"/><path class="cls-18" d="M506.38,360.87a.5.5,0,0,0,.52-.22c.06-.08,1.57-2.22,11.79-13.64,11.14-12.44,23.49-31.09,23.62-31.28a.53.53,0,0,0-.14-.72.51.51,0,0,0-.71.14c-.12.18-12.43,18.78-23.52,31.16-10.34,11.54-11.82,13.67-11.88,13.75a.52.52,0,0,0,.13.72A.55.55,0,0,0,506.38,360.87Z" transform="translate(-345.24 -113.91)"/><path class="cls-7" d="M638.17,290.85s10.74,45.84-41.42,38.68c-23.54-3.24-34-9.13-34-9.13s-4.57,20.89-7.34,29.54-9,23.8-9,23.8L532.48,371s6.76-65.86,19.37-70.71S585,294,613.28,296.77C613.28,296.77,633.69,292.06,638.17,290.85Z" transform="translate(-345.24 -113.91)"/><path class="cls-9" d="M546.15,365.79a.51.51,0,0,0,.57-.32c3.95-9.76,7-22.28,9.52-32.34,2.06-8.34,4-16.21,5.25-17,1-.6,4.46.71,8.83,2.37,8.7,3.31,21.85,8.31,37.5,7.73,8.53-.32,15.3-3.17,20.13-8.48,8.31-9.16,7.89-22.64,7.89-22.78a.51.51,0,1,0-1,0c0,.13.4,13.2-7.63,22-4.63,5.09-11.16,7.83-19.4,8.14-15.46.57-28.49-4.38-37.11-7.66-5.16-2-8.28-3.15-9.71-2.3s-3,6.68-5.71,17.61c-2.48,10-5.56,22.5-9.48,32.2a.53.53,0,0,0,.28.68Z" transform="translate(-345.24 -113.91)"/><path class="cls-9" d="M533.66,363.31h0l15.58,2.74a.52.52,0,0,0,.17-1l-15.58-2.75a.52.52,0,0,0-.19,1Z" transform="translate(-345.24 -113.91)"/><path class="cls-6" d="M600.45,299l-54.14-2.28a1.17,1.17,0,0,1-1.11-1.23l.21-5.14a1.17,1.17,0,0,1,1.2-1.14l54.14,2.28a1.17,1.17,0,0,1,1.11,1.23l-.21,5.14A1.17,1.17,0,0,1,600.45,299Z" transform="translate(-345.24 -113.91)"/><path class="cls-6" d="M539.26,296.46a4.71,4.71,0,0,1-4.39-3.74l-8.93-40.78a3.87,3.87,0,0,1,3.88-4.73l25.27,1.06a3.82,3.82,0,0,1,3.55,3l10.79,46.47Z" transform="translate(-345.24 -113.91)"/><path class="cls-8" d="M541.88,272.4c.58,2.67,3,5,5.31,5.22s3.78-1.79,3.2-4.46-3-5-5.32-5.22S541.29,269.72,541.88,272.4Z" transform="translate(-345.24 -113.91)"/><path class="cls-6" d="M546.63,271.91c.12.54.38,1,.58,1s.28-.4.16-.93-.38-1-.58-1S546.52,271.38,546.63,271.91Z" transform="translate(-345.24 -113.91)"/><path class="cls-6" d="M544.41,271.72c.12.53.38,1,.58,1s.28-.4.16-.94-.37-1-.58-1S544.3,271.18,544.41,271.72Z" transform="translate(-345.24 -113.91)"/><path class="cls-6" d="M546.61,275.13c1.83.16,1.79-1.88,1.79-1.9a.29.29,0,0,0-.19-.26.13.13,0,0,0-.19.14c0,.07,0,1.74-1.5,1.6s-2.25-1.87-2.28-1.94-.16-.2-.25-.18-.14.12-.09.24S544.78,275,546.61,275.13Z" transform="translate(-345.24 -113.91)"/><path class="cls-6" d="M558.64,251.26l10.71,46.09,2.88.12-10.7-46.09a3.84,3.84,0,0,0-3.55-3l-2.89-.12A3.82,3.82,0,0,1,558.64,251.26Z" transform="translate(-345.24 -113.91)"/><path class="cls-17" d="M568.58,294.48a.41.41,0,0,1-.4-.32l-9.94-42.8a.42.42,0,1,1,.81-.2L569,294a.41.41,0,0,1-.3.51Z" transform="translate(-345.24 -113.91)"/><path class="cls-8" d="M591.18,258.23a.83.83,0,0,1,0,.15,14.08,14.08,0,0,0,.56,1.58,24.68,24.68,0,0,0,4.38,6.72c.24.28.39.42.39.42s0,0,0,.06,0,.31,0,.49a21.61,21.61,0,0,1-.36,2.35c-2.18,10.14-2.71,11.84-3.59,16.15,13,19.2,43.93,7.1,45.57,4.73,1.43-10.28,1.43-10.28,2.94-20.22a113.45,113.45,0,0,1,5.24-19.17c.1-.28.2-.57.31-.85.77-2.11,1.59-4.2,2.45-6.22,3.77-8.82,2.91-16.76-2.14-20.39-1.72-1.23-7-2.85-9.33-3.35l-1.84-.39c-3.29-.65-5.86-1-5.86-1l-15.8.11c-1.55.18-3,.37-4.21.6s-2.11.43-3,.68c-8.06,2.24-8.37,6.56-9.86,14.35a59.34,59.34,0,0,1-1.69,6.49c-.22.66-.43,1.31-.65,2C592.59,249.64,590.31,255,591.18,258.23Z" transform="translate(-345.24 -113.91)"/><path class="cls-16" d="M614.51,218.72l-.58,5.71a5.55,5.55,0,0,0,8.4,5.4c4.56-2.83,8.66-6.71,8.72-10.38Z" transform="translate(-345.24 -113.91)"/><path class="cls-12" d="M596.55,267.1s0,0,0,.06,0,.31,0,.49a26.33,26.33,0,0,0,11-.06,24.54,24.54,0,0,1,15.71,2.47.4.4,0,0,0,.22.06.42.42,0,0,0,.37-.23.45.45,0,0,0-.15-.6,25.12,25.12,0,0,0-16.31-2.57,25.07,25.07,0,0,1-11.13,0C596.4,267,596.55,267.1,596.55,267.1Z" transform="translate(-345.24 -113.91)"/><path class="cls-12" d="M610.84,245.24c5.28,0,16.07-7.62,16.53-8a.44.44,0,0,0,.11-.61.44.44,0,0,0-.61-.11c-.11.08-11,7.81-16,7.78-4.78,0-5.82-5.36-5.83-5.41a.44.44,0,0,0-.5-.36.45.45,0,0,0-.35.52C604.18,239.16,605.35,245.21,610.84,245.24Z" transform="translate(-345.24 -113.91)"/><path class="cls-12" d="M593.74,278.85a.51.51,0,0,0,.58-.35c1.24-4,2.72-11.12,2.74-11.19a.52.52,0,0,0-.2-.52,15.09,15.09,0,0,1-5.18-8.59.5.5,0,0,0-.58-.42.52.52,0,0,0-.42.6,15.87,15.87,0,0,0,5.31,9c-.3,1.42-1.56,7.3-2.64,10.78a.52.52,0,0,0,.33.65Z" transform="translate(-345.24 -113.91)"/><path class="cls-6" d="M611.79,176.26a9.83,9.83,0,0,0-8.57.87c-4.43,2.69-4.74,6.41-4.43,9.5s-2.09,1.93-2.56,6.78,3.17,3.31,2.48,7.65-2.21,9,1,11.3,1.41,6.18,2.11,10c.21,1.12,4.14-2.37,12.63-2.61,3.26-.09,2.1-3.3,0-7s-2.83-24.62-1.08-28.18S611.79,176.26,611.79,176.26Z" transform="translate(-345.24 -113.91)"/><path class="cls-19" d="M605.66,200.6s-2.85-2.42-3.69.67,1.19,8.65,4.62,7Z" transform="translate(-345.24 -113.91)"/><path class="cls-16" d="M613.66,214.19l1,7.8s5.62,7.84,16.28-2.56c-2.07-3.11-3.76-8.91-3.36-12.08A14.89,14.89,0,0,0,625.5,209a10.6,10.6,0,0,1-.89.6C621.81,211.42,617.54,213.8,613.66,214.19Z" transform="translate(-345.24 -113.91)"/><path class="cls-6" d="M613.66,214.19l.5,3.7c3.15-1.35,8.74-4.25,11.34-8.92l-.89.6C621.81,211.42,617.54,213.8,613.66,214.19Z" transform="translate(-345.24 -113.91)"/><path class="cls-16" d="M606.59,212.46c6.8,6.66,20.61-4.73,21-5.08h0c0-.63,0-1.26,0-1.88a49.52,49.52,0,0,0-2-14.33,10.87,10.87,0,0,0-8.73-9.47c-4.8-.86-8.48,1.9-10.78,3.1-3.46,1.82-4.92,7.07-3.74,14C603.84,207.2,604.7,210.62,606.59,212.46Z" transform="translate(-345.24 -113.91)"/><path class="cls-6" d="M608.73,183.34s-2.8,10.6-9.7,10.07C599,193.41,598.8,182.59,608.73,183.34Z" transform="translate(-345.24 -113.91)"/><path class="cls-6" d="M607.2,180.22s-.86,7.24,5.57,7.95,8.52,2.15,8.87,5.71,3.92,2.46,5.86,2.65-1.31,4.81-.4,9.33c.85,4.17-2,6.58-1.6,10.31s11,3.74,16.58,6-4.16-9.62-2-13.53c3.26-5.74-5.93-7.6-3.63-12.55,2.53-5.47.07-8.91-3.18-11.4s-2.72-6.33-6.93-9.34c-2.84-2-5.91-1.93-11.56-1.35C608.73,174.6,607.46,179.18,607.2,180.22Z" transform="translate(-345.24 -113.91)"/><path class="cls-5" d="M615.26,239.27a4.52,4.52,0,0,1-3.92-1.93c-3.37-4.79.65-17.14.82-17.67a.65.65,0,0,1,.82-.41.67.67,0,0,1,.4.83c0,.12-4,12.24-1,16.49a3.28,3.28,0,0,0,2.88,1.38c10.74,0,17.06-18.07,17.12-18.25a.65.65,0,0,1,.82-.41.67.67,0,0,1,.4.84C633.33,220.92,626.91,239.27,615.26,239.27Z" transform="translate(-345.24 -113.91)"/><path class="cls-6" d="M618.89,181.25s-7.23-10.4,2.27-14.48c9.05-3.89,15.29,4.58,14.32,10s-7.92,8.08-7.92,8.08Z" transform="translate(-345.24 -113.91)"/><path class="cls-19" d="M611.9,209.09a3.51,3.51,0,0,1-1.49-.15.27.27,0,0,1-.15-.34.26.26,0,0,1,.34-.16h0a2.66,2.66,0,0,0,2.32-.3.27.27,0,0,1,.3.44A3,3,0,0,1,611.9,209.09Z" transform="translate(-345.24 -113.91)"/><path class="cls-5" d="M606.91,204.65s3.89-.5,8.35-1.43a4.61,4.61,0,0,1-3.61,4.3C608.15,208.24,606.91,204.65,606.91,204.65Z" transform="translate(-345.24 -113.91)"/><path d="M610.2,202.44a.31.31,0,0,0,.15-.2.32.32,0,0,0-.22-.4l-2.14-.61,1.19-1.35a.3.3,0,0,0,.08-.27l-.55-3.54a.32.32,0,1,0-.63.1l.52,3.39-1.43,1.63a.34.34,0,0,0-.07.31.32.32,0,0,0,.22.22l2.64.75A.33.33,0,0,0,610.2,202.44Z" transform="translate(-345.24 -113.91)"/><path class="cls-6" d="M611.63,190.61a1,1,0,0,0-.63,1.55c.69,1.16,3.14-.71,5.46,1.25C616.46,193.41,616.75,190.26,611.63,190.61Z" transform="translate(-345.24 -113.91)"/><path class="cls-6" d="M605.56,191.71s1.36-.11,1.11,1.23-3.18.45-4.7,3.11C602,196.05,600.63,193.19,605.56,191.71Z" transform="translate(-345.24 -113.91)"/><path class="cls-19" d="M613.76,200.3c.11.64,1.49.92,3.08.63s2.78-1,2.67-1.67-1.49-.92-3.07-.64S613.65,199.66,613.76,200.3Z" transform="translate(-345.24 -113.91)"/><path class="cls-19" d="M602.25,203.55l.7-.09c1.58-.29,2.78-1,2.67-1.68s-1.49-.92-3.08-.63a6.21,6.21,0,0,0-.62.14Z" transform="translate(-345.24 -113.91)"/><path class="cls-6" d="M624.2,204.33c.06.09,1.65,2.56,3.41,3h0c0-.63,0-1.26,0-1.88A6.54,6.54,0,0,1,624.2,204.33Z" transform="translate(-345.24 -113.91)"/><path class="cls-16" d="M624.71,198s2.61-5.33,5.77-2.09c2.6,2.67.07,11.32-4.51,9.34Z" transform="translate(-345.24 -113.91)"/><path class="cls-6" d="M626.2,203.72a.37.37,0,0,0,.29-.38,6.18,6.18,0,0,1,2.58-5.48.36.36,0,0,0-.38-.62,6.88,6.88,0,0,0-2.91,6.15.36.36,0,0,0,.38.34Z" transform="translate(-345.24 -113.91)"/><path class="cls-6" d="M629.11,200.94a.35.35,0,0,0,.25-.18.37.37,0,0,0-.14-.5,3.4,3.4,0,0,0-2.62-.41.37.37,0,0,0,.3.67,2.74,2.74,0,0,1,2,.38A.41.41,0,0,0,629.11,200.94Z" transform="translate(-345.24 -113.91)"/><path class="cls-6" d="M612.63,197.08c.15.87.66,1.51,1.14,1.42s.75-.87.6-1.74-.67-1.52-1.15-1.43S612.47,196.2,612.63,197.08Z" transform="translate(-345.24 -113.91)"/><path class="cls-6" d="M604.14,198.43c.15.87.66,1.51,1.14,1.43s.75-.87.6-1.75-.67-1.51-1.15-1.42S604,197.55,604.14,198.43Z" transform="translate(-345.24 -113.91)"/><path class="cls-5" d="M612.65,201.06a2.77,2.77,0,0,1-2.7-2.39l-.27-1.93a1.39,1.39,0,0,1,1.15-1.58l7.69-1.13a1.36,1.36,0,0,1,1.54,1.17l.28,1.94a2.8,2.8,0,0,1-.52,2.06,2.66,2.66,0,0,1-1.8,1.09l-5,.74Zm6.07-6.37h-.1l-7.69,1.14a.71.71,0,0,0-.6.81l.28,1.93a2,2,0,0,0,.81,1.39,2,2,0,0,0,1.53.4l5-.73a2,2,0,0,0,1.36-.83,2.13,2.13,0,0,0,.39-1.57l-.27-1.93A.71.71,0,0,0,618.72,194.69Z" transform="translate(-345.24 -113.91)"/><path class="cls-5" d="M602.65,202.53A2.66,2.66,0,0,1,601,202a2.79,2.79,0,0,1-1.07-1.83l-.27-1.93a1.39,1.39,0,0,1,1.15-1.58l5.19-.76a1.37,1.37,0,0,1,1.54,1.18l.28,1.93a2.8,2.8,0,0,1-2.32,3.16l-2.47.36A2.69,2.69,0,0,1,602.65,202.53Zm3.56-6h-.1l-5.18.76a.73.73,0,0,0-.6.81l.28,1.93a2.06,2.06,0,0,0,.81,1.39,2,2,0,0,0,1.53.4l2.48-.36a2.11,2.11,0,0,0,1.75-2.4l-.27-1.93A.71.71,0,0,0,606.21,196.53Z" transform="translate(-345.24 -113.91)"/><path class="cls-5" d="M607.25,197l-.34-.58a3.32,3.32,0,0,1,3.17-.32l-.24.62A2.72,2.72,0,0,0,607.25,197Z" transform="translate(-345.24 -113.91)"/><path class="cls-5" d="M619.74,195.59a.34.34,0,0,1-.32-.23.36.36,0,0,1,.21-.43c.17-.05,4.12-1.4,7.26-.18a.34.34,0,0,1,.19.43.33.33,0,0,1-.43.2c-2.91-1.13-6.77.18-6.81.19Z" transform="translate(-345.24 -113.91)"/><path class="cls-16" d="M583.77,287.21s-9.91-4.55-14.43-2.22l1.79,7.73,5.71,2.73c1.74.82,1.92,4.21,8.55,4.24Z" transform="translate(-345.24 -113.91)"/><path class="cls-8" d="M652,243.56c0-2.43-.19-4.84-.44-7.27-.12-1.21-.27-2.42-.46-3.65-.1-.61-.2-1.23-.32-1.86q-.07-.47-.18-1l-.11-.51-.06-.27-.08-.36L633.16,233l.09.45.12.64c.08.43.16.89.23,1.34.15.92.28,1.86.38,2.8.22,1.89.35,3.81.41,5.72a66.91,66.91,0,0,1-.54,11.43q-.2,1.4-.45,2.79c-.16.93-.35,1.85-.56,2.76s-.45,1.81-.7,2.71-.53,1.78-.83,2.65-.62,1.74-1,2.6-.7,1.7-1.09,2.53-.8,1.65-1.24,2.46c-.21.4-.44.8-.67,1.2l0,0c-.16.12-.38.28-.64.45a19.31,19.31,0,0,1-2,1.1,51.41,51.41,0,0,1-5.1,2.08c-3.65,1.29-7.58,2.38-11.55,3.4s-8,1.9-12.1,2.74c-2,.42-4.09.83-6.13,1.21l-3.07.57-1.54.27-1.49.26,1.66,13.9,1.67-.15,1.63-.17c1.08-.11,2.16-.24,3.24-.37,2.15-.25,4.31-.53,6.46-.83,4.31-.61,8.62-1.31,13-2.17s8.67-1.85,13.12-3.18a62.87,62.87,0,0,0,6.85-2.48l.76-.34a31.63,31.63,0,0,0,2.93-1.51,23.59,23.59,0,0,0,2-1.31,17.49,17.49,0,0,0,2.21-1.89,12.74,12.74,0,0,0,1.2-1.36c.21-.27.41-.54.61-.85l.15-.23.07-.11.12-.2c.33-.53.66-1.05,1-1.59.57-1,1.11-1.93,1.63-2.92l.18-.35c.57-1.1,1.1-2.22,1.61-3.36s1-2.27,1.43-3.43A72.3,72.3,0,0,0,651,258.08,83.46,83.46,0,0,0,652,243.56Zm-24.6,31.54,0,0a.55.55,0,0,1,.14-.14S627.52,275,627.39,275.1Z" transform="translate(-345.24 -113.91)"/><path class="cls-12" d="M644,279.48c-.52,1-1.06,2-1.63,2.92-.31.54-.64,1.06-1,1.59l-.12.2-.07.11-.15.23c-.2.31-.4.58-.61.85a12.74,12.74,0,0,1-1.2,1.36,17.49,17.49,0,0,1-2.21,1.89,23.59,23.59,0,0,1-2,1.31,31.63,31.63,0,0,1-2.93,1.51C632.54,279.85,640,279.07,644,279.48Z" transform="translate(-345.24 -113.91)"/><path class="cls-12" d="M632.38,279.94a.51.51,0,0,0,.46-.14.52.52,0,0,0,0-.73,50.28,50.28,0,0,0-6.06-5.14.5.5,0,0,0-.71.12.52.52,0,0,0,.12.72,52.26,52.26,0,0,1,5.93,5A.48.48,0,0,0,632.38,279.94Z" transform="translate(-345.24 -113.91)"/><path class="cls-12" d="M631.43,276.27a.52.52,0,0,0,.25-1c-.11,0-2.77-.84-4.86-1.24a.51.51,0,0,0-.59.41.54.54,0,0,0,.41.61c2,.39,4.72,1.2,4.74,1.21Z" transform="translate(-345.24 -113.91)"/><path class="cls-12" d="M594,285.56a.54.54,0,0,0,.22,0c18.88-4.79,31.55-10.29,32.19-10.92a.66.66,0,0,0,.12-.17c.43-1.09,10.59-26.8,9.13-37.16a.51.51,0,1,0-1,.15c1.37,9.69-8.18,34.35-9,36.47-1.32.78-13.65,6.05-31.67,10.62a.52.52,0,0,0,0,1Z" transform="translate(-345.24 -113.91)"/><path class="cls-12" d="M634.87,242.32a.52.52,0,0,0,.52-.8l-1.73-2.67a.5.5,0,0,0-.7-.15.53.53,0,0,0-.15.72l1.73,2.67A.55.55,0,0,0,634.87,242.32Z" transform="translate(-345.24 -113.91)"/><path class="cls-12" d="M593.36,300.45h.17a.51.51,0,0,0,.44-.58L592.2,286.3a.52.52,0,0,0-.57-.45.53.53,0,0,0-.44.59L593,300A.51.51,0,0,0,593.36,300.45Z" transform="translate(-345.24 -113.91)"/><path class="cls-12" d="M585.35,298.25h.18l7.33-1.13a.51.51,0,0,0,.43-.59.5.5,0,0,0-.58-.43l-7.33,1.12a.52.52,0,0,0-.43.59A.51.51,0,0,0,585.35,298.25Z" transform="translate(-345.24 -113.91)"/><path class="cls-12" d="M587.42,292.88a1.21,1.21,0,0,0,.69,1.55,1.17,1.17,0,0,0,1.51-.7,1.21,1.21,0,0,0-.69-1.55A1.17,1.17,0,0,0,587.42,292.88Z" transform="translate(-345.24 -113.91)"/><path class="cls-20" d="M451.22,263.15H365.39a13.2,13.2,0,0,1,0-26.4h85.83a13.2,13.2,0,0,1,0,26.4Zm-85.83-25a11.8,11.8,0,0,0,0,23.59h85.83a11.8,11.8,0,0,0,0-23.59Z" transform="translate(-345.24 -113.91)"/><polygon class="cls-8" points="25.76 141.29 20.75 143.97 21.71 138.28 17.66 134.25 23.25 133.42 25.76 128.25 28.26 133.42 33.86 134.25 29.81 138.28 30.77 143.97 25.76 141.29"/><polygon class="cls-8" points="51.31 141.29 46.3 143.97 47.26 138.28 43.21 134.25 48.81 133.42 51.31 128.25 53.81 133.42 59.41 134.25 55.36 138.28 56.32 143.97 51.31 141.29"/><polygon class="cls-8" points="76.86 141.29 71.85 143.97 72.81 138.28 68.76 134.25 74.36 133.42 76.86 128.25 79.37 133.42 84.97 134.25 80.91 138.28 81.87 143.97 76.86 141.29"/><polygon class="cls-3" points="102.41 141.29 97.41 143.97 98.36 138.28 94.31 134.25 99.91 133.42 102.41 128.25 104.92 133.42 110.52 134.25 106.46 138.28 107.42 143.97 102.41 141.29"/><path class="cls-21" d="M635.45,150.41h0l-4.69-.14a.39.39,0,0,1-.29-.13.38.38,0,0,1-.11-.3l.09-3.21a23.34,23.34,0,0,1-5.65-1.32,13.93,13.93,0,0,1-2.65-1.33.44.44,0,0,1-.14-.54l2.69-5.76a.4.4,0,0,1,.59-.18,15.53,15.53,0,0,0,4.64,1.94,12.73,12.73,0,0,0,2.78.39,5.62,5.62,0,0,0,2.19-.24c.39-.16.45-.36.45-.55,0-.69-1.41-1.1-3-1.49l-.56-.14a20.74,20.74,0,0,1-5.6-1.95,6.76,6.76,0,0,1-2.75-2.79,7.21,7.21,0,0,1-.71-3.45c.12-4.24,3.34-7.27,8.42-8l.09-3.34a.46.46,0,0,1,.13-.29.38.38,0,0,1,.3-.11l4.69.13a.42.42,0,0,1,.4.44l-.09,3.25a20.25,20.25,0,0,1,2.27.45,15.53,15.53,0,0,1,4.22,1.72.43.43,0,0,1,.17.53l-2.53,5.74a.4.4,0,0,1-.57.2l-.46-.25a13.59,13.59,0,0,0-5.8-1.65h-.39c-1,0-2.23.19-2.26,1,0,.12,0,.29.32.49a11,11,0,0,0,3.19,1c.9.21,1.93.45,2.93.77,1.86.59,4.46,1.66,5.6,4.16h0a7,7,0,0,1,.59,3.16c-.11,4.07-3.16,7.08-8,7.91l-.1,3.42a.41.41,0,0,1-.13.29A.4.4,0,0,1,635.45,150.41Zm-4.27-1,3.87.11.09-3.35a.43.43,0,0,1,.36-.4c4.66-.69,7.51-3.36,7.62-7.15a6.38,6.38,0,0,0-.51-2.79h0c-.77-1.67-2.39-2.85-5.1-3.71-1-.3-2-.54-2.88-.75a11,11,0,0,1-3.47-1.16,1.38,1.38,0,0,1-.67-1.2c0-.82.57-1.79,3.08-1.82H634a14.23,14.23,0,0,1,6.14,1.74l.09.05,2.19-5a14.56,14.56,0,0,0-3.68-1.44,20.74,20.74,0,0,0-2.54-.49.42.42,0,0,1-.37-.43l.09-3.21-3.86-.11-.1,3.28a.42.42,0,0,1-.36.41c-4.93.56-7.93,3.25-8,7.2a6.23,6.23,0,0,0,.61,3,6,6,0,0,0,2.43,2.45,19.86,19.86,0,0,0,5.38,1.86l.56.14c1.72.42,3.68.91,3.64,2.33a1.41,1.41,0,0,1-1,1.31,6.16,6.16,0,0,1-2.53.3,13.58,13.58,0,0,1-2.95-.41,16.62,16.62,0,0,1-4.49-1.8l-2.34,5a13.41,13.41,0,0,0,2.18,1.05,22.31,22.31,0,0,0,5.81,1.31.42.42,0,0,1,.38.43Z" transform="translate(-345.24 -113.91)"/><path class="cls-20" d="M424.06,276.5H357.31a.42.42,0,0,1,0-.84h66.75a.42.42,0,0,1,0,.84Z" transform="translate(-345.24 -113.91)"/><path class="cls-20" d="M512.12,113.91H454.73a.41.41,0,0,0-.41.42h0a.41.41,0,0,0,.41.42h57.39a.42.42,0,0,0,.41-.42h0A.42.42,0,0,0,512.12,113.91Z" transform="translate(-345.24 -113.91)"/><path class="cls-20" d="M506.32,268.56l-5-5.58a18.87,18.87,0,0,1-7.25,1.44c-9,0-16.37-6.18-16.37-13.76S485,236.9,494,236.9s16.38,6.17,16.38,13.76a12.78,12.78,0,0,1-4.93,9.82l1.55,7.71a.44.44,0,0,1-.22.46.41.41,0,0,1-.19,0A.39.39,0,0,1,506.32,268.56Zm-27.83-17.9c0,7.12,7,12.91,15.54,12.91a18,18,0,0,0,7.19-1.48.42.42,0,0,1,.47.1l4.23,4.69-1.3-6.48a.44.44,0,0,1,.15-.42,12,12,0,0,0,4.81-9.32c0-7.12-7-12.92-15.55-12.92S478.49,243.54,478.49,250.66Z" transform="translate(-345.24 -113.91)"/><path class="cls-20" d="M498.27,250.44a2.66,2.66,0,1,1,2.66,2.71A2.69,2.69,0,0,1,498.27,250.44Zm.83,0a1.83,1.83,0,1,0,1.83-1.87A1.85,1.85,0,0,0,499.1,250.44Z" transform="translate(-345.24 -113.91)"/><path class="cls-20" d="M491.24,250.44a2.66,2.66,0,1,1,2.66,2.71A2.69,2.69,0,0,1,491.24,250.44Zm.82,0a1.84,1.84,0,1,0,1.84-1.87A1.86,1.86,0,0,0,492.06,250.44Z" transform="translate(-345.24 -113.91)"/><path class="cls-20" d="M484.21,250.44a2.66,2.66,0,1,1,2.66,2.71A2.69,2.69,0,0,1,484.21,250.44Zm.82,0a1.84,1.84,0,1,0,1.84-1.87A1.86,1.86,0,0,0,485,250.44Z" transform="translate(-345.24 -113.91)"/><path class="cls-22" d="M661.6,200h-.12a11.87,11.87,0,0,1-8.52-3.63,12.35,12.35,0,0,1-3.51-8.71v-.09a12.2,12.2,0,0,1,12.06-12.28h.12a12.2,12.2,0,0,1,12,12.34v.09a12.36,12.36,0,0,1-3.55,8.69A11.85,11.85,0,0,1,661.6,200Zm0-.84h0a11.08,11.08,0,0,0,7.93-3.34,11.56,11.56,0,0,0,3.31-8.1v-.09a11.36,11.36,0,0,0-11.21-11.49h-.12a11.36,11.36,0,0,0-11.24,11.43v.1a11.53,11.53,0,0,0,3.28,8.11,11,11,0,0,0,7.93,3.38Z" transform="translate(-345.24 -113.91)"/><path class="cls-9" d="M661.76,195.82h0a.4.4,0,0,1-.29-.12l-5.84-6a5,5,0,0,1,0-6.95,3.44,3.44,0,0,1,2.85-1.1,4.89,4.89,0,0,1,3.29,2.11,5,5,0,0,1,3.29-2.1,3.46,3.46,0,0,1,2.85,1.12,5,5,0,0,1,0,6.94l-5.87,6A.38.38,0,0,1,661.76,195.82Zm-3.6-13.33a2.69,2.69,0,0,0-1.93.87,4.14,4.14,0,0,0,0,5.76l5.54,5.69,5.57-5.66a4.11,4.11,0,0,0,1.18-2.88h0a4.09,4.09,0,0,0-1.16-2.88,2.63,2.63,0,0,0-2.19-.87,4.41,4.41,0,0,0-3,2.21.42.42,0,0,1-.34.19h0a.42.42,0,0,1-.35-.19,4.39,4.39,0,0,0-3-2.22Z" transform="translate(-345.24 -113.91)"/><path class="cls-20" d="M504.47,296.69a4.46,4.46,0,1,0,4.36,4.45A4.41,4.41,0,0,0,504.47,296.69Zm0,8.07a3.62,3.62,0,1,1,3.54-3.62A3.58,3.58,0,0,1,504.47,304.76Z" transform="translate(-345.24 -113.91)"/><path class="cls-20" d="M353.83,298.26a4.45,4.45,0,1,0,4.36,4.45A4.42,4.42,0,0,0,353.83,298.26Zm0,8.07a3.62,3.62,0,1,1,3.54-3.62A3.59,3.59,0,0,1,353.83,306.33Z" transform="translate(-345.24 -113.91)"/><path class="cls-20" d="M457.65,295.52h-3.79a.86.86,0,0,1-.84-.86v-4.18h-4.09a.85.85,0,0,1-.85-.86v-3.86a.86.86,0,0,1,.85-.87H453v-4.17a.86.86,0,0,1,.84-.87h3.79a.86.86,0,0,1,.85.87v4.17h4.09a.86.86,0,0,1,.84.87v3.86a.85.85,0,0,1-.84.86H458.5v4.18A.86.86,0,0,1,457.65,295.52Zm-8.72-9.85a.08.08,0,0,0-.08.09v3.86a.07.07,0,0,0,.08.08h4.85v5a.09.09,0,0,0,.08.08h3.79a.08.08,0,0,0,.08-.08v-5h4.86a.08.08,0,0,0,.08-.08v-3.86a.09.09,0,0,0-.08-.09h-4.86v-4.95a.08.08,0,0,0-.08-.09h-3.79a.09.09,0,0,0-.08.09v4.95Z" transform="translate(-345.24 -113.91)"/><path class="cls-22" d="M667.87,156.12h-3.78a.85.85,0,0,1-.85-.86v-4.17h-4.09a.86.86,0,0,1-.85-.87v-3.86a.86.86,0,0,1,.85-.87h4.09v-4.17a.86.86,0,0,1,.85-.86h3.78a.86.86,0,0,1,.85.86v4.17h4.09a.86.86,0,0,1,.85.87v3.86a.86.86,0,0,1-.85.87h-4.09v4.17A.85.85,0,0,1,667.87,156.12Zm-8.72-9.84a.08.08,0,0,0-.08.08v3.86a.09.09,0,0,0,.08.09H664v4.95a.07.07,0,0,0,.08.08h3.78a.08.08,0,0,0,.09-.08v-4.95h4.85a.08.08,0,0,0,.08-.09v-3.86a.07.07,0,0,0-.08-.08H668v-5a.09.09,0,0,0-.09-.08h-3.78a.08.08,0,0,0-.08.08v5Z" transform="translate(-345.24 -113.91)"/></g></svg>