<svg xmlns="http://www.w3.org/2000/svg" viewBox="0 0 750 500"><defs><style>.cls-1{fill:#fff;}.cls-2{fill:#e6f5fa;}.cls-3{fill:#90d3ed;}.cls-12,.cls-14,.cls-15,.cls-16,.cls-17,.cls-19,.cls-20,.cls-21,.cls-25,.cls-26,.cls-27,.cls-4,.cls-5{fill:none;}.cls-4,.cls-5{stroke:#fff;}.cls-15,.cls-16,.cls-19,.cls-21,.cls-25,.cls-26,.cls-27,.cls-4{stroke-linecap:round;stroke-linejoin:round;}.cls-4{stroke-width:1.29px;}.cls-12,.cls-14,.cls-17,.cls-20,.cls-23,.cls-24,.cls-5{stroke-miterlimit:10;}.cls-5{stroke-width:1.26px;}.cls-6{fill:#0083c8;}.cls-7{fill:#ffcc05;}.cls-8{fill:#6fc7bf;}.cls-9{fill:#d97f48;}.cls-10{fill:#08101c;}.cls-11{fill:#111d36;}.cls-12{stroke:#51a99f;}.cls-12,.cls-14{stroke-width:1.37px;}.cls-13{fill:#006ab8;}.cls-14{stroke:#005a94;}.cls-15,.cls-16,.cls-19,.cls-21,.cls-25,.cls-26,.cls-27{stroke:#111d36;}.cls-15{stroke-width:1px;}.cls-16{stroke-width:0.99px;}.cls-17{stroke:#6fc7bf;stroke-width:1.08px;}.cls-18{fill:#f7a771;}.cls-19{stroke-width:1.02px;}.cls-20{stroke:#00678d;}.cls-20,.cls-24{stroke-width:1.46px;}.cls-21{stroke-width:1.03px;}.cls-22,.cls-23,.cls-24{fill:#7ac943;}.cls-23{stroke:#7ac943;}.cls-24{stroke:#39b54a;}.cls-25{stroke-width:1.03px;}.cls-26{stroke-width:1.01px;}.cls-27{stroke-width:0.98px;}</style></defs><g id="OBJECTS"><rect class="cls-1" width="750" height="500"/><path class="cls-2" d="M585.05,316c0-118.77-96.27-215-215-215S155,197.25,155,316a214.13,214.13,0,0,0,45.45,132.22H539.6A214.07,214.07,0,0,0,585.05,316Z" transform="translate(-1.3 -1.08)"/><path class="cls-2" d="M664.4,361.51H608.84a3.67,3.67,0,0,1-3.67-3.68h0a3.67,3.67,0,0,1,3.67-3.67H664.4a3.67,3.67,0,0,1,3.67,3.67h0A3.67,3.67,0,0,1,664.4,361.51Z" transform="translate(-1.3 -1.08)"/><path class="cls-2" d="M129.88,322.93h-61a3.68,3.68,0,0,1-3.68-3.68h0a3.67,3.67,0,0,1,3.68-3.67h61a3.67,3.67,0,0,1,3.67,3.67h0A3.68,3.68,0,0,1,129.88,322.93Z" transform="translate(-1.3 -1.08)"/><rect class="cls-3" x="666.39" y="394.38" width="11.37" height="11.01" rx="2.77"/><rect class="cls-3" x="101.68" y="363.25" width="15.05" height="14.58" rx="3.67"/><path class="cls-4" d="M481.41,75.12h26.41a2.46,2.46,0,0,1,2.45,2.48v13A2.46,2.46,0,0,1,507.82,93H494.2L486.11,100V93.4l-4.75-.14a2.46,2.46,0,0,1-2.4-2.48V77.6A2.47,2.47,0,0,1,481.41,75.12Z" transform="translate(-1.3 -1.08)"/><path class="cls-5" d="M656.33,195.05a8,8,0,1,1-8-8.12A8.05,8.05,0,0,1,656.33,195.05Z" transform="translate(-1.3 -1.08)"/><path class="cls-5" d="M82.07,262.67a8,8,0,1,1-8-8.11A8.07,8.07,0,0,1,82.07,262.67Z" transform="translate(-1.3 -1.08)"/><path class="cls-6" d="M299.73,87.46a.51.51,0,0,0,.89-.33l0-9.75V61.61a3.49,3.49,0,0,0-3.49-3.49H254.62a3.49,3.49,0,0,0-3.49,3.49V78.73a3.49,3.49,0,0,0,3.49,3.49h40.62Z" transform="translate(-1.3 -1.08)"/><path class="cls-1" d="M267.86,70.3a2.12,2.12,0,1,1-2.13-2.11A2.11,2.11,0,0,1,267.86,70.3Z" transform="translate(-1.3 -1.08)"/><path class="cls-1" d="M277,70.27a2.13,2.13,0,1,1-2.13-2.11A2.12,2.12,0,0,1,277,70.27Z" transform="translate(-1.3 -1.08)"/><path class="cls-1" d="M286.07,70.25a2.12,2.12,0,1,1-2.13-2.12A2.11,2.11,0,0,1,286.07,70.25Z" transform="translate(-1.3 -1.08)"/><path class="cls-6" d="M576.55,65.18h51.79A6.62,6.62,0,0,1,635,71.8v48.3a6.62,6.62,0,0,1-6.62,6.62H578.67a8.74,8.74,0,0,1-8.74-8.74V71.8A6.62,6.62,0,0,1,576.55,65.18Z"/><path class="cls-1" d="M618.6,102.06l-3.86-3.86A3.42,3.42,0,0,0,612.26,97a3.55,3.55,0,0,0-2.48,1.11l-2.21,2.2-.41-.21a4.44,4.44,0,0,1-.69-.34,23.87,23.87,0,0,1-5.73-5.24A12.82,12.82,0,0,1,599,91.72c.55-.48,1-1,1.52-1.51l.62-.62a3.36,3.36,0,0,0,0-5.1l-1.93-1.93a7.15,7.15,0,0,1-.62-.69c-.41-.42-.9-.9-1.31-1.31a3.59,3.59,0,0,0-2.48-1.11,3.39,3.39,0,0,0-2.48,1.11L589.85,83a5.6,5.6,0,0,0-1.58,3.38,12.57,12.57,0,0,0,.89,5.24,28.44,28.44,0,0,0,5.38,9,33.44,33.44,0,0,0,11,8.61,18.36,18.36,0,0,0,6.2,1.87h.49a5.48,5.48,0,0,0,4.13-1.8l.07-.07A12.07,12.07,0,0,1,617.7,108l.9-.89A3.46,3.46,0,0,0,618.6,102.06ZM617,105.65l-.82.83c-.49.41-.9.89-1.38,1.38a3.31,3.31,0,0,1-2.48,1H612a14.57,14.57,0,0,1-5.38-1.66,31.46,31.46,0,0,1-10.27-8.06,30,30,0,0,1-5-8.34,8.66,8.66,0,0,1-.83-4.28,2.91,2.91,0,0,1,1-2l2.34-2.35a1.43,1.43,0,0,1,1-.48,1.32,1.32,0,0,1,1,.48L597,83.45a6.42,6.42,0,0,0,.69.69l1.93,1.93a1.62,1.62,0,0,1,.49,1,1.42,1.42,0,0,1-.49,1l-.62.62-1.72,1.73-.07.06a1.51,1.51,0,0,0-.41,1.73v.07A16,16,0,0,0,599,95.93a25.73,25.73,0,0,0,6.27,5.72,4.92,4.92,0,0,0,.9.48,6.28,6.28,0,0,1,.69.35l.07.07a1.59,1.59,0,0,0,1.93-.35l2.41-2.41a1.43,1.43,0,0,1,1-.48,1.4,1.4,0,0,1,.89.48l3.86,3.86A1.31,1.31,0,0,1,617,105.65Z" transform="translate(-1.3 -1.08)"/><path class="cls-7" d="M91,105.47h58a7.42,7.42,0,0,1,7.42,7.42V167a7.42,7.42,0,0,1-7.42,7.42H93.41a9.79,9.79,0,0,1-9.79-9.79V112.89A7.42,7.42,0,0,1,91,105.47Z"/><path class="cls-1" d="M107.49,126.77a19.62,19.62,0,1,0,27.75,0A19.7,19.7,0,0,0,107.49,126.77Zm27.7,2.83h-6.25a39.18,39.18,0,0,0-2.43-5.89A17.68,17.68,0,0,1,135.19,129.6Zm-21,9.9a31.45,31.45,0,0,1,.93-7.61h12.55a31.45,31.45,0,0,1,.93,7.61Zm14.33,2.29a36.75,36.75,0,0,1-1.35,7.61H115.58a37.4,37.4,0,0,1-1.34-7.61ZM121.36,123a18.19,18.19,0,0,1,2.78.21A36.16,36.16,0,0,1,127,129.6H115.75a36.16,36.16,0,0,1,2.84-6.44A18.16,18.16,0,0,1,121.36,123Zm-5.14.76a38.17,38.17,0,0,0-2.43,5.89h-6.26A17.75,17.75,0,0,1,116.22,123.71ZM106,131.89h7.16a34.27,34.27,0,0,0-1,7.61H103.7A17.6,17.6,0,0,1,106,131.89Zm0,17.51a17.56,17.56,0,0,1-2.28-7.61h8.47a37.06,37.06,0,0,0,1.19,7.61Zm1.55,2.3H114a48.7,48.7,0,0,0,2.42,6A17.8,17.8,0,0,1,107.53,151.7Zm13.83,6.65a17.84,17.84,0,0,1-2.32-.15,53.65,53.65,0,0,1-2.74-6.5h10.13a53.74,53.74,0,0,1-2.75,6.5A17.73,17.73,0,0,1,121.36,158.35Zm4.91-.69a48.7,48.7,0,0,0,2.42-6h6.5A17.73,17.73,0,0,1,126.27,157.66Zm10.48-8.26h-7.39a37.08,37.08,0,0,0,1.2-7.61H139A17.56,17.56,0,0,1,136.75,149.4Zm2.28-9.9h-8.44a33.68,33.68,0,0,0-1-7.61h7.16A17.6,17.6,0,0,1,139,139.5Z" transform="translate(-1.3 -1.08)"/><path class="cls-8" d="M629.13,247.81h55.31a7.07,7.07,0,0,1,7.07,7.07v51.58a7.07,7.07,0,0,1-7.07,7.07H631.39a9.33,9.33,0,0,1-9.33-9.33V254.89A7.07,7.07,0,0,1,629.13,247.81Z"/><path class="cls-1" d="M666.22,276.38a8.44,8.44,0,1,0-8.44,8.44A8.44,8.44,0,0,0,666.22,276.38Zm-14.76,0a6.33,6.33,0,1,1,6.32,6.33A6.32,6.32,0,0,1,651.46,276.38Z" transform="translate(-1.3 -1.08)"/><path class="cls-1" d="M656.93,301.25a1.06,1.06,0,0,0,1.48.23,1,1,0,0,0,.22-.23c.09-.11.49-.66,1.1-1.53L666,290.1c2.9-4.94,5.54-10.36,5.54-13.72a13.71,13.71,0,0,0-27.41,0c0,3.26,2.49,8.47,5.29,13.29l6.47,10.06Zm.85-36.46a11.59,11.59,0,0,1,11.6,11.59c0,5.05-7.71,17-11.6,22.45-3.88-5.49-11.59-17.4-11.59-22.45A11.59,11.59,0,0,1,657.78,264.79Z" transform="translate(-1.3 -1.08)"/><path class="cls-9" d="M165.87,259l-4.25,10.24s24.52,17.56,44.81,27.64c6.4,3.18,13.83-2,13.43-9.18v-.22a9.49,9.49,0,0,0-6.43-8.46C192.67,272,188.62,269.19,165.87,259Z" transform="translate(-1.3 -1.08)"/><path class="cls-9" d="M164.86,270.16s-21.21,9.35-29-4.21L168,258Z" transform="translate(-1.3 -1.08)"/><path class="cls-9" d="M231,222.6c-10.14,17.36-22.37,42.22-29.09,61.16-1.73,4.9.05,10.36,4.77,12.52l.17.08a9.69,9.69,0,0,0,12.56-4.07c15.33-27.65,29-49.21,29-49.21Z" transform="translate(-1.3 -1.08)"/><path class="cls-8" d="M231.38,217.81s-15.24,3.23-28,40.85l28.68,17,10.58-21Z" transform="translate(-1.3 -1.08)"/><path class="cls-10" d="M217.28,266.21h-33.1v-5.3h33.1a2.64,2.64,0,0,1,2.65,2.65h0A2.65,2.65,0,0,1,217.28,266.21Z" transform="translate(-1.3 -1.08)"/><path class="cls-11" d="M197.34,266.19H121.92a4,4,0,0,1-3.86-2.83L104.7,218.68a2.86,2.86,0,0,1,2.74-3.72H179a4,4,0,0,1,3.86,2.82Z" transform="translate(-1.3 -1.08)"/><path class="cls-2" d="M153.82,238.8a5.72,5.72,0,1,1-6.64-4.61A5.72,5.72,0,0,1,153.82,238.8Z" transform="translate(-1.3 -1.08)"/><path class="cls-9" d="M299.08,271.36s18.21,65.72,25.63,122.89l12.5-2.37s-3.88-83.76-16.48-135.58Z" transform="translate(-1.3 -1.08)"/><path class="cls-9" d="M337.11,389s18.81,27.77-3.76,40.25a3.6,3.6,0,0,1-4.47-.81l-.15-.17a3.59,3.59,0,0,1,.25-4.86c3.2-3.25,7.51-10,.64-18.78,0,0-3.61.92-3,8.08a3,3,0,0,1-3.22,3.22h0a3,3,0,0,1-2.59-2.24c-1.19-4.72-3.14-16.43,4.4-22.72Z" transform="translate(-1.3 -1.08)"/><path class="cls-8" d="M301.45,217.81s11.64,3.39,24.06,42.71l-28.68,17-6.66-22.87Z" transform="translate(-1.3 -1.08)"/><path class="cls-8" d="M299.7,216.74l-21.61-8.6-22.22.3-22.29,8.17a8.69,8.69,0,0,0-5.43,10.29l16.37,64.57h43.85l15.12-67.55A6.27,6.27,0,0,0,299.7,216.74Z" transform="translate(-1.3 -1.08)"/><rect class="cls-11" x="243.22" y="290.39" width="43.85" height="7.02"/><line class="cls-12" x1="236.67" y1="264.55" x2="229.14" y2="234.87"/><line class="cls-12" x1="292.51" y1="266.09" x2="299.5" y2="234.87"/><path class="cls-13" d="M288.37,298.49H244.52s-21.25,5.38-35.47,104.91c-2.17,15.17-4,30-5.65,44.14h41.41l18.3-91.86,4,1.05,6.75,90.81h38.91l.81-49.06S310.08,318.64,288.37,298.49Z" transform="translate(-1.3 -1.08)"/><line class="cls-14" x1="265.81" y1="355.65" x2="252.18" y2="350.33"/><path class="cls-11" d="M303,170.48c-1.94-7.36-2.65-6-9.17-20.68-3.9-8.75-6.92-12.27-8.72-13.68h0a27.08,27.08,0,0,0-36.17-.35h0c-1.71,1.14-4.92,4.44-9.2,14-6.52,14.64-7.23,13.32-9.17,20.68s.53,20.94,15.7,23.59a11.24,11.24,0,0,1-2.64-5.11s6.35,8.64,15,8.11H275c8.64.53,15-8.11,15-8.11a11.24,11.24,0,0,1-2.64,5.11C302.5,191.42,305,177.84,303,170.48Z" transform="translate(-1.3 -1.08)"/><path class="cls-9" d="M287,211.7l-8.94-3.56-2.7-23.53a13.87,13.87,0,0,1-6.49,3.53c-3.7.69-7.28-1.48-7.32-1.5s-3-2.51-3-2.51l-2.69,24.31L246.13,212s.63,6.33,21.24,6.33S287,211.7,287,211.7Z" transform="translate(-1.3 -1.08)"/><path class="cls-11" d="M256.86,185s5.66,10.93,12.4,9.36c7-1.63,7-10.88,7-10.88Z" transform="translate(-1.3 -1.08)"/><path class="cls-11" d="M291.06,153.56c0,13.39-10.42,24.24-23.27,24.24S244.52,167,244.52,153.56s10.42-22.5,23.27-22.5S291.06,140.17,291.06,153.56Z" transform="translate(-1.3 -1.08)"/><path class="cls-9" d="M287,154.81a94.33,94.33,0,0,1-2.32,20.66c-1.14,5-4.33,8.5-8.85,11.31l-.82.52a15.28,15.28,0,0,1-15.79.17h0c-4.89-2.89-8.31-6.71-9.37-12.08a138.45,138.45,0,0,1-2.12-20.58s-1.83-21.07,19.35-20.66S287,154.81,287,154.81Z" transform="translate(-1.3 -1.08)"/><path class="cls-9" d="M250.06,174.59c-3.74,3.23-11.59-9.53-8-13s6.17,2.16,6.17,2.16l.73,4,1.09,5.42.29,1.22Z" transform="translate(-1.3 -1.08)"/><path class="cls-15" d="M243.7,165.92s1.53-3.31,5.08,2.49" transform="translate(-1.3 -1.08)"/><path class="cls-9" d="M284.69,174.67c3.78,3.16,11.42-9.73,7.75-13.11s-6.13,2.26-6.13,2.26l-.67,4-1,5.45-.26,1.22Z" transform="translate(-1.3 -1.08)"/><path class="cls-15" d="M290.89,165.88s-1.59-3.27-5,2.59" transform="translate(-1.3 -1.08)"/><path class="cls-11" d="M248,161.37s8.47-11.45,6.51-23a16.68,16.68,0,0,0-7.92,11.32C245,157.81,248,161.37,248,161.37Z" transform="translate(-1.3 -1.08)"/><path class="cls-11" d="M287.37,161.59s-10.18-12.45-8.22-24a19.37,19.37,0,0,1,8.46,12.1C289.24,157.81,287.37,161.59,287.37,161.59Z" transform="translate(-1.3 -1.08)"/><path class="cls-11" d="M241.74,153.14H293s-5.77-21.72-27.39-23S241.74,153.14,241.74,153.14Z" transform="translate(-1.3 -1.08)"/><path class="cls-11" d="M260,163a1.95,1.95,0,1,1-1.95-2A1.95,1.95,0,0,1,260,163Z" transform="translate(-1.3 -1.08)"/><path class="cls-11" d="M278,163a2,2,0,1,1-1.95-2A2,2,0,0,1,278,163Z" transform="translate(-1.3 -1.08)"/><path class="cls-16" d="M266.06,167.24v2.64a1,1,0,0,0,1.22,1l1.4-.3" transform="translate(-1.3 -1.08)"/><path class="cls-11" d="M263.8,156.94,252,158.36s.95-3.14,5.78-3.68S263.8,156.94,263.8,156.94Z" transform="translate(-1.3 -1.08)"/><path class="cls-11" d="M270.62,156.94l11.83,1.42s-.94-3.14-5.78-3.68S270.62,156.94,270.62,156.94Z" transform="translate(-1.3 -1.08)"/><circle class="cls-17" cx="254.78" cy="161.85" r="8.07"/><circle class="cls-17" cx="277.64" cy="161.85" r="8.07"/><path class="cls-17" d="M264.15,163.6s2.85-4.38,6.72,0" transform="translate(-1.3 -1.08)"/><path class="cls-1" d="M261.07,174.6H274S267.92,181.8,261.07,174.6Z" transform="translate(-1.3 -1.08)"/><path class="cls-18" d="M540.7,238.78l29.41,25.45a13.51,13.51,0,0,1,1.54,18.85h0a13.5,13.5,0,0,1-18.88,1.85l-29.13-23.61Z" transform="translate(-1.3 -1.08)"/><path class="cls-6" d="M503.24,213.86c21.38,3.46,44.85,24.92,44.85,24.92l-19.41,27.77-25.56-20.93Z" transform="translate(-1.3 -1.08)"/><path class="cls-18" d="M571.75,210.87l-21.14,60.39a12.34,12.34,0,0,0,8.17,15.95h0a12.33,12.33,0,0,0,15.65-10l10.84-64.12Z" transform="translate(-1.3 -1.08)"/><path class="cls-18" d="M571.75,210.87s-4.15-5.35-5-20.65a2.38,2.38,0,0,1,1.36-2.26h0a2.37,2.37,0,0,1,3.25,1.36l2.1,6.38,11.79,17.41Z" transform="translate(-1.3 -1.08)"/><path class="cls-18" d="M573.48,195.7l.52-21.23c0-.91.64-2.18,1.79-2.23h0A1.93,1.93,0,0,1,578,174l.48,15.06,2.8-17.61a1.63,1.63,0,0,1,1.79-1.35h0a1.61,1.61,0,0,1,1.43,1.68l-.91,19.11,3.83-15.7a1.8,1.8,0,0,1,1.87-1.37h0a1.79,1.79,0,0,1,1.67,2L589,193l7.62-10.72a1.7,1.7,0,0,1,2.54-.07h0a1.7,1.7,0,0,1,.22,2l-6.4,13s-.41,8.07-7.73,15.86L574,206.38Z" transform="translate(-1.3 -1.08)"/><path class="cls-19" d="M573.48,195.7s8,0,8.16,7.23" transform="translate(-1.3 -1.08)"/><path class="cls-6" d="M501.07,212.2l16,6.06c4.19,1.54,5.25,6.18,4.16,10.5l-7.39,91.49H450.74l-4.86-94.47a6.26,6.26,0,0,1,3.79-7.19l21.61-8.6Z" transform="translate(-1.3 -1.08)"/><line class="cls-20" x1="517.52" y1="257.39" x2="518.99" y2="239.13"/><path class="cls-18" d="M447.35,275.18s-17.14,66.62-21.43,124.1l-12.61-1.68s1.85-83.85,11.6-136.28Z" transform="translate(-1.3 -1.08)"/><path class="cls-6" d="M447.92,219.66s-14.21,3.39-26.63,42.71l31.25,17,6.65-22.87Z" transform="translate(-1.3 -1.08)"/><path class="cls-18" d="M493.85,210l-1.23-22.67s-4.19,2.92-8,3.63-7.49-1.52-7.54-1.55l-4.43-2.58L471.32,210h0l-6.66,2.65s4.18,7.13,18.14,6.41,18.31-6.85,18.31-6.85Z" transform="translate(-1.3 -1.08)"/><path class="cls-11" d="M471.75,187.73s6.17,11.26,13.51,9.64c7.66-1.68,7.95-11.49,7.95-11.49Z" transform="translate(-1.3 -1.08)"/><path class="cls-18" d="M503.27,156.68a97.22,97.22,0,0,1-2.39,21.26c-1.17,5.16-4.46,8.76-9.1,11.65l-.85.53a15.75,15.75,0,0,1-16.26.18h0c-5-3-8.55-6.91-9.64-12.43a142.58,142.58,0,0,1-2.19-21.19S461,135,482.77,135.41,503.27,156.68,503.27,156.68Z" transform="translate(-1.3 -1.08)"/><path class="cls-18" d="M465.22,177c-3.84,3.32-11.93-9.81-8.21-13.35s6.35,2.22,6.35,2.22l.76,4.15,1.12,5.58.29,1.26Z" transform="translate(-1.3 -1.08)"/><path class="cls-21" d="M458.68,168.11s1.57-3.4,5.23,2.57" transform="translate(-1.3 -1.08)"/><path class="cls-18" d="M500.87,177.12c3.9,3.25,11.76-10,8-13.5s-6.31,2.33-6.31,2.33l-.69,4.17-1,5.6-.27,1.26Z" transform="translate(-1.3 -1.08)"/><path class="cls-21" d="M507.25,168.08s-1.63-3.38-5.18,2.66" transform="translate(-1.3 -1.08)"/><path class="cls-11" d="M475.41,163.78a2,2,0,1,1-2-2A2,2,0,0,1,475.41,163.78Z" transform="translate(-1.3 -1.08)"/><path class="cls-11" d="M494,163.78a2,2,0,1,1-2-2A2,2,0,0,1,494,163.78Z" transform="translate(-1.3 -1.08)"/><path class="cls-19" d="M481.69,166.84v4a1.05,1.05,0,0,0,1.25,1.06l1.44-.3" transform="translate(-1.3 -1.08)"/><path class="cls-11" d="M485.81,156.41l11.6,3s-.52-3.25-5.27-4.43S485.81,156.41,485.81,156.41Z" transform="translate(-1.3 -1.08)"/><path class="cls-11" d="M478.61,156.41l-11.6,3s.53-3.25,5.27-4.43S478.61,156.41,478.61,156.41Z" transform="translate(-1.3 -1.08)"/><path class="cls-11" d="M481.74,177.84a2.11,2.11,0,0,0,.87-1.2c.27-1,.39-2.6-1.54-2.78-2.83-.26-7.56,5.18-11.7,2.06C469.37,175.92,473.33,183.27,481.74,177.84Z" transform="translate(-1.3 -1.08)"/><path class="cls-11" d="M483.32,177.84a2.07,2.07,0,0,1-.87-1.2c-.27-1-.39-2.6,1.53-2.78,2.81-.26,7.53,5.18,11.65,2.06C495.63,175.92,491.69,183.27,483.32,177.84Z" transform="translate(-1.3 -1.08)"/><path class="cls-11" d="M502.76,131c-7.12-5-20.69-.35-28.19,2.92a5.26,5.26,0,0,0-1.26-3.89c-12.89,4-11.27,11.3-10.37,13.64-2.53,2.66-6,9.29.59,23.2,0,0,3.68-11.88,2.12-21.33,6.11,2.77,22.69,9.39,33.24,5.17a58.2,58.2,0,0,0,3.5,16.16c4-10.2,3.43-16.34,1.84-20C506.05,144.72,511.41,137.09,502.76,131Z" transform="translate(-1.3 -1.08)"/><path class="cls-13" d="M501.86,447.54H542.4c-15-64-26.72-108.22-26.72-108.22l-1.85-19.07H483l1.4,67Z" transform="translate(-1.3 -1.08)"/><path class="cls-13" d="M484.44,387.23l-1.4-67h-32.3c-24.18,36.19-10.5,100.49-10.5,100.49l3.69,26.8h40.51Z" transform="translate(-1.3 -1.08)"/><polyline class="cls-14" points="483.14 386.15 483.14 367.17 492.29 352.99"/><path class="cls-6" d="M360,425.29s10.89-54.06,17.3-68.8a1.54,1.54,0,0,1,2.9.24c1.55,5.62,3.58,22.17,2.67,70.89l0,19.92h38.24l5.63-47.93s8.52-66.8-19.23-104.74h-55.6s-28.35,41.25-32.08,98.2c-.84,12.68-2.27,32-4,54.47h39.39Z" transform="translate(-1.3 -1.08)"/><line class="cls-20" x1="366.46" y1="350.33" x2="379.48" y2="355.65"/><polygon class="cls-22" points="366.31 188.36 339.57 195.71 350.62 286.99 406.73 286.99 417.8 195.31 388.16 187.96 366.31 188.36"/><rect class="cls-22" x="350.62" y="286.99" width="55.6" height="6.8"/><path class="cls-18" d="M393.46,255.18s22.91-9.2,35.19-2.78l1.15,14.75-37.41,4.7Z" transform="translate(-1.3 -1.08)"/><path class="cls-23" d="M442.42,284.92s-37.21,4.47-67.35-11.36l25.53-7.73,31.55-5.31Z" transform="translate(-1.3 -1.08)"/><path class="cls-23" d="M417.29,196.11s14.45.92,23.66,29.53c9.79,30.4,10.5,54.34,3.71,58.35s-15.22-4.85-23.87-29.33S408.16,217,408.16,217Z" transform="translate(-1.3 -1.08)"/><line class="cls-24" x1="413.03" y1="234.87" x2="415.25" y2="216.43"/><path class="cls-23" d="M340.87,196.79s-14.45.92-23.66,29.53c-9.79,30.4-10.5,54.34-3.7,58.35s16.23-4.85,24.88-29.33S350,217.68,350,217.68Z" transform="translate(-1.3 -1.08)"/><line class="cls-24" x1="344.1" y1="233.1" x2="342.09" y2="216.43"/><path class="cls-18" d="M352.85,255.29a72.84,72.84,0,0,0-27.52-16.35,2.23,2.23,0,0,0-2.17.45h0a2.23,2.23,0,0,0,.53,3.69L334,247.91l-13.56.9a3.9,3.9,0,0,0-3.64,4.36c.28,2,1.6,4.5,5.36,7.45Z" transform="translate(-1.3 -1.08)"/><path class="cls-23" d="M322.18,260.62s49.13-9.69,72.44-9.59l9.3,23s-72.72,18.23-90.41,10.65Z" transform="translate(-1.3 -1.08)"/><path class="cls-24" d="M352.85,255.29s30.88-4.82,41.77-4.26l1.31,3.25" transform="translate(-1.3 -1.08)"/><polyline class="cls-24" points="350.18 283.33 402.62 272.94 394.63 253.19"/><path class="cls-11" d="M354.17,150l-11,14.32s39.46,30.31,71.91-2.15l-11.58-14.12Z" transform="translate(-1.3 -1.08)"/><path class="cls-18" d="M389.4,188.33l-2.77-22A14.15,14.15,0,0,1,380,170c-3.79.71-7.47-1.51-7.52-1.54l-3.09-2.57-1.68,22.78a5.42,5.42,0,0,1-.07.81l12,26.12L389.46,189A4.25,4.25,0,0,1,389.4,188.33Z" transform="translate(-1.3 -1.08)"/><path class="cls-11" d="M367.61,166.72s5.81,12.27,12.73,10.66c7.22-1.68,7.19-12.22,7.19-12.22Z" transform="translate(-1.3 -1.08)"/><path class="cls-11" d="M402.71,134.47c0,13.74-10.69,24.88-23.88,24.88S355,148.21,355,134.47s10.69-23.09,23.88-23.09S402.71,120.73,402.71,134.47Z" transform="translate(-1.3 -1.08)"/><path class="cls-18" d="M398.56,135.75A96.87,96.87,0,0,1,396.18,157c-1.16,5.13-4.44,8.72-9.07,11.61l-.85.53a15.7,15.7,0,0,1-16.21.18h0c-5-3-8.53-6.89-9.61-12.4a140.91,140.91,0,0,1-2.18-21.13s-1.87-21.62,19.86-21.2S398.56,135.75,398.56,135.75Z" transform="translate(-1.3 -1.08)"/><path class="cls-18" d="M360.63,156.06c-3.83,3.31-11.89-9.79-8.18-13.32s6.33,2.22,6.33,2.22l.75,4.13,1.12,5.57.29,1.25Z" transform="translate(-1.3 -1.08)"/><path class="cls-25" d="M354.11,147.16s1.57-3.4,5.21,2.56" transform="translate(-1.3 -1.08)"/><path class="cls-18" d="M396.17,156.14c3.89,3.24,11.72-10,8-13.46s-6.3,2.32-6.3,2.32l-.68,4.15-1,5.59-.27,1.26Z" transform="translate(-1.3 -1.08)"/><path class="cls-25" d="M402.54,147.12s-1.63-3.36-5.17,2.65" transform="translate(-1.3 -1.08)"/><path class="cls-11" d="M399.17,130.46a19.79,19.79,0,0,0-7.74-11.79,16.9,16.9,0,0,0-9.94-4.85s-13.58-3.07-19.2,7.2a17.58,17.58,0,0,0-5.2,9.44c-1.68,8.38,1.45,12,1.45,12a40.73,40.73,0,0,0,6.68-16.07c4.11,3.4,12.44,7.65,28.26,7.44a48,48,0,0,0,5.45,8.86S400.85,138.84,399.17,130.46Z" transform="translate(-1.3 -1.08)"/><path class="cls-11" d="M370.78,144.15a2,2,0,1,1-2-2A2,2,0,0,1,370.78,144.15Z" transform="translate(-1.3 -1.08)"/><path class="cls-11" d="M389.34,144.15a2,2,0,1,1-2-2A2,2,0,0,1,389.34,144.15Z" transform="translate(-1.3 -1.08)"/><path class="cls-26" d="M376.57,148.52v2.7a1.06,1.06,0,0,0,1.25,1.06l1.44-.3" transform="translate(-1.3 -1.08)"/><path class="cls-11" d="M386.44,134.88s-5.87-.48-5.93,1.91c0,0,0,1.61,5.13,1.93s6.45-.05,6.91-1.57S389.19,134.89,386.44,134.88Z" transform="translate(-1.3 -1.08)"/><path class="cls-11" d="M368.89,134.88s5.87-.48,5.93,1.91c0,0,0,1.61-5.12,1.93s-6.45-.05-6.92-1.57S366.14,134.89,368.89,134.88Z" transform="translate(-1.3 -1.08)"/><path class="cls-26" d="M383.36,154.36s-2.1,3.39-7.53,2.43" transform="translate(-1.3 -1.08)"/><line class="cls-27" x1="109.34" y1="446.46" x2="624.62" y2="446.46"/></g></svg>