<svg xmlns="http://www.w3.org/2000/svg" viewBox="0 0 750 500"><defs><style>.cls-1,.cls-11{fill:#fff;}.cls-2{fill:#e2e8f5;}.cls-10,.cls-11,.cls-12,.cls-13,.cls-15,.cls-16,.cls-17,.cls-18,.cls-19,.cls-2,.cls-20,.cls-21,.cls-22,.cls-24,.cls-25,.cls-27,.cls-28,.cls-29,.cls-3,.cls-31,.cls-32,.cls-33,.cls-35,.cls-37,.cls-38,.cls-4,.cls-5,.cls-6,.cls-7,.cls-8,.cls-9{fill-rule:evenodd;}.cls-3{fill:#b1c0e2;}.cls-4{fill:#bfcce8;}.cls-5{fill:#9eb1d9;}.cls-6{fill:#01020e;}.cls-7{fill:#e2e1e7;}.cls-8{fill:#e74d91;}.cls-14,.cls-9{fill:#0e1632;}.cls-10{fill:#e8685b;}.cls-12{fill:#0076bd;}.cls-13{fill:#3a405c;}.cls-15{fill:#f4ad85;}.cls-16{fill:#ed9072;}.cls-17{fill:#010518;}.cls-18{fill:#e68392;}.cls-19{fill:#f2f0f0;}.cls-20{fill:#e37b64;}.cls-21,.cls-36{fill:#e6e4eb;}.cls-22{fill:#d64341;}.cls-23{fill:#003f6a;}.cls-24{fill:#04263b;}.cls-25{fill:#004a82;}.cls-26,.cls-29{fill:#383d5d;}.cls-27{fill:#b92f6d;}.cls-28{fill:#c9c4d1;}.cls-30,.cls-31{fill:#f4f4f7;}.cls-32{fill:#ebeaef;}.cls-33{fill:#c5c1cd;}.cls-34{fill:#e0dee1;}.cls-35{fill:#acadbb;}.cls-37{fill:#ca2871;}.cls-38{fill:#b0dde5;}</style></defs><g id="BACKGROUND"><rect class="cls-1" x="125" width="500" height="500"/><rect class="cls-1" width="750" height="500"/></g><g id="OBJECTS"><path class="cls-2" d="M246.81,413.49H690.5a29,29,0,0,0,28.9-28.91h0a29,29,0,0,0-28.9-28.9h-12c-51.56,0-93.75-42.19-93.75-93.75S542.54,168.18,491,168.18H413.85a11.06,11.06,0,0,1-11-11h0a11.06,11.06,0,0,1,11-11H463a15.42,15.42,0,0,0,15.38-15.38h0A15.42,15.42,0,0,0,463,115.35H401.32a31.15,31.15,0,0,1-31.06-31.07,31.16,31.16,0,0,0-31.07-31.06H171.78a31.72,31.72,0,0,0-31.63,31.62h0a31.72,31.72,0,0,0,31.63,31.62h47.46a18,18,0,0,1,17.85,17.94h0a18,18,0,0,1-17.85,17.93h.07a35.55,35.55,0,0,0-35.45,35.45,35.56,35.56,0,0,1-35.45,35.46c-52.32,0-95.13,42.8-95.13,95.12h0c0,52.32,42.81,95.13,95.13,95.13Zm-154.65-297A31.71,31.71,0,0,1,60.54,84.84h0A31.71,31.71,0,0,1,92.16,53.22h0a31.72,31.72,0,0,1,31.63,31.62h0a31.72,31.72,0,0,1-31.63,31.62Z"/><path class="cls-3" d="M578.38,228.12c-1.09-2.8-2.31-5.54-3.66-8.2H490.23c-.73,0-1,.59-.62,1.32l3,5.56a2.58,2.58,0,0,0,2,1.32Z"/><path class="cls-3" d="M581.9,239.1c-.71-2.78-1.54-5.52-2.49-8.2H490.23c-.73,0-1,.6-.62,1.32l3,5.57a2.59,2.59,0,0,0,2,1.31Z"/><path class="cls-3" d="M584,250.09c-.36-2.77-.84-5.51-1.43-8.2H490.23c-.73,0-1,.59-.62,1.31l3,5.57a2.58,2.58,0,0,0,2,1.32Z"/><path class="cls-3" d="M584.72,261.07c0-2.76-.17-5.5-.43-8.2H490.23c-.73,0-1,.59-.62,1.32l3,5.56a2.58,2.58,0,0,0,2,1.32Z"/><path class="cls-3" d="M585.28,272.06q-.43-4.06-.53-8.2H490.23c-.73,0-1,.59-.62,1.31l3,5.57a2.61,2.61,0,0,0,2,1.32Z"/><path class="cls-3" d="M505.39,222.92a.83.83,0,0,0-1.66,0v71.76a.83.83,0,0,0,1.66,0Z"/><path class="cls-3" d="M501.24,313.87a3.32,3.32,0,0,0,6.64,0V294.68a3.32,3.32,0,0,0-6.64,0Z"/><path class="cls-3" d="M338.89,66.61H232c-.75,0-1,.62-.64,1.37l3.08,5.77a2.71,2.71,0,0,0,2.1,1.37H343.43c.75,0,1-.62.64-1.37L341,68A2.69,2.69,0,0,0,338.89,66.61Z"/><path class="cls-3" d="M338.89,78H232c-.1,.62-.64,1.37l3.08,5.77a2.68,2.68,0,0,0,2.1,1.37H343.43c.75,0,1-.61.64-1.37L341,79.37A2.69,2.69,0,0,0,338.89,78Z"/><path class="cls-3" d="M247.68,69.72a.86.86,0,0,0-1.72,0v74.44a.86.86,0,1,0,1.72,0Z"/><path class="cls-3" d="M243.37,164.06a3.45,3.45,0,0,0,6.89,0v-19.9a3.45,3.45,0,1,0-6.89,0Z"/><path class="cls-3" d="M156.7,222.25a35.43,35.43,0,0,1-8.29,1A94.31,94.31,0,0,0,113,230.1h48a2.49,2.49,0,0,0,1.93-1.26l2.85-5.33c.37-.7.1-1.26-.59-1.26Z"/><path class="cls-3" d="M107,232.76a96,96,0,0,0-13.28,7.86H161a2.49,2.49,0,0,0,1.93-1.26l2.85-5.33c.37-.7.1-1.27-.59-1.27Z"/><path class="cls-3" d="M90.17,243.29a94.78,94.78,0,0,0-8.9,7.85H161a2.49,2.49,0,0,0,1.93-1.26l2.85-5.33c.37-.7.1-1.26-.59-1.26Z"/><path class="cls-3" d="M78.71,253.8a94.7,94.7,0,0,0-6.55,7.86H161A2.49,2.49,0,0,0,163,260.4l2.85-5.33c.37-.7.1-1.27-.59-1.27Z"/><path class="cls-3" d="M70.24,264.32q-2.62,3.81-4.91,7.86H161a2.49,2.49,0,0,0,1.93-1.26l2.85-5.34c.37-.69.1-1.26-.59-1.26Z"/><path class="cls-3" d="M150.71,226.17c0-1,.35-1.84.79-1.84s.8.82.8,1.84V386c0,1-.36,1.85-.8,1.85s-.79-.83-.79-1.85Z"/><path class="cls-3" d="M154.68,406.19a3.18,3.18,0,0,1-6.36,0V387.82a3.18,3.18,0,1,1,6.36,0Z"/><path class="cls-3" d="M66.49,274.84h98.74c.69,0,1,.57.59,1.27L163,281.44A2.49,2.49,0,0,1,161,282.7H62.3c-.7,0-1-.57-.59-1.26l2.84-5.33A2.48,2.48,0,0,1,66.49,274.84Z"/><path class="cls-3" d="M66.49,285.36h98.74c.69,0,1,.57.59,1.26L163,292a2.48,2.48,0,0,1-1.93,1.27H62.3c-.7,0-1-.57-.59-1.27l2.84-5.33A2.49,2.49,0,0,1,66.49,285.36Z"/><path class="cls-3" d="M66.49,295.88h98.74c.69,0,1,.57.59,1.26L163,302.47a2.48,2.48,0,0,1-1.93,1.27H62.3c-.7,0-1-.57-.59-1.27l2.84-5.33A2.49,2.49,0,0,1,66.49,295.88Z"/><path class="cls-3" d="M66.49,306.4h98.74c.69,0,1,.57.59,1.26L163,313a2.47,2.47,0,0,1-1.93,1.26H62.3c-.7,0-1-.56-.59-1.26l2.84-5.33A2.49,2.49,0,0,1,66.49,306.4Z"/><path class="cls-3" d="M66.49,316.92h98.74c.69,0,1,.57.59,1.26L163,323.51a2.47,2.47,0,0,1-1.93,1.26H62.3c-.7,0-1-.56-.59-1.26l2.84-5.33A2.49,2.49,0,0,1,66.49,316.92Z"/><path class="cls-3" d="M66.49,327.44h98.74c.69,0,1,.57.59,1.26L163,334a2.49,2.49,0,0,1-1.93,1.26H62.3c-.7,0-1-.57-.59-1.26l2.84-5.33A2.49,2.49,0,0,1,66.49,327.44Z"/><path class="cls-3" d="M66.49,338h98.74c.69,0,1,.57.59,1.26L163,344.55a2.47,2.47,0,0,1-1.93,1.26H62.3c-.7,0-1-.56-.59-1.26l2.84-5.33A2.49,2.49,0,0,1,66.49,338Z"/><path class="cls-3" d="M66.49,348.48h98.74c.69,0,1,.56.59,1.26L163,355.07a2.49,2.49,0,0,1-1.93,1.26H62.3c-.7,0-1-.57-.59-1.26l2.84-5.33A2.47,2.47,0,0,1,66.49,348.48Z"/><path class="cls-4" d="M184.08,104.14a11.21,11.21,0,0,1-4.81,5.67,14.56,14.56,0,0,1-3.54,1.62,1,1,0,0,1-1.33-1.1,14,14,0,0,0,0-3.23,12,12,0,0,0-.37-1.76,20.19,20.19,0,1,1,10.08-1.2Z"/><path class="cls-5" d="M544.42,315.46h34.73a3.27,3.27,0,0,1,2.08.75,1,1,0,0,1,.4.31.89.89,0,0,1,.15.27,3.29,3.29,0,0,1,.65,1.95v20.41a3.31,3.31,0,0,1-1,2.32h0a3.31,3.31,0,0,1-2.32,1H544.42a3.27,3.27,0,0,1-2.32-1,3.31,3.31,0,0,1-1-2.32V318.74a3.25,3.25,0,0,1,.65-2,.94.94,0,0,1,.14-.26,1,1,0,0,1,.41-.31A3.23,3.23,0,0,1,544.42,315.46Z"/><path class="cls-6" d="M275.17,275.42c7.82,4.22,12.16,9.2,17.49,16.42,11.87,16.07,16.5,28.37,30,42.87,5,5.35,29.51-36.65,32.35-42.18.55-1.08,2.94-6.27,5-4.63.95.76,4.26,4.11,6.37,5.19s4.68.52,5.18,3.64c-5.57,20.72-30.36,86.86-59.78,65.09-20.88-15.44-36.45-39.18-39.11-42.62-9.66-12.5-3.37-25-7.68-33.92l0,0-.28-.6-.1-.2-.18-.39h0l-.17-.36-.09-.21-.07-.15h0c-1.82-4.14-1.93-5.8-1.93-5.8L266.2,282Z"/><path class="cls-7" d="M192.25,292l13.68-17.29,3-2.6,30.38-11.43,14.07,2.2h0s14,6.82,15.21,6.76a1.68,1.68,0,0,0,.59-.22l8.3,23.86s5,34.57,5.75,36.92,1.32,35.52-1.29,40.28-.4,12.14-10.47,15.24-31.59,9.09-46-6.19S208,355.72,204.38,350.56,192.25,292,192.25,292Z"/><path class="cls-8" d="M249.68,282.35l.84,1.47s12,36.43,11.55,65.63-15.23,4.25-15,1.75,2.86-50,.31-67.2C247.4,284,247.59,281.7,249.68,282.35Z"/><path class="cls-6" d="M256.35,264.47s11.68,27.89,7.27,59.83a286,286,0,0,1-13.69,56.4l-2.25,28h40.38c.27-11.31.69-20.82,1.26-27.25C292.5,346,302.29,270.65,256.35,264.47Z"/><path class="cls-9" d="M256.35,264.47s11.68,27.89,7.27,59.83a293.15,293.15,0,0,1-6.06,31.08h0l1.05,4.93c8.69-20.39,22.11-71.9,21.78-72.06s-8.27-.78-8.27-.78c1.89-1.86,4.24-2.8,3.74-3.71s-11.67-15.24-13.9-18.11A37.36,37.36,0,0,0,256.35,264.47Z"/><path class="cls-6" d="M261.84,408.71c-.4-7.39-.77-12.72-1-15.13-4.51-51.78-2.26-86.44-37-127.36-8.13,1.56-22.79,9.2-22.79,9.2-6.45,3.37-12.59,8.78-13.66,16.23-1.52,10.59,10,47.26,17.08,70.23,3.05,9.9,3.43,26.85,2.43,46.83Z"/><path class="cls-10" d="M228.17,231.94l.36,8.3v19.58c0,1.25-1.17,3.05-3.22,4.62,3.06,3.32,10.61,11,15.34,11.76,6,.94,13-1.74,14.79-3.24,1.22-1,1.34-6.47,2.05-9.5-.56-.15.08,0-.49-.18a8.78,8.78,0,0,1-3.78-2.17c-2.84-3.1-2.71-16.91.13-20.53S228.17,231.94,228.17,231.94Z"/><path class="cls-7" d="M250.86,272.4l-3.43-1.85s-.29,3.78-.69,3.91-1-2.38-2.43-3.28-5.44,4.49-5.44,4.49,1.47,4.22,3.59,4.53,8.51,1,8.59-.9S250.86,272.4,250.86,272.4Z"/><path class="cls-8" d="M246.45,277a13.41,13.41,0,0,1-5.55-1.84,3.41,3.41,0,0,0-4.4.4l2.44,2.76.18,1.17s3.63-.64,5.94,1S246.45,277,246.45,277Z"/><path class="cls-11" d="M226.85,260.47s4.31,7.74,15.73,9.74c1.56.33,4.52,3.19,2.43,2.8s-6.74,8.55-7.36,11.92-14.36-14.16-15.23-19.65C222.42,265.28,224.67,261.1,226.85,260.47Z"/><path class="cls-8" d="M251.24,277.17a4.94,4.94,0,0,0-2.37-1c-1.07,0-3,0-3.81.72a7.51,7.51,0,0,0-1.84,2.9c-.07.53,3.18,3.74,4.18,4.24s2.06-.31,3.12-.18S251.89,278.28,251.24,277.17Z"/><path class="cls-11" d="M252.67,260.31s.91,6.83-4.5,9.27a1.24,1.24,0,0,0-.27,2.11c1.21,1.35,3,6.68,3.54,9.08s7.22-9.74,6.75-17.2C258.19,263.57,254.49,260.8,252.67,260.31Z"/><path class="cls-6" d="M201,275.42c-7.82,4.22-12.15,9.2-17.49,16.42-11.86,16.07-16.5,28.37-30,42.87-5,5.35-29.52-36.65-32.36-42.18-.55-1.08-2.94-6.27-5-4.63-1,.76-4.26,4.11-6.37,5.19s-4.68.52-5.17,3.64c5.56,20.72,30.35,86.86,59.78,65.09,20.87-15.44,36.44-39.18,39.1-42.62,9.66-12.5,3.37-25,7.69-33.92v0l.29-.6.09-.2.18-.39h0l.17-.36.09-.21.07-.15h0c1.82-4.14,1.93-5.8,1.93-5.8L210,282Z"/><path class="cls-12" d="M276.73,219.27a1.57,1.57,0,1,0,3.14,0V176.64a21,21,0,0,0-7.55-16.27c-4.1-3.38-10.23-5.84-19.19-6.09-10.43-.28-21.68.52-30.38,4.12-9,3.75-15.34,10.43-15.34,21.86V216.5a1.58,1.58,0,0,0,3.15,0V180.26c0-9.89,5.5-15.69,13.39-19,8.23-3.41,19-4.16,29.1-3.88,8.17.22,13.67,2.39,17.28,5.37a17.9,17.9,0,0,1,6.4,13.85Z"/><path class="cls-13" d="M286.92,224h-1.26a3.17,3.17,0,0,0-3.16,3.16h0a3.17,3.17,0,0,0,3.16,3.16h1.26a3.17,3.17,0,0,0,3.16-3.16h0A3.17,3.17,0,0,0,286.92,224Z"/><path class="cls-12" d="M273.73,239.71a12.62,12.62,0,0,0,12.58-12.58h0a12.62,12.62,0,0,0-12.58-12.59Z"/><rect class="cls-14" x="271.49" y="211.8" width="4.49" height="30.65" rx="2.24"/><path class="cls-15" d="M246.39,171.49h0a30.51,30.51,0,0,0-31.63,29.14l-1.13,27.61a30.5,30.5,0,0,0,29.13,31.64h0a30.51,30.51,0,0,0,31.64-29.14l1.13-27.61A30.5,30.5,0,0,0,246.39,171.49Z"/><path class="cls-16" d="M242.1,171.62a30.52,30.52,0,0,0-27.34,29l-1.13,27.61a30.5,30.5,0,0,0,29.13,31.64h0a30.08,30.08,0,0,0,3.43-.06C224.81,259.59,224,235,224,224.67s12.34-22.21,17.69-22.46,14.62,6.62,14.62,6.62,10.71-13.61,10.55-12.62C264.53,193.86,252.31,180,242.1,171.62Z"/><path class="cls-11" d="M238.22,233.81a9.67,9.67,0,1,0,19.33.79h0a1.66,1.66,0,0,0-1.6-1.73l-16-.66a1.67,1.67,0,0,0-1.74,1.6Z"/><path class="cls-9" d="M212.45,181.58s-14.27,4.25-2.19,33.56c3,.13,3.81,2.4,3.73,4.3l-.16,3.79c4.65-1.86,4.07-6.8,3.48-9.2,0,0,17.12-3.5,20.16-22.21,0,0,.12-1.36,1.82-.27,1.46.94,15.89,19.84,29.24,25,12.2,4.71,24.34-10.78,22-24.14C282.84,147.67,213.72,150.59,212.45,181.58Z"/><path class="cls-17" d="M212.45,181.58s-14.27,4.25-2.19,33.56c3,.13,3.81,2.4,3.73,4.3l-.16,3.79c4.65-1.86,4.07-6.8,3.48-9.2,0,0,17.12-3.5,20.16-22.21,0,0,.12-1.36,1.82-.27,1.46.94,15.89,19.84,29.24,25,11.31,4.37,22.58-8.64,22.31-21.21,0,.74-1.25,17.84-18.43,12.06-17.55-5.9-30-21.19-37.92-18.24s-26.2,4.33-20.2-15.12A19.33,19.33,0,0,0,212.45,181.58Z"/><path class="cls-12" d="M207.41,180.4v36.1a1.58,1.58,0,0,0,3.15,0V180.4Z"/><path class="cls-13" d="M200.6,224h1.27a3.17,3.17,0,0,1,3.16,3.16h0a3.18,3.18,0,0,1-3.16,3.16H200.6a3.17,3.17,0,0,1-3.16-3.16h0A3.17,3.17,0,0,1,200.6,224Z"/><path class="cls-12" d="M213.79,239.71a12.62,12.62,0,0,1-12.58-12.58h0a12.62,12.62,0,0,1,12.58-12.59Z"/><path class="cls-9" d="M213.79,211.8h0A2.25,2.25,0,0,1,216,214v26.17a2.25,2.25,0,0,1-2.25,2.24h0a2.25,2.25,0,0,1-2.24-2.24V214A2.25,2.25,0,0,1,213.79,211.8Z"/><path class="cls-9" d="M259.37,374.52c-3.05-41.68-5.21-72.61-35.55-108.3a46.77,46.77,0,0,0-7.25,2.19c.78,3.78,3.37,16.5,3.59,18.81a1.1,1.1,0,0,0,.76.55c.57.15,8.45-1.17,8.45-1.17s-9.44,6.21-9.87,6.6S259,374.78,259,374.78Z"/><path class="cls-15" d="M121.33,285.64c.77-4.05,4.59-13.05,5.51-14,1.21-1.26-5.18-5.11-7.45,1,0,0-3,4-4.16,3.35s-3.43-16.26-3.62-18.2-2.85-2.1-3.45-1.55,0,3.05.11,6.64.29,5.82,0,6.18c-.86,1-5.16-12.22-6.69-13.07-1-.54-4,.76-3.84,2.58s4.92,12.59,5.09,14.17-.76.71-1.46-.15-7.11-11.58-8-12.11-3.69,1.08-3,2.93S97.06,276,97,276.88s-.68.8-2.67-.61-5.94-4.34-7.08-4.06c-.74,0-1.71,2.23.06,4s6,6.47,6.53,7.24c2.85,4.05,4.31,8.51,7,11.36a9.43,9.43,0,0,0,3.63,2.35C113.12,300.43,119.75,294,121.33,285.64Z"/><path class="cls-16" d="M100.23,294.16q.28.36.6.69a9.18,9.18,0,0,0,3.28,2.21l.35.14A11.3,11.3,0,0,0,118,293.25a18.13,18.13,0,0,0,3.29-7.61l.06-.3C117.61,293.63,108.85,296.85,100.23,294.16Z"/><path class="cls-18" d="M362.91,225.17a8.69,8.69,0,0,0,5.4-6c1.1-4.59,10.61-2.23,10.94-.88s1.38,3.18,1.1,5.6,1,3.17,1,3.17c-6.64,4-7.53.14-14.76,5.81C364.2,234.73,363.38,228.12,362.91,225.17Z"/><path class="cls-9" d="M398,268,393,260.83s-30.65,10.07-46.36,4.49,20.12-30.09,22.65-32.87S367,228.1,365.76,226s-1.58-4.75-3.06-4.42S324,247.49,322.6,271s57.87,26.77,63.67,23.68S398,268,398,268Z"/><path class="cls-6" d="M398,268,393,260.83a151.75,151.75,0,0,1-16,4.08c-3,6.06-7.89,13.41-15.19,16.52-13.41,5.71-34.36,2.43-39.25-10.45-1.45,23.48,57.87,26.77,63.67,23.68S398,268,398,268Zm-55.27-7.1h0c-1.27-7.9,14.45-20.59,16.29-27.08a10,10,0,0,0-1.84-8.52,41.3,41.3,0,0,1,5.57-3.73c1.48-.33,1.79,2.33,3.06,4.42s6.06,3.67,3.54,6.45C367.21,234.74,342.37,251.88,342.68,260.91Z"/><path class="cls-19" d="M362.09,220.47a30.48,30.48,0,0,0-3.26,2.18c-.74.68,1.11,4.63,3,8s3.87,5.06,4.46,5.24,2.24-1.33,2.24-1.33Z"/><path class="cls-9" d="M392.12,182.78c-1.07.42-31.26,26.17-33.07,27.62s-1.44,2.74.69,6.67,6.55,11.86,7.59,14.22c.81,1.84,2.71,3.79,4.27,3.85.44,0,3.54.54,3.89.2,1.6-1.54,28.77-26.8,29.27-27.48s1.72-2.61-.63-6.45c-2.24-3.65-3.13-5.85-8.68-16.21-.29-.55,1.88-2,1.25-2.27A7.69,7.69,0,0,0,392.12,182.78Z"/><path class="cls-6" d="M395.64,183c-1.06.42-31.26,26.17-33.07,27.62s-1.44,2.74.7,6.66,6.55,11.87,7.58,14.23,3.89,4.92,5.49,3.38,31.45-26.13,31.94-26.81,1.73-2.61-.63-6.45c-2.24-3.66-3.12-5.85-8.67-16.21C398.32,184.21,397.24,182.37,395.64,183Z"/><path class="cls-6" d="M376.65,234.62c3.55-3.13,31.16-25.87,31.63-26.53s1.73-2.61-.63-6.45c-2.24-3.66-3.12-5.85-8.67-16.21a9.5,9.5,0,0,0-1-1.54c-5.59,4.42-30.34,25.51-32,26.81-1.81,1.44-1.44,2.75.69,6.67s6.55,11.86,7.59,14.23A8.33,8.33,0,0,0,376.65,234.62Z"/><path class="cls-9" d="M371.66,220.29a1.69,1.69,0,0,0-2.6-.45,2.44,2.44,0,0,0-.78,3,1.68,1.68,0,0,0,2.6.45A2.45,2.45,0,0,0,371.66,220.29Z"/><path class="cls-9" d="M403.25,201.16c-.07-.08-2.47-4.68-2.57-4.86s-.06-.27.16-.45.68-.53.8-.65.36-.17.45,0,2.48,4.68,2.51,4.75a.36.36,0,0,1-.16.43c-.23.16-.33.27-.91.75C403.46,201.2,403.35,201.28,403.25,201.16Z"/><path class="cls-9" d="M400,195.11c-.06-.08-.6-1.16-.7-1.34s-.06-.27.16-.45.68-.53.8-.65.36-.17.45,0,.62,1.16.64,1.23a.35.35,0,0,1-.16.43c-.22.16-.32.27-.91.75C400.26,195.15,400.15,195.23,400,195.11Z"/><path class="cls-13" d="M393.45,189.2c-.82.32-22.62,18.89-24,20s-1.12,2.12.53,5.15,5.06,9.17,5.86,11,3,3.8,4.24,2.61,22.76-18.85,23.15-19.38,1.33-2-.49-5c-1.73-2.82-2.41-4.51-6.71-12.52C395.52,190.12,394.68,188.71,393.45,189.2Z"/><path class="cls-11" d="M370.79,212.42a.08.08,0,0,1-.06.09.07.07,0,0,1-.09,0,.79.79,0,0,1,.19-.83.52.52,0,0,1,.37-.14.44.44,0,0,1,.33.2,1,1,0,0,1,0,.91.62.62,0,0,1,.66,0,.48.48,0,0,1,.22.71,1.25,1.25,0,0,1-.47.47.68.68,0,0,1-.57.09c-.21-.08-.31-.35-.13-.92a.94.94,0,0,1-.52.08.06.06,0,0,1-.06-.08.08.08,0,0,1,.08-.07,1,1,0,0,0,.58-.13l0-.08c.19-.43.17-.71.07-.86a.27.27,0,0,0-.21-.14.38.38,0,0,0-.27.11.67.67,0,0,0-.13.67Zm5.69,10.32a.07.07,0,0,1,0,.1.08.08,0,0,1-.11,0,1.27,1.27,0,0,1,.05-1.34.91.91,0,0,1,.27-.25.62.62,0,0,1,.32-.09h0a.54.54,0,0,1,.49.37c0,.1.08.22.13.36a3.76,3.76,0,0,0,1,1.7,2.72,2.72,0,0,1,.08-.54h0a3.59,3.59,0,0,1,.26-.6c.06-.14.15-.32.26-.56h0a.31.31,0,0,1,.1-.12.2.2,0,0,1,.21,0,.44.44,0,0,1,.2.11,1.14,1.14,0,0,1,.28.38,1.23,1.23,0,0,1,.08.38h0a1.78,1.78,0,0,1-.27.88,1.15,1.15,0,0,1-.43.48l-.06,0h0a1.42,1.42,0,0,1-.59-.13l0,.5c0,.13-.19.26-.41.31a.62.62,0,0,1-.27,0,.61.61,0,0,1-.27-.08.84.84,0,0,1-.31-.88,2,2,0,0,0,0-.34l0-.34a.09.09,0,0,1,.09-.07.07.07,0,0,1,.06.09l0,.33c0,.11,0,.23,0,.35-.05.41.06.63.23.73a.47.47,0,0,0,.21.06.55.55,0,0,0,.22,0c.15,0,.28-.11.29-.18l.05-.57a3.69,3.69,0,0,1-1.1-1.83c0-.12-.09-.24-.13-.35a.38.38,0,0,0-.35-.27.43.43,0,0,0-.24.06.76.76,0,0,0-.23.21,1.13,1.13,0,0,0,0,1.18Zm2.24.92a1.18,1.18,0,0,0,.57.15h0a1.06,1.06,0,0,0,.36-.42,1.6,1.6,0,0,0,.25-.8h0a.88.88,0,0,0-.06-.33.85.85,0,0,0-.24-.32.28.28,0,0,0-.14-.09.08.08,0,0,0-.08,0,.1.1,0,0,0-.05.06h0l-.27.56a3.09,3.09,0,0,0-.24.57h0a3.7,3.7,0,0,0-.09.6Zm.09-.6-.09.05a.07.07,0,0,0,.09-.05Zm-4.18-6.38a.07.07,0,0,1,.1,0,.07.07,0,0,1,0,.1h0l-.23.16.64.92.16.21.27-.34,0-.06c.06-.08.08-.11.19-.08.11-.28.21-.6.28-.85l.15,0a9.2,9.2,0,0,1-.31.93h0l0,.1a1.83,1.83,0,0,1-.35.65s0,0-.05,0h0l0,0a.92.92,0,0,1-.13-.14c-.27.33-.59.73-.73.89a.09.09,0,0,1-.07.06.08.08,0,0,1-.09-.07,4.17,4.17,0,0,0-.63-1.18l-.17-.27c-.09-.15.13-.4.41-.63l.27-.21c-.05-.07-.07-.12-.08-.13a.08.08,0,0,1,.05-.09.06.06,0,0,1,.09,0l.06.09.24-.15,0,0Zm-.29.39-.26.2c-.23.18-.42.37-.38.43a2.29,2.29,0,0,0,.17.27,6.13,6.13,0,0,1,.63,1.12l.66-.86c-.05-.07-.12-.15-.18-.24-.22-.3-.48-.68-.64-.92Zm1.35.74,0,.05-.3.37a.76.76,0,0,0,.1.12,5,5,0,0,0,.24-.54ZM374,216.44a.08.08,0,0,1,0-.16,8.28,8.28,0,0,0,.84,0c.64,0,1.37-.07,1.42.08h0l-2.28.09Zm.87,0-.87,0c.14,0,.49,0,.87,0Zm1.26,0a7.7,7.7,0,0,0-1.26,0l1.26,0Zm0,0h0Zm-.07.38a1.36,1.36,0,0,0,.07-.38l-.07.38Zm-4.61-4c-.22.57-.17.82,0,.88a.51.51,0,0,0,.44-.09,1,1,0,0,0,.41-.4.33.33,0,0,0-.16-.5c-.25-.14-.42,0-.63.08Z"/><path class="cls-9" d="M467.2,267.22c-16.73-12.65-32-10.73-55.61-13-12.38.79-19.85,7.53-24.24,17.62l0,.07,0,.08-.1.23,0,.08,0,.05v0l0,.07-.12.32,0,.07,0,.07h0l0,.08,0,.08-.1.24,0,.07v0l-.06.14,0,.08-.12.32,0,.08h0l0,.07-.18.49v0l0,.06,0,.08-.14.41,0,0v0c-.13.35-.25.71-.36,1.07l0,.07v0c-.06.19-.12.39-.19.58h0c-7.64,17.82-20.41,25.13-3.71,47.76l.1.15h0v.53c1.62,39.12-1.18,55.7-3.21,88.05h83.51c-6.54-24.93-17-48.13-15.33-69.17C449.56,310.19,475.88,298.19,467.2,267.22Z"/><path class="cls-6" d="M425.42,255.26l-.62,5.38s32.8-.48,32.58,19.23-15,29.57-25.27,39c-11.23,6.56-54.89-1.19-55.75-3.22a.7.7,0,0,1,0,.43,55.57,55.57,0,0,0,5.36,8.64l.1.15h0v.53c0,1.18.09,2.34.13,3.48a0,0,0,0,1,0,0c24.61-1.49,47.09,3.22,53.14,30.58,2.94,13.26-2.82,36.75-10,53.95h37c-6.54-24.93-17-48.13-15.33-69.17,2.74-34.13,29.06-46.13,20.38-77.1C454,257.22,441.67,256.32,425.42,255.26Z"/><path class="cls-9" d="M467,266.64c8.74,12.41,35.54,52.6,42.48,37.36,10.29-17.16,23.5-32.71,27-40.14.85-1.8,4.53,3.3,5.66,3.72,1.85.69,5.76.36,5.14,2.25-4.58,12.39-28.17,56.27-31.3,60.09-8.63,10.56-21.32,6.14-28.13.44-9.35-7.84-21.29-17-31.55-28.62Z"/><path class="cls-6" d="M464.57,264.52c3.1,4.41,5.68,7.73,9.2,12.64-3.53,6.93-2.76,32.3,5.92,41,29.34,29.37,44.77-8.56,56.77-34.93,4.44-9.75.46-12.3-1.93-15.13.17-.36,2.1-4.53,2.58-4.75,3.62-1.74,13.35,4,12.15,6.15-4.58,12.39-30.61,59.22-33.74,63-4.86,5.94-12.07,8.75-21.91,2.84-15.32-9.2-33.44-29.25-37.3-33.63Z"/><path class="cls-20" d="M433.8,223.75l-1.37,7.71s-2.12,15.88-2.44,18.3,1.42,6.93,8.39,8.2c5.69,1-14.36,8.33-26,5.42-12-3-14.38-13.11-9.67-13.53a8.2,8.2,0,0,0,4-2c3-2.54,4.64-15.46,2.44-19.19S433.8,223.75,433.8,223.75Z"/><path class="cls-11" d="M393.19,183.38c1.55-17.59,12.58-38,35.26-39.73s46,10.33,49.7,39.46c2.44,19.11-1.78,41.54-3.76,60h0c-3.3,17.78,2.42,28-1.26,33.19a24.08,24.08,0,0,0-16.75-12.16h0c-3.47-.54-6.75,1-9.12,5.77-27.57,55.18-78,40.94-65.27-5.56,6-21.85,5-12.87,8.62-53.62C391.29,203.08,392.22,194.47,393.19,183.38Z"/><path class="cls-21" d="M397,191s.14-1,.34-2.54c.09-.71.21-1.54.32-2.41.21-1.6.45-3.36.65-4.91.56-4.19,6.57-16.82,21.82-19.37s30.24,11.56,35.52,23.57,3.79,19.51,4.88,21.13,5.83-10.53-1.72-28.9c0,0-.56-2.18.31-3s10.23,12.57,9.83,38.63-17.62,44.65-45.13,45.9-33.53-21.37-30.41-44.77L416.29,199Z"/><path class="cls-15" d="M454.88,211.83l-1.51,9.5a30.31,30.31,0,0,1-34.57,25.13h0a30.32,30.32,0,0,1-25.13-34.58l3.74-23.66h0s3-16,18.07-19.7S458.15,187.27,454.88,211.83Z"/><path class="cls-16" d="M454.88,211.83l-1.51,9.5a30.31,30.31,0,0,1-34.57,25.13h0c22.64,2.38,36.08-34.63,29.16-47.89s-21.19-17.25-21.19-17.25l3.67-4.59s3.43-.08,8.58.1C448.89,185.05,456.7,198.12,454.88,211.83Z"/><path class="cls-17" d="M399,183.32c2.14-5,6.85-12.42,16.47-14.8,11.32-2.81,29.79,9.25,36.82,25.87C418.14,171,402.92,180.83,399,183.32Z"/><path class="cls-17" d="M422.85,225.27a7.82,7.82,0,0,1-15.49-2.13h0a1.36,1.36,0,0,1,1.52-1.16l12.79,1.76a1.36,1.36,0,0,1,1.16,1.52Z"/><path class="cls-22" d="M419.14,230.91a7.76,7.76,0,0,1-5.1,1,7.66,7.66,0,0,1-3.93-1.73,4.85,4.85,0,0,1,4.82-2.25A5,5,0,0,1,419.14,230.91Z"/><path class="cls-11" d="M408.72,222l12,1.65c0,1.36-.79,2.62-1.72,2.79-1.14.2-9.81-1.22-10.33-2A4.64,4.64,0,0,1,408.72,222Z"/><path class="cls-21" d="M394.88,269.47c9.7,13.46,26.68,3.6,38.9-2.74,3.13-1.62,3.08-1.2,1.18,1.79C422.43,288.29,395.68,292.28,394.88,269.47Z"/><path class="cls-15" d="M365.5,204.59c3.08-1.82,3.72-3.24,5.22-.87s6.6,1.08,5.54-.79c-1.58-2.75-1.32-2.57.2-2.05,4,1.37,7.58-.56,5.1-3.49,0,0,4.34,1.19,5.29-.71s-1.1-4-1.1-4-.12-1.11.64-1.18c1-.1,1.61,2,3.71.7,1.17-.75-.32-4.74-2.06-5.53s-6.72-1-8.15-.4-1.82,2.93-1.82,2.93c-3.32-.49-4.92.39-5.21,3.48-.11,1.09-2.93.72-3.79,2.06-.49.75,1,4.1-.8,4S366.21,201.27,365.5,204.59Z"/><path class="cls-15" d="M533.12,256.85c-.77-4.05-4.59-13-5.51-14-1.21-1.26,5.19-5.1,7.45,1,0,0,3,4,4.16,3.36s3.43-16.26,3.62-18.21,2.85-2.09,3.45-1.54.05,3-.11,6.64-.29,5.81,0,6.17c.86,1,5.16-12.21,6.69-13.07,1-.54,4,.76,3.84,2.58s-4.92,12.6-5.09,14.17.76.71,1.46-.15,7.11-11.57,8-12.11,3.68,1.09,3,2.93-6.73,12.6-6.69,13.5.68.8,2.67-.61,5.94-4.33,7.08-4c.74,0,1.71,2.22,0,4s-6,6.46-6.54,7.23c-2.85,4.05-4.31,8.51-7,11.37a9.45,9.45,0,0,1-3.62,2.34C541.34,271.65,534.7,265.2,533.12,256.85Z"/><path class="cls-16" d="M554.22,265.37c-.19.24-.39.47-.6.7a9.29,9.29,0,0,1-3.28,2.2l-.34.14a11.28,11.28,0,0,1-13.59-4,18,18,0,0,1-3.29-7.61l-.06-.3C536.84,264.85,545.6,268.07,554.22,265.37Z"/><rect class="cls-23" x="206.64" y="362.54" width="9.05" height="11.16"/><path class="cls-24" d="M211.31,364.84a2,2,0,0,1,2,2v2.62h2.35v-6.16h-7.78c-.45,0-.87,0-1.27.06v1.44Z"/><rect class="cls-23" x="184" y="362.54" width="9.05" height="11.16"/><path class="cls-12" d="M178.32,397.22h42.73a1.37,1.37,0,0,0,1.38-1.64l-4-24.43a2,2,0,0,0-1.91-1.65H182.87a2,2,0,0,0-1.91,1.65l-4,24.43A1.36,1.36,0,0,0,178.32,397.22Z"/><path class="cls-9" d="M199.84,395.72h22.74a4.2,4.2,0,0,1,2.83,1.61l3.28,4.34H171l3.28-4.34a4.18,4.18,0,0,1,2.83-1.61Z"/><path class="cls-25" d="M214.89,372.16l.25,1.53,3.61,22h3.69a.66.66,0,0,0,0-.14l-4-24.43a2,2,0,0,0-1.91-1.65H182.87a2,2,0,0,0-1.68,1H213a2,2,0,0,1,1.92,1.65Zm-14.12-.2a11.4,11.4,0,1,1-11.39,11.4A11.39,11.39,0,0,1,200.77,372Z"/><rect class="cls-26" x="170.7" y="400.99" width="58.28" height="7.76" rx="1.61"/><circle class="cls-1" cx="199.73" cy="382.56" r="11.4"/><path class="cls-8" d="M199.73,388.08a5.52,5.52,0,1,0-5.52-5.52A5.53,5.53,0,0,0,199.73,388.08Z"/><path class="cls-27" d="M205.24,382.2c0,.12,0,.24,0,.36a5.37,5.37,0,0,1-.31,1.81h-5.21a1.09,1.09,0,1,1,0-2.17Z"/><path class="cls-27" d="M199.73,379.92a2.65,2.65,0,1,1-2.65,2.64A2.64,2.64,0,0,1,199.73,379.92Z"/><path class="cls-28" d="M199.73,375.3a1.23,1.23,0,1,0-1.22-1.22A1.22,1.22,0,0,0,199.73,375.3Z"/><path class="cls-28" d="M206.59,375.7a1.22,1.22,0,0,1,0,1.73,1.22,1.22,0,0,1-1.73-1.73A1.22,1.22,0,0,1,206.59,375.7Z"/><path class="cls-28" d="M206.59,389.43a1.22,1.22,0,0,1-1.73-1.73,1.22,1.22,0,1,1,1.73,1.73Z"/><path class="cls-28" d="M199.73,392.27a1.22,1.22,0,1,1,1.22-1.22A1.22,1.22,0,0,1,199.73,392.27Z"/><path class="cls-28" d="M192.86,389.43a1.24,1.24,0,0,1,0-1.73,1.22,1.22,0,1,1,1.73,1.73A1.24,1.24,0,0,1,192.86,389.43Z"/><path class="cls-28" d="M190,382.56a1.22,1.22,0,1,1,2.44,0,1.22,1.22,0,1,1-2.44,0Z"/><path class="cls-28" d="M192.86,375.7a1.22,1.22,0,1,1,1.73,1.73,1.22,1.22,0,0,1-1.73-1.73Z"/><path class="cls-9" d="M199.73,383.65a1.09,1.09,0,0,1,0-2.18h8.48a1.09,1.09,0,1,1,0,2.18Z"/><path class="cls-29" d="M214.1,363.34c6,0,8,3.88,8,6.94l1,1.73h12.67l.86-.94v-4.21c0-1.57.3-10.76-13.88-10.76H176.65c-14.18,0-13.88,9.19-13.88,10.76v4.21l.86.94H176.3l1-1.73c0-3.06,2-6.94,8-6.94H214.1Z"/><path class="cls-11" d="M177.69,370.28H162a1.11,1.11,0,0,0-1,1.19v5.86a1.11,1.11,0,0,0,1,1.19h15.72a1.11,1.11,0,0,0,1-1.19v-5.86A1.11,1.11,0,0,0,177.69,370.28Z"/><path class="cls-24" d="M188.67,364.84a2,2,0,0,1,2,2v2.62h2.34v-6.16h-7.78c-.44,0-.87,0-1.27.06v1.44Z"/><path class="cls-9" d="M226.89,404.68a1.61,1.61,0,0,1-1.61,1.61H170.7v.84a1.56,1.56,0,0,0,.2.78h57.88a1.56,1.56,0,0,0,.2-.78V402.6a1.68,1.68,0,0,0-.29-.93h0l-.06-.07a1.62,1.62,0,0,0-1.26-.61h-.48v3.69Z"/><path class="cls-9" d="M199.69,363.34H214.1a11.4,11.4,0,0,1,1.59.1c4.74.63,6.4,4.07,6.4,6.84h4l-.06-.09c0-3.49-2.3-7.9-9.08-7.9H184.16c-6.79,0-9.09,4.41-9.09,7.9l0,.09h2.27c0-2.83,1.73-6.36,6.71-6.88.4,0,.83-.06,1.27-.06h14.42Z"/><rect class="cls-30" x="163.15" y="371.49" width="10.88" height="4.26" rx="0.61"/><path class="cls-31" d="M176.82,371.1v4.81a1.11,1.11,0,0,1-1,1.19H161v.23a1.11,1.11,0,0,0,1,1.19h15.72a1.11,1.11,0,0,0,1-1.19v-5.86a1.11,1.11,0,0,0-1-1.19h-.87Z"/><path class="cls-11" d="M237.41,370.28H221.69a1.11,1.11,0,0,0-1,1.19v5.86a1.11,1.11,0,0,0,1,1.19h15.72a1.11,1.11,0,0,0,1-1.19v-5.86A1.11,1.11,0,0,0,237.41,370.28Z"/><rect class="cls-30" x="222.87" y="371.49" width="10.88" height="4.26" rx="0.61"/><path class="cls-31" d="M236.54,371.1v4.81a1.11,1.11,0,0,1-1,1.19H220.69v.23a1.11,1.11,0,0,0,1,1.19h15.72a1.11,1.11,0,0,0,1-1.19v-5.86a1.11,1.11,0,0,0-1-1.19h-.87Z"/><path class="cls-11" d="M543.19,314h34.73a3.31,3.31,0,0,1,2.08.75,1,1,0,0,1,.4.32,1.35,1.35,0,0,1,.15.26,3.25,3.25,0,0,1,.65,2v20.41a3.23,3.23,0,0,1-1,2.31h0a3.27,3.27,0,0,1-2.31,1H543.19a3.28,3.28,0,0,1-3.28-3.28V317.25a3.28,3.28,0,0,1,.65-2,.89.89,0,0,1,.14-.25,1.11,1.11,0,0,1,.4-.32,3.33,3.33,0,0,1,2.09-.75Zm35.18,24.9L564.6,328.35,561.17,331h0l-.08.06h-.15l-.12,0h0l-.12,0h-.26l-.12,0h0l-.11,0H560L560,331h0l-3.43-2.62-13.76,10.51a1.12,1.12,0,0,0,.45.08h34.73a1.19,1.19,0,0,0,.45-.08Zm-12.54-11.45,13.37,10.22V317.2l-13.37,10.21ZM541.9,337.63l13.37-10.22L541.9,317.2v20.43Zm18.65-8.69,17-13h-34Z"/><path class="cls-8" d="M125.63,149.63h54.74a7.24,7.24,0,0,1,7.23,7.22v51a.79.79,0,0,1-.5.75.78.78,0,0,1-.88-.18L173.9,196.1H125.63a7.25,7.25,0,0,1-7.23-7.23v-32A7.24,7.24,0,0,1,125.63,149.63Z"/><path class="cls-11" d="M136.87,176.85a4,4,0,1,0-4-4A4,4,0,0,0,136.87,176.85Z"/><path class="cls-11" d="M153,176.85a4,4,0,1,0-4-4A4,4,0,0,0,153,176.85Z"/><path class="cls-11" d="M169.13,176.85a4,4,0,1,0-4-4A4,4,0,0,0,169.13,176.85Z"/><path class="cls-28" d="M448.74,292.27H316a4,4,0,0,0-3.67,3.06l-16.92,83.49a2.7,2.7,0,0,0,.24,1.82c.54,1,2.85,3.54,3.45,3.51l128.09-5.41a4.21,4.21,0,0,0,3.67-3.05L453.53,296a34.51,34.51,0,0,0-3.35-3.26A2.52,2.52,0,0,0,448.74,292.27Z"/><path class="cls-11" d="M451.55,295H318.79a4,4,0,0,0-3.68,3.06L298.2,381.59a2.44,2.44,0,0,0,2.44,3.06H433.4a4,4,0,0,0,3.67-3.06L454,298.1A2.43,2.43,0,0,0,451.55,295Z"/><path class="cls-32" d="M417.55,330H359.1a3,3,0,0,0-2.77,2.34L349.1,371.2a1.9,1.9,0,0,0,1.91,2.34h58.45a3,3,0,0,0,2.77-2.34l7.23-38.87A1.9,1.9,0,0,0,417.55,330Z"/><path class="cls-33" d="M386.42,349.26H369.2a2.94,2.94,0,0,0-2.92,3.85l11.94,49.21a5.22,5.22,0,0,0,4.78,3.85h17.22a2.94,2.94,0,0,0,2.92-3.85L391.2,353.11A5.23,5.23,0,0,0,386.42,349.26Z"/><path class="cls-11" d="M392.36,349.26H375.15a2.94,2.94,0,0,0-2.92,3.85l11.93,49.21a5.24,5.24,0,0,0,4.79,3.85h17.21a2.93,2.93,0,0,0,2.92-3.85l-11.93-49.21A5.24,5.24,0,0,0,392.36,349.26Z"/><path class="cls-11" d="M428.29,412.3H351a4.59,4.59,0,0,1-4.59-4.58h0a4.59,4.59,0,0,1,4.59-4.58h77.28a4.59,4.59,0,0,1,4.58,4.58h0A4.59,4.59,0,0,1,428.29,412.3Z"/><path class="cls-33" d="M366.46,412.3H337.61a4.6,4.6,0,0,1-4.59-4.58h0a4.6,4.6,0,0,1,4.59-4.58h28.85a4.59,4.59,0,0,1,4.58,4.58h0A4.59,4.59,0,0,1,366.46,412.3Z"/><path class="cls-32" d="M435.9,302.4h-.71a1.33,1.33,0,0,0-1.25,1.06l-3.27,17.59a.86.86,0,0,0,.86,1.06h.71a1.34,1.34,0,0,0,1.25-1.06l3.27-17.59A.86.86,0,0,0,435.9,302.4Z"/><path class="cls-32" d="M430.32,302.4h-.71a1.35,1.35,0,0,0-1.26,1.06l-3.26,17.59a.85.85,0,0,0,.86,1.06h.71a1.34,1.34,0,0,0,1.25-1.06l3.27-17.59A.86.86,0,0,0,430.32,302.4Z"/><path class="cls-32" d="M424.74,302.4H424a1.34,1.34,0,0,0-1.26,1.06l-3.27,17.59a.86.86,0,0,0,.86,1.06h.72a1.34,1.34,0,0,0,1.25-1.06l3.27-17.59A.86.86,0,0,0,424.74,302.4Z"/><path class="cls-32" d="M419.16,302.4h-.72a1.34,1.34,0,0,0-1.25,1.06l-3.27,17.59a.86.86,0,0,0,.86,1.06h.71a1.34,1.34,0,0,0,1.26-1.06L420,303.46A.86.86,0,0,0,419.16,302.4Z"/><path class="cls-32" d="M413.57,302.4h-.71a1.34,1.34,0,0,0-1.25,1.06l-3.27,17.59a.86.86,0,0,0,.86,1.06h.71a1.35,1.35,0,0,0,1.26-1.06l3.27-17.59A.86.86,0,0,0,413.57,302.4Z"/><path class="cls-32" d="M408,302.4h-.71a1.34,1.34,0,0,0-1.25,1.06l-3.27,17.59a.86.86,0,0,0,.86,1.06h.71a1.33,1.33,0,0,0,1.25-1.06l3.27-17.59A.85.85,0,0,0,408,302.4Z"/><path class="cls-32" d="M402.41,302.4h-.71a1.34,1.34,0,0,0-1.25,1.06l-3.27,17.59a.86.86,0,0,0,.86,1.06h.71a1.33,1.33,0,0,0,1.25-1.06l3.27-17.59A.86.86,0,0,0,402.41,302.4Z"/><path class="cls-32" d="M396.83,302.4h-.71a1.33,1.33,0,0,0-1.25,1.06l-3.27,17.59a.86.86,0,0,0,.86,1.06h.71a1.34,1.34,0,0,0,1.25-1.06l3.27-17.59A.86.86,0,0,0,396.83,302.4Z"/><path class="cls-32" d="M391.25,302.4h-.71a1.35,1.35,0,0,0-1.26,1.06L386,321.05a.86.86,0,0,0,.86,1.06h.71a1.34,1.34,0,0,0,1.25-1.06l3.27-17.59A.86.86,0,0,0,391.25,302.4Z"/><path class="cls-32" d="M385.67,302.4H385a1.35,1.35,0,0,0-1.26,1.06l-3.27,17.59a.86.86,0,0,0,.87,1.06H382a1.34,1.34,0,0,0,1.25-1.06l3.27-17.59A.86.86,0,0,0,385.67,302.4Z"/><path class="cls-32" d="M380.09,302.4h-.71a1.34,1.34,0,0,0-1.26,1.06l-3.27,17.59a.86.86,0,0,0,.86,1.06h.71a1.34,1.34,0,0,0,1.26-1.06L381,303.46A.86.86,0,0,0,380.09,302.4Z"/><path class="cls-32" d="M374.51,302.4h-.72a1.34,1.34,0,0,0-1.25,1.06l-3.27,17.59a.86.86,0,0,0,.86,1.06h.71a1.35,1.35,0,0,0,1.26-1.06l3.27-17.59A.86.86,0,0,0,374.51,302.4Z"/><path class="cls-32" d="M368.92,302.4h-.71a1.34,1.34,0,0,0-1.25,1.06l-3.27,17.59a.86.86,0,0,0,.86,1.06h.71a1.35,1.35,0,0,0,1.26-1.06l3.26-17.59A.85.85,0,0,0,368.92,302.4Z"/><path class="cls-32" d="M363.34,302.4h-.71a1.34,1.34,0,0,0-1.25,1.06l-3.27,17.59a.86.86,0,0,0,.86,1.06h.71a1.33,1.33,0,0,0,1.25-1.06l3.27-17.59A.86.86,0,0,0,363.34,302.4Z"/><path class="cls-32" d="M357.76,302.4h-.71a1.33,1.33,0,0,0-1.25,1.06l-3.27,17.59a.86.86,0,0,0,.86,1.06h.71a1.34,1.34,0,0,0,1.25-1.06l3.27-17.59A.86.86,0,0,0,357.76,302.4Z"/><path class="cls-32" d="M352.18,302.4h-.71a1.33,1.33,0,0,0-1.25,1.06L347,321.05a.86.86,0,0,0,.86,1.06h.71a1.34,1.34,0,0,0,1.25-1.06L353,303.46A.86.86,0,0,0,352.18,302.4Z"/><path class="cls-32" d="M346.6,302.4h-.71a1.35,1.35,0,0,0-1.26,1.06l-3.27,17.59a.86.86,0,0,0,.87,1.06h.71a1.34,1.34,0,0,0,1.25-1.06l3.27-17.59A.86.86,0,0,0,346.6,302.4Z"/><path class="cls-32" d="M341,302.4h-.71a1.34,1.34,0,0,0-1.26,1.06l-3.27,17.59a.86.86,0,0,0,.86,1.06h.71a1.34,1.34,0,0,0,1.26-1.06l3.27-17.59A.86.86,0,0,0,341,302.4Z"/><path class="cls-32" d="M335.44,302.4h-.71a1.34,1.34,0,0,0-1.26,1.06l-3.27,17.59a.86.86,0,0,0,.86,1.06h.71a1.34,1.34,0,0,0,1.26-1.06l3.27-17.59A.86.86,0,0,0,335.44,302.4Z"/><path class="cls-11" d="M182.34,102.32a11.21,11.21,0,0,1-4.81,5.67,15.09,15.09,0,0,1-3.53,1.63,1.06,1.06,0,0,1-1.3-.72,1,1,0,0,1,0-.39,14,14,0,0,0,0-3.23,12,12,0,0,0-.37-1.76,20.19,20.19,0,1,1,10.08-1.2Zm-7.51,4.75a9.81,9.81,0,0,0,5.67-5.85,1,1,0,0,1,.64-.69,18.1,18.1,0,1,0-8,1,1,1,0,0,1,.88.69,13.46,13.46,0,0,1,.68,2.8A15.71,15.71,0,0,1,174.83,107.07Z"/><path class="cls-11" d="M182.61,72.92a7,7,0,0,0-2.8-3.12,11,11,0,0,0-3.05,5.36c.84.56,3.13,2.31,2.05,4.17l-4.47,7.75c-1.09,1.81-3.73.72-4.62.28a11,11,0,0,0-3.12,5.32,7,7,0,0,0,4.1.86A4.42,4.42,0,0,0,174,91.71l8.7-15.06A4.45,4.45,0,0,0,182.61,72.92Z"/><path class="cls-12" d="M557.33,154.9H502.58a7.26,7.26,0,0,0-7.23,7.23v51a.81.81,0,0,0,1.38.57l12.32-12.32h48.28a7.25,7.25,0,0,0,7.23-7.23v-32A7.26,7.26,0,0,0,557.33,154.9Z"/><path class="cls-11" d="M546.08,182.12a4,4,0,1,0-4-4A4,4,0,0,0,546.08,182.12Z"/><path class="cls-11" d="M530,182.12a4,4,0,1,0-4-4A4,4,0,0,0,530,182.12Z"/><path class="cls-11" d="M513.82,182.12a4,4,0,1,0-4-4A4,4,0,0,0,513.82,182.12Z"/><path class="cls-11" d="M311.73,136.13A18.93,18.93,0,1,0,292.8,117.2,19,19,0,0,0,311.73,136.13Z"/><circle class="cls-1" cx="311.73" cy="162.8" r="18.93" transform="translate(-23.81 268.11) rotate(-45)"/><path class="cls-5" d="M312.68,157c1.07-4,3.09-5.54,3.3-5.69a.38.38,0,0,1,.44,0,7.15,7.15,0,0,1,3.08,3.32,4.82,4.82,0,0,1,0,4.05l-7.85,13.59a4.76,4.76,0,0,1-3.53,2,7.21,7.21,0,0,1-4.4-1,.38.38,0,0,1-.21-.37s.21-2.64,3.27-5.72a.39.39,0,0,1,.48-.08s2.59,1.5,3.39.16l4-7c.75-1.3-1.6-2.73-1.81-2.86A.38.38,0,0,1,312.68,157Z"/><path class="cls-5" d="M346.34,106.16a.75.75,0,1,1,0-1.49h23.9a.75.75,0,1,1,0,1.49Z"/><path class="cls-5" d="M346.56,110.8a.75.75,0,0,1-.75-.75.74.74,0,0,1,.75-.74h9.19a.74.74,0,0,1,.75.74.75.75,0,0,1-.75.75Z"/><path class="cls-5" d="M346.34,115.76a.75.75,0,1,1,0-1.49h9.56a.75.75,0,1,1,0,1.49Z"/><path class="cls-5" d="M346.34,120.12a.75.75,0,0,1-.75-.74.76.76,0,0,1,.75-.75h19.12a.76.76,0,0,1,.75.75.75.75,0,0,1-.75.74Z"/><path class="cls-5" d="M345.8,124.76c-.11,0-.21-.33-.21-.75s.1-.74.21-.74h8.57c.11,0,.21.33.21.74s-.1.75-.21.75Z"/><path class="cls-5" d="M346.34,129.74a.76.76,0,0,1-.75-.75.75.75,0,0,1,.75-.74h30.71a.75.75,0,0,1,.75.74.76.76,0,0,1-.75.75Z"/><path class="cls-5" d="M346.34,151.76a.75.75,0,1,1,0-1.49h23.9a.75.75,0,1,1,0,1.49Z"/><path class="cls-5" d="M346.56,156.4a.75.75,0,0,1,0-1.5h9.19a.75.75,0,0,1,0,1.5Z"/><path class="cls-5" d="M346.34,161.36a.76.76,0,0,1-.75-.75.75.75,0,0,1,.75-.74h9.56a.75.75,0,0,1,.75.74.76.76,0,0,1-.75.75Z"/><path class="cls-5" d="M346.34,165.72a.75.75,0,1,1,0-1.49h19.12a.75.75,0,1,1,0,1.49Z"/><path class="cls-5" d="M346.34,170.36a.76.76,0,0,1-.75-.75.75.75,0,0,1,.75-.74h30.71a.75.75,0,0,1,.75.74.76.76,0,0,1-.75.75Z"/><path class="cls-5" d="M345.74,175.34c-.08,0-.15-.34-.15-.75s.07-.75.15-.75h6.08c.08,0,.15.34.15.75s-.07.75-.15.75Z"/><path class="cls-5" d="M304.44,131.79l-1.63-1.59a3.34,3.34,0,0,0-.5.38A16,16,0,0,0,304.44,131.79Z"/><path class="cls-5" d="M304.44,131.79l-1.63-1.59a3.34,3.34,0,0,0-.5.38A16,16,0,0,0,304.44,131.79Z"/><path class="cls-5" d="M319,131.79l1.63-1.59a3.34,3.34,0,0,1,.5.38A16,16,0,0,1,319,131.79Z"/><path class="cls-5" d="M319,131.79l1.63-1.59a3.34,3.34,0,0,1,.5.38A16,16,0,0,1,319,131.79Z"/><path class="cls-8" d="M317.4,128.91l.13,0h0a16.86,16.86,0,0,1,3.08,1.26,2.25,2.25,0,0,1,.48.4,17,17,0,0,1-18.76,0,2.25,2.25,0,0,1,.48-.4,16.86,16.86,0,0,1,3.08-1.26h0l.13,0h0a15.5,15.5,0,0,1,2.33-.28l3.31.47h.08l3.31-.47a15.5,15.5,0,0,1,2.33.28Z"/><path class="cls-10" d="M314.42,121.34l-.08,1.86v4.39a1.59,1.59,0,0,0,.72,1c-2.39,2.59-4.31,2.59-6.7,0a1.59,1.59,0,0,0,.72-1V123.2l-.08-1.86s1.34.24,2.71.58C313.09,121.58,314.42,121.34,314.42,121.34Z"/><path class="cls-9" d="M303.09,110.88a4,4,0,0,0-.4,1.6c0,.77,1.62,1.09,2.18,1.09s15.52.55,15.52.55a.57.57,0,0,0,.46-.53c0-.45-2.57-6-2.57-6Z"/><path class="cls-10" d="M303.55,115.63a2.38,2.38,0,1,1-2.38,2.38A2.39,2.39,0,0,1,303.55,115.63Z"/><path class="cls-10" d="M319.92,115.63a2.38,2.38,0,1,1-2.38,2.38A2.39,2.39,0,0,1,319.92,115.63Z"/><path class="cls-15" d="M311.77,103h0a8.18,8.18,0,0,1,8.16,8.16v7.41a8.18,8.18,0,0,1-8.16,8.16h0a8.18,8.18,0,0,1-8.16-8.16v-7.41A8.18,8.18,0,0,1,311.77,103Z"/><path class="cls-9" d="M319,111v2.56c0,1,.18,1.3.69,1.66,0,0-.31,1,.25,1.2a.89.89,0,0,1,.44-.75v-6.22a3.41,3.41,0,0,1-1.44,1A2.49,2.49,0,0,1,319,111Z"/><path class="cls-9" d="M304.6,110.61v1.84c0,.73-.13.94-.49,1.21,0,0-.1.61-.5.78l-.36-4.85a3.92,3.92,0,0,0,1.4.6A1.86,1.86,0,0,0,304.6,110.61Z"/><path class="cls-9" d="M320.85,113.59a6.66,6.66,0,0,0-1.86-1.53h0l0,0-.23-.12a4.73,4.73,0,0,1-1.93-1.9c-.68.47-3.46.4-4.51.35h-.41c-4.66-.19-9.17.94-9.19,2.12-4-8.49,6.06-16.67,15-7.39C322.48,105.32,322.06,110.19,320.85,113.59Z"/><rect class="cls-34" x="540.47" y="398.57" width="83.57" height="7.66"/><path class="cls-11" d="M550.77,399.24a1.66,1.66,0,0,0,0-3.31h-59a6.46,6.46,0,0,0-4.57,1.9h0a6.48,6.48,0,0,0,4.58,11h59a1.66,1.66,0,0,0,0-3.31h-2.71a11.56,11.56,0,0,1-1.3-1.13,3.5,3.5,0,0,1-1.21-2.62,4,4,0,0,1,1.56-2.58Z"/><path class="cls-35" d="M624.05,399.24a1.66,1.66,0,0,0,0-3.31H550a6.47,6.47,0,0,0-4.57,1.9h0a6.48,6.48,0,0,0,4.57,11h74a1.66,1.66,0,0,0,0-3.31H550a3.17,3.17,0,0,1-2.24-5.4,3.19,3.19,0,0,1,2.24-.93Z"/><rect class="cls-36" x="494.32" y="383.92" width="70.07" height="9.3"/><path class="cls-8" d="M551.9,384.73a2,2,0,0,1,0-4h54.41a7.82,7.82,0,0,1,5.54,2.31h0a7.86,7.86,0,0,1-5.55,13.4H551.9a2,2,0,0,1,0-4h3.28a12.82,12.82,0,0,0,1.58-1.37,4.3,4.3,0,0,0,1.48-3.17,4.89,4.89,0,0,0-1.9-3.14Z"/><path class="cls-37" d="M494.32,384.73a2,2,0,0,1,0-4h58.51a7.82,7.82,0,0,1,5.54,2.31h0a7.86,7.86,0,0,1-5.55,13.4H494.32a2,2,0,0,1,0-4h58.51a3.87,3.87,0,0,0,2.71-1.13,3.84,3.84,0,0,0-2.71-6.55Z"/><rect class="cls-36" x="546.43" y="367.92" width="45.47" height="9.51"/><path class="cls-9" d="M559.21,368.75a2.06,2.06,0,0,0,0-4.12H525.68A8,8,0,0,0,520,367h0a8,8,0,0,0,5.67,13.71h33.53a2.06,2.06,0,0,0,0-4.11h-3.36a14.26,14.26,0,0,1-1.62-1.4,4.37,4.37,0,0,1-1.51-3.25,5,5,0,0,1,1.94-3.2Z"/><path class="cls-29" d="M591.89,368.75a2.06,2.06,0,1,0,0-4.12H558.26a8.05,8.05,0,0,0-5.68,2.36h0a8,8,0,0,0,5.69,13.71h33.63a2.06,2.06,0,1,0,0-4.11H558.26a3.93,3.93,0,1,1,0-7.85Z"/><polygon class="cls-6" points="318.91 408.88 283.32 408.88 283.32 395.68 312.89 395.68 318.91 408.88"/><polygon class="cls-38" points="246.78 408.88 306.87 408.88 312.89 395.68 252.8 395.68 246.78 408.88"/><path class="cls-11" d="M256.35,400.74a1.51,1.51,0,0,0-1,.41,3.41,3.41,0,0,0-.81,1.15c-.46,1-.3,1.52.47,1.52a2.66,2.66,0,0,0,.72-.1c.25-.06.5-.14.76-.23l-.55,1.2a4.5,4.5,0,0,1-1.62.29c-.79,0-1.3-.23-1.51-.69a2.51,2.51,0,0,1,.28-2,4.85,4.85,0,0,1,1-1.43,4.19,4.19,0,0,1,1.32-.95,3.61,3.61,0,0,1,1.51-.33,2.82,2.82,0,0,1,1.46.36l-.95,1.12a4.09,4.09,0,0,0-.47-.23,1.74,1.74,0,0,0-.59-.09Zm4.36,4.17h1.55l.68-5.28H261l-4.13,5.28h1.57l.71-1h1.71l-.19,1Zm.43-2.15H260c.59-.83,1-1.38,1.18-1.66l.4-.61c0,.14-.08.35-.15.66l-.15.74-.16.87Zm2.28,2.15,2.41-5.26h1.42l-1.88,4.11h2l-.53,1.15Zm4.89,0,2.4-5.26h1.42l-1.88,4.11h2l-.53,1.15Zm10.44-4.17a1.53,1.53,0,0,0-1,.41,3.4,3.4,0,0,0-.8,1.15c-.47,1-.31,1.52.46,1.52a2.66,2.66,0,0,0,.72-.1c.25-.06.5-.14.76-.23l-.55,1.2a4.47,4.47,0,0,1-1.62.29c-.79,0-1.29-.23-1.51-.69a2.51,2.51,0,0,1,.28-2,5.27,5.27,0,0,1,1-1.43,4.19,4.19,0,0,1,1.32-.95,3.64,3.64,0,0,1,1.51-.33,2.82,2.82,0,0,1,1.46.36l-.95,1.12a4.09,4.09,0,0,0-.47-.23,1.74,1.74,0,0,0-.59-.09Zm4.26,4.17.53-1.16h-1.71l.46-1h1.57l.52-1.14h-1.57l.37-.83h1.71l.52-1.14h-3.13l-2.4,5.26Zm6.52,0h-1.87l-.22-3.71h0c-.22.59-.4,1-.54,1.34l-1.08,2.37h-1.26l2.4-5.26h1.86l.24,3.65h0c.2-.53.38-.95.53-1.27l1.08-2.38h1.27l-2.4,5.26Zm4.05,0h-1.42l1.87-4.1h-1.29l.53-1.16h4l-.53,1.16h-1.28l-1.87,4.1Zm5.75,0,.53-1.16h-1.71l.46-1h1.58l.52-1.14h-1.58l.38-.83h1.7l.52-1.14h-3.12l-2.4,5.26Zm3.81-1.92-.88,1.92h-1.42l2.4-5.26H305c1.43,0,1.9.52,1.43,1.55a2.93,2.93,0,0,1-1.53,1.42l.48,2.29h-1.61L303.5,403Zm.48-1.06h.27a1.06,1.06,0,0,0,1.05-.66c.16-.36,0-.55-.49-.55h-.28Z"/><path class="cls-6" d="M726.13,418.53h-614a4.94,4.94,0,0,1-4.92-4.93h0a4.94,4.94,0,0,1,4.92-4.92h614a4.94,4.94,0,0,1,4.92,4.92h0A4.94,4.94,0,0,1,726.13,418.53Z"/><path class="cls-6" d="M66.94,418.53H88.73a4.94,4.94,0,0,0,4.92-4.93h0a4.94,4.94,0,0,0-4.92-4.92H66.94A4.94,4.94,0,0,0,62,413.6h0A4.94,4.94,0,0,0,66.94,418.53Z"/><path class="cls-4" d="M636.21,209.17a15.34,15.34,0,0,1,21.7,0,15.33,15.33,0,0,1,0,21.71,15.35,15.35,0,0,1-25-16.72,15.19,15.19,0,0,1,3.34-5Zm5.52-2a13.93,13.93,0,1,0,15.18,22.72,13.93,13.93,0,0,0,0-19.7,13.93,13.93,0,0,0-15.18-3Zm-1.7-11.3a26.5,26.5,0,0,0-2.83,1,24.5,24.5,0,0,0-2.71,1.36,25.73,25.73,0,0,0-2.56,1.69,24.92,24.92,0,0,0-2.34,2,1.59,1.59,0,0,1-.92.44,1.61,1.61,0,0,1-1-.21c-2.25-1.3-4.62-2.59-6.83-3.94a1.07,1.07,0,0,0-.33-.11,1.2,1.2,0,0,0-.38,0,1.14,1.14,0,0,0-.35.17,1.19,1.19,0,0,0-.25.29c-1.64,2.48-3.29,5.69-4.81,8.33a.91.91,0,0,0-.12.35,1,1,0,0,0,0,.39.88.88,0,0,0,.17.35,1,1,0,0,0,.28.25c2,1.34,4.64,2.68,6.79,3.92a1.56,1.56,0,0,1,.68.76,1.91,1.91,0,0,1,.1.34l.14,0-.16.64c-.12.49-.23,1-.32,1.49s-.17,1-.23,1.51-.11,1-.14,1.53,0,1,0,1.54,0,1,0,1.54.08,1,.14,1.53.14,1,.23,1.52.2,1,.32,1.49a1.6,1.6,0,0,1-.82,1.81l-6,3.48h0l-.71.41a1,1,0,0,0-.28.25.91.91,0,0,0-.17.34,1,1,0,0,0,0,.39,1,1,0,0,0,.12.36l4.45,7.71h0l.35.62a1.14,1.14,0,0,0,.25.28,1,1,0,0,0,.35.17.86.86,0,0,0,.39,0,.77.77,0,0,0,.35-.12c2.15-1.35,4.58-2.64,6.8-3.93a1.63,1.63,0,0,1,1.92.23h0a24.82,24.82,0,0,0,2.34,2,24.17,24.17,0,0,0,2.56,1.7,24.79,24.79,0,0,0,2.73,1.36,23.39,23.39,0,0,0,2.88,1,1.63,1.63,0,0,1,1.17,1.55v7.85a.91.91,0,0,0,.08.37.9.9,0,0,0,.21.31,1,1,0,0,0,.32.22,1.06,1.06,0,0,0,.37.07h9.63a1,1,0,0,0,.36-.07,1,1,0,0,0,.32-.22.9.9,0,0,0,.21-.31.91.91,0,0,0,.08-.37v-7.85a1.62,1.62,0,0,1,1.24-1.57,23.62,23.62,0,0,0,2.82-1,25.55,25.55,0,0,0,2.72-1.36,24.17,24.17,0,0,0,2.56-1.7,26.15,26.15,0,0,0,2.34-2,1.53,1.53,0,0,1,1-.44,1.59,1.59,0,0,1,1,.25l6.72,3.88a.77.77,0,0,0,.35.12.86.86,0,0,0,.39,0,1,1,0,0,0,.35-.17.94.94,0,0,0,.24-.28c1.6-2.78,3.22-5.55,4.82-8.33a1.27,1.27,0,0,0,.12-.36,1.29,1.29,0,0,0,0-.39.91.91,0,0,0-.17-.34.76.76,0,0,0-.28-.25l-6.79-3.92a1.65,1.65,0,0,1-.68-.76,2.58,2.58,0,0,1-.08-.26l-.18,0,.18-.72c.12-.5.23-1,.32-1.49s.16-1,.23-1.52.11-1,.14-1.53,0-1,0-1.54,0-1.05,0-1.54-.08-1-.14-1.53-.14-1-.23-1.51-.2-1-.32-1.49a1.62,1.62,0,0,1,.1-1.07,1.68,1.68,0,0,1,.72-.75l6.73-3.88a1,1,0,0,0,.28-.25.88.88,0,0,0,.17-.35,1.25,1.25,0,0,0,0-.38,1.09,1.09,0,0,0-.12-.36c-1.64-2.44-3.29-5.71-4.82-8.33a1,1,0,0,0-.24-.29,1.14,1.14,0,0,0-.35-.17,1.29,1.29,0,0,0-.39,0,.93.93,0,0,0-.35.13l-6.8,3.92a1.55,1.55,0,0,1-1,.2,1.57,1.57,0,0,1-.92-.45,25.67,25.67,0,0,0-2.33-2,24.48,24.48,0,0,0-2.55-1.69,24.86,24.86,0,0,0-2.73-1.37,27.25,27.25,0,0,0-2.88-1,1.57,1.57,0,0,1-1.17-1.54v-7.85a.91.91,0,0,0-.08-.37.93.93,0,0,0-.21-.32,1,1,0,0,0-.32-.21.86.86,0,0,0-.36-.07h-9.63a.87.87,0,0,0-.37.07,1,1,0,0,0-.32.21,1,1,0,0,0-.29.69v7.85a1.59,1.59,0,0,1-1.24,1.56Zm-3.38-.3a28.48,28.48,0,0,0-2.87,1.44,25.92,25.92,0,0,0-5.17,3.9.22.22,0,0,1-.11.05.27.27,0,0,1-.12,0l-6.86-4a2.61,2.61,0,0,0-.86-.27,2.48,2.48,0,0,0-.9.07,2.52,2.52,0,0,0-.84.41,2.43,2.43,0,0,0-.61.7c-1.66,2.69-3.23,5.6-4.82,8.34a2.35,2.35,0,0,0-.23,1.82,2.35,2.35,0,0,0,1.11,1.45c2.19,1.35,4.56,2.64,6.8,3.93a.16.16,0,0,1,.07.09.16.16,0,0,1,0,.12l-.15.63h0c-.07.31-.14.62-.19.94-.1.55-.19,1.08-.25,1.61s-.11,1.05-.14,1.61-.06,1.09-.06,1.62,0,1.07.06,1.63.08,1.09.14,1.61.15,1.06.25,1.6.21,1.07.34,1.58a.16.16,0,0,1,0,.12.18.18,0,0,1-.08.09c-2.5,1.34-5,2.91-7.5,4.33l.09.11-.08.1a2.48,2.48,0,0,0-.48,1.77,2.41,2.41,0,0,0,.3.89l5.18,9,.09-.06.16.13a2.19,2.19,0,0,0,.84.41,2.25,2.25,0,0,0,.93.07,2.55,2.55,0,0,0,.87-.29c2.26-1.2,4.59-2.65,6.82-3.94a.25.25,0,0,1,.12,0,.22.22,0,0,1,.11,0,27.38,27.38,0,0,0,2.46,2.11,29.52,29.52,0,0,0,2.71,1.79,26.71,26.71,0,0,0,5.93,2.52.18.18,0,0,1,.1.07.15.15,0,0,1,0,.11v7.85a2.35,2.35,0,0,0,.71,1.69,2.38,2.38,0,0,0,.77.52,2.32,2.32,0,0,0,.92.18h9.63a2.34,2.34,0,0,0,1.68-.7,2.35,2.35,0,0,0,.71-1.69v-7.85a.16.16,0,0,1,0-.12.17.17,0,0,1,.1-.06h0a28.51,28.51,0,0,0,3-1.08,26.45,26.45,0,0,0,2.87-1.43,29.52,29.52,0,0,0,2.71-1.79,27.38,27.38,0,0,0,2.46-2.11.18.18,0,0,1,.11,0,.15.15,0,0,1,.13,0l6.79,3.92a2.42,2.42,0,0,0,.88.3,2.28,2.28,0,0,0,.94-.07,2.19,2.19,0,0,0,.84-.41,2.47,2.47,0,0,0,.6-.68c1.79-2.87,3.47-6,5.18-9l-.1-.06a1.7,1.7,0,0,0,0-.22,2.23,2.23,0,0,0-.06-.93,2.43,2.43,0,0,0-.41-.84,2.32,2.32,0,0,0-.7-.62l-6.8-3.92a.16.16,0,0,1-.07-.09.17.17,0,0,1,0-.12l.17-.72h0c.06-.28.12-.57.17-.86.1-.54.19-1.07.25-1.6s.11-1.06.14-1.61,0-1.1,0-1.63,0-1.07,0-1.62-.08-1.09-.14-1.62-.15-1.05-.25-1.6-.21-1.06-.34-1.57a.2.2,0,0,1,0-.13.18.18,0,0,1,.08-.09l6.79-3.92a2.3,2.3,0,0,0,.7-.61,2.52,2.52,0,0,0,.41-.84,2.24,2.24,0,0,0,.06-.93,2.34,2.34,0,0,0-.28-.87c-1.62-3-3.47-6-5.19-9l-.09.06-.16-.14a2.52,2.52,0,0,0-.84-.41,2.43,2.43,0,0,0-.93-.06,2.39,2.39,0,0,0-.89.29l-.5.29h0l-6.3,3.63a.18.18,0,0,1-.12,0l-.11-.05,0,0a26.17,26.17,0,0,0-2.46-2.1,26.63,26.63,0,0,0-2.69-1.78,25.1,25.1,0,0,0-2.89-1.44,27.46,27.46,0,0,0-3-1.08.15.15,0,0,1-.1-.07.15.15,0,0,1,0-.11v-7.85a2.3,2.3,0,0,0-.71-1.69,2.41,2.41,0,0,0-1.68-.71h-9.63a2.33,2.33,0,0,0-.92.19,2.54,2.54,0,0,0-.78.52,2.39,2.39,0,0,0-.7,1.69v7.85a.19.19,0,0,1,0,.12.17.17,0,0,1-.1.06h0A26.43,26.43,0,0,0,636.65,195.55Z"/><path class="cls-4" d="M658.32,305.28Zm3.39-12.89a6.51,6.51,0,1,1-1.91,4.6,6.5,6.5,0,0,1,1.91-4.6Zm1.41-6.46a11.85,11.85,0,0,0-2.56,1.08,12.42,12.42,0,0,0-2.24,1.69.39.39,0,0,1-.48.06l-3-1.75h0a.75.75,0,0,0-.55-.06.76.76,0,0,0-.46.35v0L651.65,291a.76.76,0,0,0-.07.57.79.79,0,0,0,.35.46h0l3,1.73a.4.4,0,0,1,.19.44h0a10.48,10.48,0,0,0-.25,1.38,11,11,0,0,0,0,2.81,10,10,0,0,0,.25,1.37.42.42,0,0,1-.21.46l-3,1.73h0a.73.73,0,0,0-.35.46.77.77,0,0,0,.07.57l2.14,3.71h0a.75.75,0,0,0,.46.34.72.72,0,0,0,.57-.07h0l3-1.74a.39.39,0,0,1,.47.06,11.44,11.44,0,0,0,4.81,2.78.4.4,0,0,1,.29.39v3.49a.75.75,0,0,0,.75.75h4.29a.75.75,0,0,0,.75-.75v-3.49a.4.4,0,0,1,.31-.39,11.53,11.53,0,0,0,2.55-1.09,11.26,11.26,0,0,0,2.24-1.69.39.39,0,0,1,.5,0l3,1.73a.68.68,0,0,0,.57.07.72.72,0,0,0,.46-.34v0L681,303h0a.82.82,0,0,0,.08-.57.77.77,0,0,0-.35-.46l-3-1.75a.41.41,0,0,1-.19-.44h0a11.85,11.85,0,0,0,.26-1.37,12.38,12.38,0,0,0,0-2.81,12.45,12.45,0,0,0-.26-1.38.41.41,0,0,1,.21-.45l3-1.73a.8.8,0,0,0,.35-.46A.81.81,0,0,0,681,291v0l-2.13-3.69h0a.73.73,0,0,0-.46-.35.77.77,0,0,0-.57.07h0l-3,1.75a.41.41,0,0,1-.49-.06,11.33,11.33,0,0,0-4.8-2.78.39.39,0,0,1-.29-.38v-3.49a.75.75,0,0,0-.75-.75h-4.29a.75.75,0,0,0-.75.75v3.49A.4.4,0,0,1,663.12,285.93Z"/><path class="cls-3" d="M401,39.21h34.73a3.25,3.25,0,0,1,2.08.75,1,1,0,0,1,.41.31.94.94,0,0,1,.14.26,3.27,3.27,0,0,1,.65,2V62.9a3.27,3.27,0,0,1-1,2.31h0a3.29,3.29,0,0,1-2.32,1H401a3.28,3.28,0,0,1-3.28-3.28V42.49a3.28,3.28,0,0,1,.65-2,1.57,1.57,0,0,1,.14-.25,1,1,0,0,1,.41-.31,3.25,3.25,0,0,1,2.08-.75ZM436.2,64.1,422.44,53.59,419,56.21h0l-.08.06h-.16l-.11,0h0l-.11,0h-.27l-.11,0h0l-.12,0h-.15l-.09-.06h0l-3.44-2.62L400.57,64.1a1.13,1.13,0,0,0,.45.09h34.73a1.13,1.13,0,0,0,.45-.09ZM423.67,52.65,437,62.87V42.44L423.67,52.65ZM399.73,62.87l13.38-10.22L399.73,42.44V62.87Zm18.66-8.69,17-13h-34Z"/><path class="cls-3" d="M86.29,144.34a20.24,20.24,0,0,1,3.14-6.8,11.27,11.27,0,0,1,2.17-2.3,1.33,1.33,0,0,1,.76-.3h0a1.33,1.33,0,0,1,.79.19,13.16,13.16,0,0,1,3,2.42,10.53,10.53,0,0,1,2,3,9.19,9.19,0,0,1,.75,3.56,6.89,6.89,0,0,1-.77,3.31h0l-12,20.76a6.85,6.85,0,0,1-2.49,2.35,9,9,0,0,1-3.48,1.15,10.38,10.38,0,0,1-3.59-.21A13.25,13.25,0,0,1,73,170.11a1.36,1.36,0,0,1-.58-.56h0a1.37,1.37,0,0,1-.17-.77h0a12.36,12.36,0,0,1,1.72-4.7,21.56,21.56,0,0,1,3.5-4.52,1.31,1.31,0,0,1,.78-.4,1.34,1.34,0,0,1,.89.16c.06,0,3.3,1.89,4.11.53l6.15-10.65c.34-.59-.13-1.32-.72-1.92a8.7,8.7,0,0,0-1.77-1.38,1.35,1.35,0,0,1-.58-.65,1.38,1.38,0,0,1-.07-.9Zm4.4-5.89a18.7,18.7,0,0,0-2.86,6.16,10.64,10.64,0,0,1,2,1.57c1,1,1.75,2.39.94,3.79l-6.15,10.66c-1.45,2.45-5.37.49-6.1.1a19.93,19.93,0,0,0-3.17,4.12,11.5,11.5,0,0,0-1.51,3.93,11.78,11.78,0,0,0,3.1,1.21,9,9,0,0,0,3.06.17,7.46,7.46,0,0,0,2.89-.95,5.19,5.19,0,0,0,1.93-1.78l12-20.75h0a5.15,5.15,0,0,0,.57-2.55,7.56,7.56,0,0,0-.62-3,9,9,0,0,0-1.69-2.57,11.7,11.7,0,0,0-2.59-2.07A9.79,9.79,0,0,0,90.69,138.45Z"/><path class="cls-4" d="M671.39,385.09a1.12,1.12,0,0,0-2.24,0v2.63h-2.63a1.12,1.12,0,0,0,0,2.23h2.63v2.63a1.12,1.12,0,0,0,2.24,0V390H674a1.12,1.12,0,1,0,0-2.23h-2.62Z"/><path class="cls-4" d="M313.3,232a1.12,1.12,0,0,0-2.23,0v2.63h-2.63a1.12,1.12,0,1,0,0,2.24h2.63v2.62a1.12,1.12,0,1,0,2.23,0v-2.62h2.63a1.12,1.12,0,1,0,0-2.24H313.3Z"/><path class="cls-4" d="M189.3,248.43a1.12,1.12,0,0,0-2.24,0v2.63h-2.62a1.12,1.12,0,0,0,0,2.24h2.62v2.62a1.12,1.12,0,0,0,2.24,0V253.3h2.63a1.12,1.12,0,0,0,0-2.24H189.3Z"/><path class="cls-4" d="M314.57,28.27a1.12,1.12,0,1,0-2.24,0v2.62H309.7a1.12,1.12,0,0,0,0,2.24h2.63v2.63a1.12,1.12,0,0,0,2.24,0V33.13h2.62a1.12,1.12,0,1,0,0-2.24h-2.62Z"/><path class="cls-4" d="M141.22,131.63a1.12,1.12,0,0,0-2.24,0v2.62h-2.63a1.12,1.12,0,0,0,0,2.24H139v2.63a1.12,1.12,0,0,0,2.24,0v-2.63h2.63a1.12,1.12,0,0,0,0-2.24h-2.63Z"/><path class="cls-4" d="M123.5,21.54a1.12,1.12,0,0,0-2.23,0v2.63h-2.63a1.12,1.12,0,0,0,0,2.24h2.63V29a1.12,1.12,0,1,0,2.23,0V26.41h2.63a1.12,1.12,0,1,0,0-2.24H123.5Z"/><path class="cls-4" d="M64,236.65a1.12,1.12,0,1,0-2.23,0v2.63H59.17a1.12,1.12,0,1,0,0,2.23H61.8v2.63a1.12,1.12,0,1,0,2.23,0v-2.63h2.63a1.12,1.12,0,1,0,0-2.23H64Z"/><path class="cls-4" d="M604.32,143a1.12,1.12,0,0,0-2.23,0v2.63h-2.63a1.12,1.12,0,0,0,0,2.24h2.63v2.63a1.12,1.12,0,0,0,2.23,0v-2.63H607a1.12,1.12,0,0,0,0-2.24h-2.63Z"/><path class="cls-4" d="M618.24,288.53a1.12,1.12,0,1,0-2.23,0v2.62h-2.63a1.12,1.12,0,1,0,0,2.24H616V296a1.12,1.12,0,0,0,2.23,0v-2.63h2.63a1.12,1.12,0,1,0,0-2.24h-2.63Z"/><path class="cls-11" d="M342.35,191.44a1.12,1.12,0,0,0-2.23,0v2.63h-2.63a1.12,1.12,0,0,0,0,2.24h2.63v2.62a1.12,1.12,0,1,0,2.23,0v-2.62H345a1.12,1.12,0,0,0,0-2.24h-2.63Z"/><path class="cls-11" d="M261.37,109.2a1.12,1.12,0,1,0-2.23,0v2.63h-2.63a1.12,1.12,0,1,0,0,2.23h2.63v2.63a1.12,1.12,0,1,0,2.23,0v-2.63H264a1.12,1.12,0,1,0,0-2.23h-2.63Z"/><path class="cls-11" d="M408.15,126.91a1.12,1.12,0,1,0-2.24,0v2.63h-2.62a1.12,1.12,0,1,0,0,2.23h2.62v2.63a1.12,1.12,0,0,0,2.24,0v-2.63h2.63a1.12,1.12,0,0,0,0-2.23h-2.63Z"/><path class="cls-11" d="M480.27,354.67a1.12,1.12,0,1,0-2.23,0v2.63h-2.63a1.12,1.12,0,1,0,0,2.23H478v2.63a1.12,1.12,0,1,0,2.23,0v-2.63h2.63a1.12,1.12,0,1,0,0-2.23h-2.63Z"/><path class="cls-11" d="M633.38,353.4a1.12,1.12,0,0,0-2.24,0V356h-2.63a1.12,1.12,0,0,0,0,2.24h2.63v2.62a1.12,1.12,0,1,0,2.24,0v-2.62H636a1.12,1.12,0,0,0,0-2.24h-2.62Z"/></g></svg>