<?xml version="1.0" encoding="utf-8"?>
<!-- Generator: Adobe Illustrator 25.2.0, SVG Export Plug-In . SVG Version: 6.00 Build 0)  -->
<svg version="1.1" xmlns="http://www.w3.org/2000/svg" xmlns:xlink="http://www.w3.org/1999/xlink" x="0px" y="0px"
	 viewBox="0 0 750 500" style="enable-background:new 0 0 750 500;" xml:space="preserve">
<style type="text/css">
	.st0{fill:#FFFFFF;}
	.st1{fill:#FAE1CF;}
	.st2{fill:#FCEBE0;}
	.st3{fill:#F0CEBA;}
	.st4{fill:#016BE3;}
	.st5{fill:#221B22;}
	.st6{fill:#FE5736;}
	.st7{fill:#F7C12D;}
	.st8{fill:#B11722;}
	.st9{fill:#DC5F34;}
	.st10{fill:#F2D15A;}
	.st11{fill:#F79E0B;}
	.st12{fill:#E7E2E8;}
	.st13{fill:#D1CAD3;}
	.st14{fill:#0236A5;}
	.st15{fill:#F4A390;}
	.st16{fill:#4C414C;}
	.st17{fill:#870020;}
	.st18{fill:#ED727E;}
	.st19{fill:#D6A793;}
</style>
<g id="BACKGROUND">
	<g>
		<g>
			<g>
				<rect class="st0" width="750" height="500"/>
			</g>
		</g>
		<path class="st0" d="M750,247.4c0,0-58.8-31.2-86.5,8.8c-32.3,46.6,33.2,134-26,152S435,408.8,389.1,500H750V247.4z"/>
		<path class="st0" d="M452.4,0c-17.5,27.6-75.3,45.6-170.1,44.2c-138-2-80.1,116.8-180,179.2c-32,20-76,26.8-102.2,23.1V0H452.4z"
			/>
	</g>
</g>
<g id="OBJECTS">
	<g>
		<g>
			
				<image style="overflow:visible;opacity:0.5;" width="2839" height="1855" xlink:href="28A4E96B.png"  transform="matrix(0.24 0 0 0.24 35 26.575)">
			</image>
			<g>
				<path class="st0" d="M698.2,439c0,5.8-4.7,10.6-10.6,10.6l-470.8,0l-153.1,0c-5.8,0-10.6-4.7-10.6-10.6v-56.6l0-257.3V51.4
					c0-5.8,4.7-10.6,10.6-10.6l220.5,0l403.3,0c5.8,0,10.6,4.7,10.6,10.6L698.2,439z"/>
			</g>
		</g>
		<path class="st0" d="M182.9,349c-0.2,0-0.3-0.1-0.5-0.2c-0.3-0.3-0.3-0.7,0-0.9l3-3l-3.1-3.1c-0.3-0.3-0.3-0.7,0-0.9
			c0.3-0.3,0.7-0.3,0.9,0l3.6,3.6c0.3,0.3,0.3,0.7,0,0.9l-3.4,3.4C183.3,349,183.1,349,182.9,349z"/>
		<ellipse class="st1" cx="510.9" cy="407.6" rx="169.6" ry="8.1"/>
		<path class="st2" d="M509.9,244H352.6c-2.3,0-4.2-1.9-4.2-4.2v-92.2c0-2.3,1.9-4.2,4.2-4.2h157.2c2.3,0,4.2,1.9,4.2,4.2v92.2
			C514.1,242.2,512.2,244,509.9,244z"/>
		<path class="st3" d="M504.2,167.5h-51.3c-0.4,0-0.7-0.3-0.7-0.7s0.3-0.7,0.7-0.7h51.3c0.4,0,0.7,0.3,0.7,0.7
			S504.6,167.5,504.2,167.5z"/>
		<path class="st3" d="M504.2,178.2h-51.3c-0.4,0-0.7-0.3-0.7-0.7c0-0.4,0.3-0.7,0.7-0.7h51.3c0.4,0,0.7,0.3,0.7,0.7
			C505,177.9,504.6,178.2,504.2,178.2z"/>
		<path class="st3" d="M504.2,188.9h-51.3c-0.4,0-0.7-0.3-0.7-0.7c0-0.4,0.3-0.7,0.7-0.7h51.3c0.4,0,0.7,0.3,0.7,0.7
			C505,188.6,504.6,188.9,504.2,188.9z"/>
		<path class="st3" d="M504.2,199.6h-51.3c-0.4,0-0.7-0.3-0.7-0.7c0-0.4,0.3-0.7,0.7-0.7h51.3c0.4,0,0.7,0.3,0.7,0.7
			C505,199.3,504.6,199.6,504.2,199.6z"/>
		<path class="st3" d="M504.2,210.3h-51.3c-0.4,0-0.7-0.3-0.7-0.7s0.3-0.7,0.7-0.7h51.3c0.4,0,0.7,0.3,0.7,0.7
			S504.6,210.3,504.2,210.3z"/>
		<path class="st3" d="M504.2,221h-51.3c-0.4,0-0.7-0.3-0.7-0.7s0.3-0.7,0.7-0.7h51.3c0.4,0,0.7,0.3,0.7,0.7S504.6,221,504.2,221z"
			/>
		<path class="st3" d="M504.2,231.7h-51.3c-0.4,0-0.7-0.3-0.7-0.7c0-0.4,0.3-0.7,0.7-0.7h51.3c0.4,0,0.7,0.3,0.7,0.7
			C505,231.4,504.6,231.7,504.2,231.7z"/>
		<path class="st4" d="M433.3,231h-60.2c-5.2,0-9.3-4.2-9.3-9.3v-47c0-5.2,4.2-9.3,9.3-9.3h60.2c5.2,0,9.3,4.2,9.3,9.3v47
			C442.6,226.8,438.5,231,433.3,231z"/>
		<path class="st0" d="M436.3,174h-5.5c-0.4,0-0.7,0.3-0.8,0.6l-0.8,2.9h-50.4c-0.3,0-0.5,0.1-0.7,0.3c-0.2,0.2-0.2,0.4-0.2,0.7
			l0.8,5.8c0,0.1,0,0.1,0,0.2c0,0.2,0,0.3,0.1,0.4l1,7.3l0.2,1.7l1,6.9l0.2,1.7l0.9,6.1c0.1,0.4,0.4,0.7,0.9,0.7h37.3l-1.2,4.4
			c-0.6,2-2.4,3.5-4.6,3.5H388c-0.5,0-0.9,0.3-0.9,0.8c0,0.5,0.4,1,0.9,1h3.3c-0.9,0.6-1.6,1.7-1.6,2.9c0,1.9,1.5,3.4,3.4,3.4
			c1.9,0,3.4-1.5,3.4-3.4c0-1.2-0.6-2.3-1.6-2.9h15c-0.9,0.6-1.6,1.7-1.6,2.9c0,1.9,1.5,3.4,3.4,3.4s3.4-1.5,3.4-3.4
			c0-1.2-0.6-2.3-1.6-2.9h0.9c2.9,0,5.5-1.9,6.2-4.7l1.5-5.4c0,0,0,0,0,0l0,0c0,0,0-0.1,0-0.1l1.7-6.2l0.5-1.7l1.9-6.9l0.5-1.7
			l2-7.1l0.2-0.9v0l1.6-5.7c0,0,0-0.1,0-0.1l0.8-2.8h4.8c0.5,0,0.9-0.4,0.9-0.9S436.8,174,436.3,174z M422,203.4L422,203.4
			c0,0,0,0.1,0,0.1l-1.2,4.3h-37l-0.7-5.1h39.2L422,203.4z M422.7,201h-39.9l-1-6.9h42.8L422.7,201z M425.1,192.3h-43.5l-1-6.9H427
			L425.1,192.3z M427.5,183.7h-47.1l-0.6-4.4h48.9L427.5,183.7z"/>
		<path class="st5" d="M514.1,147.4v5.9H348.4v-5.9c0-2.2,1.8-3.9,3.9-3.9h157.8C512.3,143.5,514.1,145.3,514.1,147.4z"/>
		<circle class="st4" cx="490.1" cy="148.4" r="2.3"/>
		<circle class="st6" cx="498.2" cy="148.4" r="2.3"/>
		<circle class="st7" cx="506.2" cy="148.4" r="2.3"/>
		<polygon class="st8" points="419.3,406.1 354.8,406.1 363.7,334.4 410.4,334.4 		"/>
		<polygon class="st9" points="416,406.1 351.5,406.1 360.4,334.4 407.1,334.4 		"/>
		<path class="st8" d="M384.1,355c-9.1,0-16.4,7.4-16.4,16.4c0,9.1,7.4,16.4,16.4,16.4c9.1,0,16.4-7.4,16.4-16.4
			C400.5,362.4,393.2,355,384.1,355z M384.8,377.5v-5.8h7.4c0,2-0.3,4-0.9,5.8H384.8z M389.4,384.1c1.2-1.5,2.2-3.3,2.9-5.2h5
			c-2.1,3.8-5.7,6.4-9.8,7.3C388.1,385.5,388.8,384.8,389.4,384.1z M390.9,378.8c-0.6,1.6-1.4,3.1-2.5,4.4c-1.6,2-3.1,3-3.6,3.3
			l0-7.7H390.9z M384.8,363.4v-7c0.2,0,0.4,0,0.6,0c0.8,0.7,3.4,3.1,5.1,7H384.8z M391.9,363.4c-0.6-1.4-1.3-2.8-2.2-4
			c-0.6-0.9-1.3-1.8-2.1-2.6c3.8,0.9,7.1,3.3,9.2,6.6H391.9z M384.8,370.4v-5.8h6.3c0.7,1.9,1.1,3.8,1.1,5.8H384.8z M393.5,370.4
			c-0.1-2-0.4-3.9-1.1-5.8h5.2c0.9,1.8,1.4,3.7,1.6,5.8H393.5z M399.2,371.8c0,2-0.5,3.9-1.3,5.8h-5.2c0.5-1.8,0.8-3.7,0.8-5.8
			H399.2z M375.7,377.5h-5.4c-0.8-1.8-1.2-3.8-1.3-5.8h5.8C374.9,373.8,375.2,375.7,375.7,377.5z M377.9,363.4
			c0.5-1.1,1.1-2.2,1.8-3.2c1.4-2,2.8-3.2,3.3-3.7c0.1,0,0.3,0,0.4,0v7H377.9z M383.4,364.7v5.8h-7.3c0.1-2,0.5-3.9,1.1-5.8H383.4z
			 M371.4,363.4c2.1-3.4,5.5-5.8,9.4-6.6c-0.8,0.8-1.5,1.7-2.1,2.6c-0.9,1.3-1.6,2.6-2.2,4H371.4z M383.4,371.8v5.8h-6.4
			c-0.5-1.8-0.8-3.7-0.9-5.8H383.4z M369,370.4c0.1-2,0.7-3.9,1.6-5.8h5.3c-0.6,1.9-1,3.8-1.1,5.8H369z M376.1,378.8
			c0.7,1.9,1.6,3.7,2.9,5.2c0.6,0.8,1.3,1.5,2,2.2c-4.2-0.9-7.9-3.6-10-7.4H376.1z M383.4,378.8v7.6c-1-0.6-4.1-2.9-5.9-7.6H383.4z"
			/>
		<path class="st8" d="M375.7,338c0,1.2-1,2.2-2.2,2.2c-1.2,0-2.2-1-2.2-2.2c0-1.2,1-2.2,2.2-2.2C374.7,335.8,375.7,336.8,375.7,338
			z"/>
		<path class="st8" d="M398.3,338c0,1.2-1,2.2-2.2,2.2c-1.2,0-2.2-1-2.2-2.2c0-1.2,1-2.2,2.2-2.2C397.3,335.8,398.3,336.8,398.3,338
			z"/>
		<path class="st5" d="M373.6,337.7L373.6,337.7c-0.5,0-0.9-0.4-0.9-1c0.1-2.2,0.5-8.1,1.7-14c2.1-10.3,5.7-15.5,10.6-15.5
			c4.9,0,8.4,5.2,10.4,15.5c1.1,5.8,1.4,11.7,1.5,14c0,0.5-0.4,0.9-0.9,0.9l0,0c-0.5,0-0.9-0.4-0.9-0.9c-0.2-8.5-2.3-27.7-10-27.7
			c-7.7,0-10.2,19.2-10.5,27.7C374.5,337.4,374.1,337.7,373.6,337.7z"/>
		<path class="st5" d="M377.7,337.7L377.7,337.7c-0.5,0-0.9-0.4-0.9-0.9c0.1-2.2,0.5-7.9,1.7-13.5c2.1-9.9,5.5-15,10.3-15
			c4.8,0,8.1,5,10,15c1.1,5.6,1.3,11.4,1.4,13.5c0,0.5-0.4,0.9-0.9,0.9l0,0c-0.5,0-0.9-0.4-0.9-0.9c-0.2-8.2-2.2-26.8-9.7-26.8
			c-7.5,0-9.8,18.6-10.2,26.8C378.6,337.4,378.2,337.7,377.7,337.7z"/>
		<rect x="443.7" y="355" class="st7" width="67.3" height="51.1"/>
		<rect x="441.4" y="352.5" class="st10" width="71.8" height="8.5"/>
		<rect x="443.7" y="361" class="st11" width="67.3" height="4.7"/>
		<rect x="474.4" y="352.5" class="st0" width="5.9" height="53.7"/>
		<rect x="474.4" y="365.7" class="st12" width="5.9" height="40.6"/>
		<rect x="474.4" y="361" class="st13" width="5.9" height="4.7"/>
		<path class="st5" d="M410.5,367.4L410.5,367.4c-0.4,0-0.7-0.5-0.7-1.1c0.1-2,0.5-6.3,1.8-10.7c2.3-7.8,6.5-12,12-12
			c5.5,0,9.6,4.1,11.8,12c1.2,4.4,1.5,8.7,1.6,10.7c0,0.6-0.3,1.1-0.7,1.1l0,0c-0.4,0-0.7-0.4-0.7-1c-0.1-1.8-0.4-6-1.5-10
			c-2-7.1-5.5-10.7-10.5-10.7c-5,0-8.6,3.6-10.7,10.7c-1.2,4.1-1.6,8.2-1.7,10C411.2,367,410.9,367.4,410.5,367.4z"/>
		<polygon class="st14" points="456.1,406.2 389.9,406.2 396,359.5 450,359.5 		"/>
		<polygon class="st4" points="452.6,406.2 386.4,406.2 392.5,359.5 446.5,359.5 		"/>
		<path class="st14" d="M427.8,384.9c-0.8-1.8-2.6-2.7-4.5-3.2c-2.1-0.7-4.3-0.9-5.2-1.5c-0.3-0.2-0.4-0.4-0.4-0.7
			c0-0.6,0.6-1.1,2.2-1.2h0c0.1,0,0.2,0,0.3,0c1.6,0,3.3,0.5,5,1.4c0.1,0.1,0.3,0.1,0.4,0.2l0.5-1.1l1.6-3.6c-1-0.6-2.2-1.1-3.5-1.4
			c-0.7-0.2-1.4-0.3-2.2-0.4l0.1-1.8l0-1.2l-3.9-0.1l-0.1,3c-4.6,0.5-7,3.1-7.1,6.3c0,1.1,0.2,1.9,0.6,2.7c0.5,0.9,1.3,1.6,2.2,2.2
			c1.6,0.9,3.5,1.3,5.1,1.7c1.6,0.4,2.8,0.7,2.8,1.6c0,0.7-0.7,1-2.6,1c-0.8,0-1.6-0.1-2.4-0.3c-1.4-0.3-2.8-0.9-4-1.6l-2.3,4.7
			c0.6,0.4,1.3,0.8,2.2,1.1c1.5,0.5,3.2,0.9,5,1.1l0,1.7l0,1.3l3.9,0.1l0.1-3.1c4.4-0.6,6.6-3.2,6.7-6.2
			C428.3,386.4,428.1,385.6,427.8,384.9z"/>
		<path class="st14" d="M434.4,363.8c0,1.2-0.9,2.2-2.1,2.2c-1.2,0-2.1-1-2.1-2.2c0-1.2,0.9-2.2,2.1-2.2
			C433.4,361.5,434.4,362.5,434.4,363.8z"/>
		<path class="st14" d="M408.8,363.8c0,1.2-0.9,2.2-2.1,2.2c-1.2,0-2.1-1-2.1-2.2c0-1.2,0.9-2.2,2.1-2.2
			C407.9,361.5,408.8,362.5,408.8,363.8z"/>
		<path class="st5" d="M406.6,364.4c0.4,0,0.7-0.3,0.7-0.6c0.2-2.1,0.7-4.9,1.5-7.8c2.1-7.1,5.7-10.7,10.7-10.7
			c5,0,8.5,3.6,10.5,10.7c0.8,2.9,1.2,5.8,1.4,7.8c0,0.4,0.3,0.6,0.7,0.6l0,0c0.4,0,0.7-0.3,0.7-0.8c-0.2-2.2-0.6-5.3-1.5-8.5
			c-2.2-7.8-6.3-12-11.8-12c-5.5,0-9.6,4.1-12,12c-0.9,3.1-1.4,6.3-1.6,8.5C405.9,364,406.2,364.4,406.6,364.4L406.6,364.4z"/>
		<path class="st2" d="M591.5,270.9h-64c-1.6,0-2.9-1.3-2.9-2.9V146.4c0-1.6,1.3-2.9,2.9-2.9h64c1.6,0,2.9,1.3,2.9,2.9v121.5
			C594.4,269.6,593.1,270.9,591.5,270.9z"/>
		<path class="st3" d="M584.8,238.5h-50.6c-0.4,0-0.7-0.3-0.7-0.7s0.3-0.7,0.7-0.7h50.6c0.4,0,0.7,0.3,0.7,0.7
			S585.2,238.5,584.8,238.5z"/>
		<path class="st3" d="M584.8,244.3h-50.6c-0.4,0-0.7-0.3-0.7-0.7s0.3-0.7,0.7-0.7h50.6c0.4,0,0.7,0.3,0.7,0.7
			S585.2,244.3,584.8,244.3z"/>
		<path class="st3" d="M584.8,250h-50.6c-0.4,0-0.7-0.3-0.7-0.7s0.3-0.7,0.7-0.7h50.6c0.4,0,0.7,0.3,0.7,0.7S585.2,250,584.8,250z"
			/>
		<path class="st3" d="M584.8,255.8h-50.6c-0.4,0-0.7-0.3-0.7-0.7s0.3-0.7,0.7-0.7h50.6c0.4,0,0.7,0.3,0.7,0.7
			S585.2,255.8,584.8,255.8z"/>
		<path class="st3" d="M584.8,261.5h-50.6c-0.4,0-0.7-0.3-0.7-0.7c0-0.4,0.3-0.7,0.7-0.7h50.6c0.4,0,0.7,0.3,0.7,0.7
			C585.5,261.2,585.2,261.5,584.8,261.5z"/>
		<path class="st6" d="M582.4,221.9c0,0-0.1,0.2-0.4,0.4c-0.4,0.4-1,1-1.9,1.7c-1.2,1-2.8,2.2-5,3.2c-0.6,0.3-1.2,0.6-1.8,0.8
			c-1.1,0.5-2.3,0.9-3.7,1.3c-0.5,0.1-1.1,0.3-1.6,0.4c-2.5,0.6-5.3,0.9-8.5,0.9c-3,0-5.8-0.4-8.3-1.1h0c-0.7-0.2-1.4-0.4-2.1-0.6
			c-4.4-1.5-7.7-3.7-9.8-5.3c-0.9-0.7-1.6-1.4-2.1-1.8c-0.4-0.4-0.6-0.6-0.6-0.6s0.8-1.2,2.1-3c0.3-0.4,0.6-0.9,0.9-1.4
			c1-1.5,2.2-3.3,3.4-5.2c0.4-0.6,0.7-1.2,1.1-1.8v0c2.1-3.5,4.1-7,5-9.6c0.1-0.2,0.1-0.3,0.2-0.5c0.1-0.4,0.2-0.8,0.3-1.2v0
			c0.2-1.1,0.2-2.3,0.1-3.5c-0.1-0.7-0.2-1.4-0.3-2.2c-0.8-4.4-2.9-8.8-3.7-10.6c-0.3-0.5-0.4-0.8-0.4-0.8c0,0,0-0.1,0.1-0.1
			c3.9-5.3,2.8-13.8,2.2-17.2l1.5-1.2c1.1-0.8,2.6-0.4,3.1,0.9c0.7,2,1.8,4.2,3.5,5.7c0.6,0.5,1.3,1,2.1,1.3
			c0.8,0.3,1.6,0.5,2.5,0.5c0.3,0,0.6,0,0.9-0.1c1-0.1,1.8-0.5,2.6-1c1.7-1.1,2.8-2.9,3.6-4.7c0.2-0.5,0.4-1.1,0.5-1.6
			c0-0.1,0.1-0.2,0.1-0.3c0.5-1,1.7-1.6,2.8-1.2l0.8,0.3c-0.1,6,0.8,10.4,1.7,13.4c0.2,0.5,0.3,0.9,0.5,1.4c0.7,1.8,1.2,2.7,1.2,2.7
			c0,0-0.1,0.2-0.3,0.6c-0.2,0.5-0.6,1.3-1,2.4c-0.7,1.8-1.5,4.2-2.3,7.1c-0.8,2.7-0.8,5.9-0.4,9.2c0.4,3.3,1.8,6.8,3.4,10.1
			c0.4,0.8,0.8,1.5,1.2,2.2c2.3,4.1,4.8,7.4,6,8.9C582.1,221.6,582.4,221.9,582.4,221.9z"/>
		<path class="st8" d="M551.8,165.3c0,0.8-0.6,1.4-1.4,1.4c-0.8,0-1.4-0.6-1.4-1.4c0-0.8,0.6-1.4,1.4-1.4
			C551.2,163.9,551.8,164.5,551.8,165.3z"/>
		<path class="st8" d="M570,165.3c0,0.8-0.6,1.4-1.4,1.4c-0.5,0-1-0.3-1.2-0.7c0.2-0.5,0.4-1.1,0.5-1.6c0-0.1,0.1-0.2,0.1-0.3
			c0.2-0.1,0.4-0.1,0.6-0.1C569.3,163.9,570,164.5,570,165.3z"/>
		<path class="st8" d="M551.8,171c0,0.8-0.6,1.4-1.4,1.4c-0.8,0-1.4-0.6-1.4-1.4c0-0.8,0.6-1.4,1.4-1.4
			C551.2,169.6,551.8,170.3,551.8,171z"/>
		<path class="st8" d="M557.8,171.2c-0.1,0.7-0.7,1.2-1.4,1.2c-0.8,0-1.4-0.6-1.4-1.4c0-0.5,0.2-0.9,0.6-1.1
			C556.3,170.4,557,170.9,557.8,171.2z"/>
		<path class="st8" d="M563.9,171c0,0.8-0.6,1.4-1.4,1.4c-0.6,0-1-0.3-1.2-0.8c1-0.1,1.8-0.5,2.6-1
			C563.9,170.7,563.9,170.9,563.9,171z"/>
		<path class="st8" d="M570,171c0,0.8-0.6,1.4-1.4,1.4c-0.8,0-1.4-0.6-1.4-1.4c0-0.8,0.6-1.4,1.4-1.4C569.3,169.6,570,170.3,570,171
			z"/>
		<path class="st8" d="M551.8,176.8c0,0.8-0.6,1.4-1.4,1.4c-0.8,0-1.4-0.6-1.4-1.4c0-0.8,0.6-1.4,1.4-1.4
			C551.2,175.4,551.8,176,551.8,176.8z"/>
		<circle class="st8" cx="556.5" cy="176.8" r="1.4"/>
		<circle class="st8" cx="562.5" cy="176.8" r="1.4"/>
		<path class="st8" d="M570,176.8c0,0.8-0.6,1.4-1.4,1.4c-0.8,0-1.4-0.6-1.4-1.4c0-0.8,0.6-1.4,1.4-1.4
			C569.3,175.4,570,176,570,176.8z"/>
		<path class="st8" d="M573.8,177.8c-0.3-0.3-0.5-0.6-0.5-1.1c0-0.1,0-0.2,0-0.3C573.5,177,573.6,177.4,573.8,177.8z"/>
		<path class="st8" d="M545.7,182.5c-0.3-0.5-0.4-0.8-0.4-0.8c0,0,0-0.1,0.1-0.1C545.6,181.9,545.7,182.2,545.7,182.5z"/>
		<path class="st8" d="M551.8,182.5c0,0.8-0.6,1.4-1.4,1.4c-0.8,0-1.4-0.6-1.4-1.4c0-0.8,0.6-1.4,1.4-1.4
			C551.2,181.2,551.8,181.8,551.8,182.5z"/>
		<circle class="st8" cx="556.5" cy="182.5" r="1.4"/>
		<circle class="st8" cx="562.5" cy="182.5" r="1.4"/>
		<path class="st8" d="M570,182.5c0,0.8-0.6,1.4-1.4,1.4c-0.8,0-1.4-0.6-1.4-1.4c0-0.8,0.6-1.4,1.4-1.4
			C569.3,181.2,570,181.8,570,182.5z"/>
		<path class="st8" d="M574.8,181.2c-0.2,0.5-0.6,1.3-1,2.4c-0.3-0.2-0.5-0.6-0.5-1.1c0-0.8,0.6-1.4,1.4-1.4
			C574.7,181.2,574.7,181.2,574.8,181.2z"/>
		<path class="st8" d="M551.8,188.3c0,0.8-0.6,1.4-1.4,1.4c-0.8,0-1.4-0.6-1.4-1.4c0-0.8,0.6-1.4,1.4-1.4
			C551.2,186.9,551.8,187.5,551.8,188.3z"/>
		<path class="st8" d="M557.8,188.3c0,0.8-0.6,1.4-1.4,1.4c-0.8,0-1.4-0.6-1.4-1.4c0-0.8,0.6-1.4,1.4-1.4
			C557.2,186.9,557.8,187.5,557.8,188.3z"/>
		<path class="st8" d="M563.9,188.3c0,0.8-0.6,1.4-1.4,1.4c-0.8,0-1.4-0.6-1.4-1.4c0-0.8,0.6-1.4,1.4-1.4
			C563.3,186.9,563.9,187.5,563.9,188.3z"/>
		<path class="st8" d="M570,188.3c0,0.8-0.6,1.4-1.4,1.4c-0.8,0-1.4-0.6-1.4-1.4c0-0.8,0.6-1.4,1.4-1.4
			C569.3,186.9,570,187.5,570,188.3z"/>
		<path class="st8" d="M551.8,194c0,0.8-0.6,1.4-1.4,1.4c-0.2,0-0.5-0.1-0.7-0.2c-0.1-0.7-0.2-1.4-0.3-2.2c0.2-0.2,0.6-0.4,1-0.4
			C551.2,192.7,551.8,193.3,551.8,194z"/>
		<path class="st8" d="M557.8,194c0,0.8-0.6,1.4-1.4,1.4c-0.8,0-1.4-0.6-1.4-1.4c0-0.8,0.6-1.4,1.4-1.4
			C557.2,192.7,557.8,193.3,557.8,194z"/>
		<path class="st8" d="M563.9,194c0,0.8-0.6,1.4-1.4,1.4c-0.8,0-1.4-0.6-1.4-1.4c0-0.8,0.6-1.4,1.4-1.4
			C563.3,192.7,563.9,193.3,563.9,194z"/>
		<path class="st8" d="M570,194c0,0.8-0.6,1.4-1.4,1.4c-0.8,0-1.4-0.6-1.4-1.4c0-0.8,0.6-1.4,1.4-1.4C569.3,192.7,570,193.3,570,194
			z"/>
		<path class="st8" d="M551.8,199.8c0,0.8-0.6,1.4-1.4,1.4c-0.6,0-1.1-0.3-1.3-0.8c0.1-0.2,0.1-0.3,0.2-0.5c0.1-0.4,0.2-0.8,0.3-1.2
			v0c0.2-0.2,0.5-0.3,0.8-0.3C551.2,198.4,551.8,199,551.8,199.8z"/>
		<circle class="st8" cx="556.5" cy="199.8" r="1.4"/>
		<circle class="st8" cx="562.5" cy="199.8" r="1.4"/>
		<path class="st8" d="M570,199.8c0,0.8-0.6,1.4-1.4,1.4c-0.8,0-1.4-0.6-1.4-1.4s0.6-1.4,1.4-1.4C569.3,198.4,570,199.1,570,199.8z"
			/>
		<path class="st8" d="M551.8,205.6c0,0.8-0.6,1.4-1.4,1.4c-0.8,0-1.4-0.6-1.4-1.4c0-0.8,0.6-1.4,1.4-1.4
			C551.2,204.2,551.8,204.8,551.8,205.6z"/>
		<circle class="st8" cx="556.5" cy="205.6" r="1.4"/>
		<circle class="st8" cx="562.5" cy="205.6" r="1.4"/>
		<path class="st8" d="M570,205.6c0,0.8-0.6,1.4-1.4,1.4c-0.8,0-1.4-0.6-1.4-1.4c0-0.8,0.6-1.4,1.4-1.4
			C569.3,204.2,570,204.8,570,205.6z"/>
		<path class="st8" d="M545.7,211.3c0,0.8-0.6,1.4-1.4,1.4c-0.6,0-1.1-0.4-1.3-0.9c0.4-0.6,0.7-1.2,1.1-1.8v0c0.1,0,0.1,0,0.2,0
			C545.1,210,545.7,210.6,545.7,211.3z"/>
		<path class="st8" d="M551.8,211.3c0,0.8-0.6,1.4-1.4,1.4c-0.8,0-1.4-0.6-1.4-1.4c0-0.8,0.6-1.4,1.4-1.4
			C551.2,210,551.8,210.6,551.8,211.3z"/>
		<path class="st8" d="M557.8,211.3c0,0.8-0.6,1.4-1.4,1.4c-0.8,0-1.4-0.6-1.4-1.4c0-0.8,0.6-1.4,1.4-1.4
			C557.2,210,557.8,210.6,557.8,211.3z"/>
		<path class="st8" d="M563.9,211.3c0,0.8-0.6,1.4-1.4,1.4c-0.8,0-1.4-0.6-1.4-1.4c0-0.8,0.6-1.4,1.4-1.4
			C563.3,210,563.9,210.6,563.9,211.3z"/>
		<path class="st8" d="M570,211.3c0,0.8-0.6,1.4-1.4,1.4c-0.8,0-1.4-0.6-1.4-1.4c0-0.8,0.6-1.4,1.4-1.4
			C569.3,210,570,210.6,570,211.3z"/>
		<path class="st8" d="M575.7,212.2c-0.3,0.3-0.6,0.5-1,0.5c-0.8,0-1.4-0.6-1.4-1.4c0-0.7,0.5-1.3,1.2-1.4
			C574.9,210.7,575.3,211.5,575.7,212.2z"/>
		<path class="st8" d="M539.7,217.1c0,0.6-0.4,1.1-0.9,1.3C539,217.9,539.3,217.5,539.7,217.1C539.7,217,539.7,217.1,539.7,217.1z"
			/>
		<circle class="st8" cx="544.3" cy="217.1" r="1.4"/>
		<path class="st8" d="M551.8,217.1c0,0.8-0.6,1.4-1.4,1.4c-0.8,0-1.4-0.6-1.4-1.4c0-0.8,0.6-1.4,1.4-1.4
			C551.2,215.7,551.8,216.3,551.8,217.1z"/>
		<circle class="st8" cx="556.5" cy="217.1" r="1.4"/>
		<circle class="st8" cx="562.5" cy="217.1" r="1.4"/>
		<path class="st8" d="M570,217.1c0,0.8-0.6,1.4-1.4,1.4c-0.8,0-1.4-0.6-1.4-1.4c0-0.8,0.6-1.4,1.4-1.4
			C569.3,215.7,570,216.3,570,217.1z"/>
		<circle class="st8" cx="574.6" cy="217.1" r="1.4"/>
		<path class="st8" d="M539.7,222.8c0,0.4-0.1,0.7-0.4,0.9c-0.9-0.7-1.6-1.4-2.1-1.8c0.3-0.3,0.6-0.5,1.1-0.5
			C539,221.5,539.7,222.1,539.7,222.8z"/>
		<circle class="st8" cx="544.3" cy="222.8" r="1.4"/>
		<path class="st8" d="M551.8,222.8c0,0.8-0.6,1.4-1.4,1.4c-0.8,0-1.4-0.6-1.4-1.4c0-0.8,0.6-1.4,1.4-1.4
			C551.2,221.5,551.8,222.1,551.8,222.8z"/>
		<circle class="st8" cx="556.5" cy="222.8" r="1.4"/>
		<circle class="st8" cx="562.5" cy="222.8" r="1.4"/>
		<path class="st8" d="M570,222.8c0,0.8-0.6,1.4-1.4,1.4c-0.8,0-1.4-0.6-1.4-1.4c0-0.8,0.6-1.4,1.4-1.4
			C569.3,221.5,570,222.1,570,222.8z"/>
		<circle class="st8" cx="574.6" cy="222.8" r="1.4"/>
		<path class="st8" d="M582,222.3c-0.4,0.4-1,1-1.9,1.7c-0.5-0.2-0.8-0.7-0.8-1.2c0-0.8,0.6-1.4,1.4-1.4
			C581.3,221.5,581.8,221.8,582,222.3z"/>
		<path class="st8" d="M551.8,228.6c0,0.5-0.2,0.9-0.6,1.1h0c-0.7-0.2-1.4-0.4-2.1-0.6c-0.1-0.1-0.1-0.3-0.1-0.5
			c0-0.8,0.6-1.4,1.4-1.4C551.2,227.2,551.8,227.8,551.8,228.6z"/>
		<path class="st8" d="M557.8,228.6c0,0.8-0.6,1.4-1.4,1.4c-0.8,0-1.4-0.6-1.4-1.4c0-0.8,0.6-1.4,1.4-1.4
			C557.2,227.2,557.8,227.8,557.8,228.6z"/>
		<path class="st8" d="M563.9,228.6c0,0.8-0.6,1.4-1.4,1.4c-0.8,0-1.4-0.6-1.4-1.4c0-0.8,0.6-1.4,1.4-1.4
			C563.3,227.2,563.9,227.8,563.9,228.6z"/>
		<path class="st8" d="M570,228.6c0,0.3-0.1,0.6-0.3,0.8c-0.5,0.1-1.1,0.3-1.6,0.4c-0.5-0.2-0.8-0.7-0.8-1.3c0-0.8,0.6-1.4,1.4-1.4
			C569.3,227.2,570,227.8,570,228.6z"/>
		<path class="st8" d="M575.1,227.3c-0.6,0.3-1.2,0.6-1.8,0.8c0.2-0.5,0.7-0.9,1.3-0.9C574.8,227.2,575,227.3,575.1,227.3z"/>
		<path class="st5" d="M594.4,146.4v6.9h-69.9v-6.9c0-1.6,1.3-2.9,2.9-2.9h64.1C593.1,143.5,594.4,144.8,594.4,146.4z"/>
		<path class="st4" d="M576.6,148.4c0,1.2-0.9,2.1-2.1,2.1s-2.1-0.9-2.1-2.1c0-1.2,0.9-2.1,2.1-2.1S576.6,147.2,576.6,148.4z"/>
		<path class="st6" d="M584,148.4c0,1.2-0.9,2.1-2.1,2.1s-2.1-0.9-2.1-2.1c0-1.2,0.9-2.1,2.1-2.1S584,147.2,584,148.4z"/>
		<path class="st7" d="M591.4,148.4c0,1.2-0.9,2.1-2.1,2.1s-2.1-0.9-2.1-2.1c0-1.2,0.9-2.1,2.1-2.1S591.4,147.2,591.4,148.4z"/>
		<path class="st14" d="M668.8,407.6c0.2,0,0.3,0,0.5-0.1c0.7-0.3,1-1,0.8-1.7l-26.8-68c-0.3-0.7-1-1-1.7-0.8c-0.7,0.3-1,1-0.8,1.7
			l26.8,68C667.8,407.3,668.3,407.6,668.8,407.6z"/>
		<path class="st14" d="M597.9,407.6c0.5,0,1-0.3,1.2-0.8l26.8-68c0.3-0.7-0.1-1.5-0.8-1.7c-0.7-0.3-1.5,0.1-1.7,0.8l-26.8,68
			c-0.3,0.7,0.1,1.5,0.8,1.7C597.6,407.6,597.8,407.6,597.9,407.6z"/>
		<path class="st14" d="M610.3,376.2c0.1,0,0.3,0,0.4-0.1l40.5-14.2c0.7-0.2,1.1-1,0.8-1.7c-0.2-0.7-1-1.1-1.7-0.8l-40.5,14.2
			c-0.7,0.2-1.1,1-0.8,1.7C609.2,375.8,609.7,376.2,610.3,376.2z"/>
		<path class="st14" d="M656.4,376.2c0.6,0,1.1-0.3,1.3-0.9c0.2-0.7-0.1-1.5-0.8-1.7l-40.5-14.2c-0.7-0.2-1.5,0.1-1.7,0.8
			c-0.2,0.7,0.1,1.5,0.8,1.7l40.5,14.2C656.1,376.1,656.3,376.2,656.4,376.2z"/>
		<path class="st14" d="M618.8,407.6c0.2,0,0.3,0,0.5-0.1c0.7-0.3,1-1,0.8-1.7l-26.8-68c-0.3-0.7-1-1-1.7-0.8c-0.7,0.3-1,1-0.8,1.7
			l26.8,68C617.8,407.3,618.3,407.6,618.8,407.6z"/>
		<path class="st14" d="M547.9,407.6c0.5,0,1-0.3,1.2-0.8l26.8-68c0.3-0.7-0.1-1.5-0.8-1.7c-0.7-0.3-1.5,0.1-1.7,0.8l-26.8,68
			c-0.3,0.7,0.1,1.5,0.8,1.7C547.6,407.6,547.7,407.6,547.9,407.6z"/>
		<path class="st14" d="M560.3,376.2c0.1,0,0.3,0,0.4-0.1l40.5-14.2c0.7-0.2,1.1-1,0.8-1.7c-0.2-0.7-1-1.1-1.7-0.8l-40.5,14.2
			c-0.7,0.2-1.1,1-0.8,1.7C559.2,375.8,559.7,376.2,560.3,376.2z"/>
		<path class="st14" d="M606.4,376.2c0.6,0,1.1-0.3,1.3-0.9c0.2-0.7-0.1-1.5-0.8-1.7l-40.5-14.2c-0.7-0.2-1.5,0.1-1.7,0.8
			c-0.2,0.7,0.1,1.5,0.8,1.7l40.5,14.2C606.1,376.1,606.3,376.2,606.4,376.2z"/>
		<path class="st4" d="M551.9,339.9c0,0,56.4,32.3,92.2,6.2c1.4-1,2.8-2.2,4.2-3.4c0.5-0.4,0.9-0.9,1.4-1.3
			c30.5-29.8-8.4-77.7-8.4-77.7c-1,0.4-2,0.9-3,1.3c-0.4,0.2-0.7,0.3-1.1,0.5C581.4,290.6,551.9,339.9,551.9,339.9z"/>
		<path class="st14" d="M648,283c4.7,9.3,9.8,23.3,7.7,36.8c-1.8,11.8-6.1,20.3-11.6,26.4c1.4-1,2.8-2.2,4.2-3.4
			c4.3-6.2,7.2-13.8,8.6-22.8c0.9-6.1,0.5-12.8-1.2-19.9c-1.4-5.7-3.6-11.6-6.6-17.6c-4.9-9.8-10.3-16.7-10.8-17.4
			c-0.4,0.2-0.7,0.3-1.1,0.5c0,0.1,0.1,0.1,0.1,0.2C637.3,265.8,643,272.8,648,283z"/>
		<path class="st14" d="M630.4,292.5c0,0,10.9,29.6,0.5,43c-10.4,13.4-34.3,19.7-69-0.5L630.4,292.5z"/>
		<path class="st7" d="M594.6,245.4l-0.1,0.5l-0.1,0.6c-0.1,0.4-0.1,0.9-0.2,1.3c-0.2,0.9-0.3,1.8-0.5,2.7c-0.4,1.8-0.8,3.7-1.3,5.5
			c-1,3.7-2.2,7.3-3.6,10.8c-0.7,1.8-1.4,3.5-2.2,5.3c-0.8,1.7-1.6,3.4-2.5,5.1c-0.2,0.4-0.4,0.8-0.7,1.3c-0.2,0.4-0.4,0.8-0.7,1.3
			c-0.5,0.8-0.9,1.7-1.4,2.5c-0.2,0.4-0.5,0.8-0.7,1.2l-0.8,1.2l-0.2,0.3l-0.1,0.2l0,0c0,0,0,0,0,0l0-0.1c0.1-0.1,0.1-0.1,0.1-0.2
			c0,0,0.1-0.1,0.1-0.1c0.1-0.1,0.1,0,0,0.1c-0.2,0.2-0.8,0.5-1.4,0.9c-0.6,0.3-1.4,0.7-2.1,1c-1.6,0.6-3.3,1.2-5.1,1.8
			c-1.8,0.5-3.7,1-5.6,1.5c-1.9,0.5-3.8,0.9-5.8,1.3c-3.9,0.8-7.8,1.5-11.8,2.2c-2,0.3-4,0.6-6,0.9l-3,0.4l-1.5,0.2l-1.5,0.2
			l1.2,13.6l1.6-0.1l1.6-0.1c1.1-0.1,2.1-0.2,3.2-0.2c2.1-0.2,4.2-0.4,6.3-0.6c4.2-0.4,8.4-0.9,12.6-1.6c4.2-0.7,8.5-1.4,12.8-2.5
			c2.2-0.5,4.4-1.2,6.7-2c1.1-0.4,2.3-0.9,3.5-1.4c1.2-0.6,2.5-1.2,3.9-2.3c0.7-0.5,1.5-1.1,2.3-2c0.2-0.2,0.4-0.4,0.6-0.7
			c0.2-0.3,0.4-0.5,0.6-0.8l0.2-0.3l0.1-0.2l0.2-0.3l0.9-1.4c0.3-0.5,0.6-0.9,0.9-1.4c0.6-0.9,1.2-1.9,1.8-2.8
			c0.3-0.5,0.6-1,0.9-1.4c0.3-0.5,0.6-1,0.8-1.4l0.8-1.5c0.3-0.5,0.5-1,0.8-1.5c0.5-1,1-2,1.5-3c1-2,1.9-4,2.8-6.1
			c1.7-4.1,3.2-8.3,4.5-12.5c0.6-2.1,1.2-4.3,1.7-6.5c0.2-1.1,0.5-2.2,0.7-3.3c0.1-0.6,0.2-1.1,0.3-1.7l0.1-0.9l0.1-0.5l0.1-0.6
			L594.6,245.4z"/>
		<path class="st11" d="M584.5,289.9c0.2,0,0.3,0,0.4-0.1c0.2-0.2,0.2-0.5,0-0.7c-2.3-2.5-4.6-4.3-4.7-4.4c-0.2-0.2-0.5-0.1-0.7,0.1
			c-0.2,0.2-0.1,0.5,0.1,0.7c0,0,2.3,1.8,4.5,4.3C584.3,289.8,584.4,289.9,584.5,289.9z"/>
		<path class="st11" d="M583.6,286.3c0.3,0.1,0.5-0.1,0.6-0.4c0.1-0.3-0.1-0.5-0.4-0.6c0,0-1.9-0.5-3.6-0.8
			c-0.3-0.1-0.5,0.1-0.6,0.4c-0.1,0.3,0.1,0.5,0.4,0.6C581.7,285.8,583.6,286.3,583.6,286.3C583.6,286.3,583.6,286.3,583.6,286.3z"
			/>
		<path class="st11" d="M545.2,309.7c0,0,0.1,0,0.1,0c0.3,0,0.5-0.3,0.5-0.6l-1.5-15.9c0-0.3-0.3-0.5-0.6-0.5
			c-0.3,0-0.5,0.3-0.5,0.6l1.5,15.9C544.8,309.5,545,309.7,545.2,309.7z"/>
		<path class="st11" d="M537.2,306c0,0,0.1,0,0.2,0l7.3-0.8c0.3,0,0.5-0.3,0.4-0.6c0-0.3-0.3-0.5-0.6-0.4l-7.3,0.8
			c-0.3,0-0.5,0.3-0.4,0.6C536.8,305.8,537,306,537.2,306z"/>
		<path class="st11" d="M539.4,300.9c-0.2,0.6,0,1.3,0.6,1.5c0.6,0.2,1.3,0,1.5-0.6c0.2-0.6,0-1.3-0.6-1.5
			C540.4,300,539.7,300.3,539.4,300.9z"/>
		<polygon class="st15" points="540.1,387.3 537.3,394.7 526.6,393.2 528.8,385.3 		"/>
		<path class="st5" d="M498.7,406.5l38.8,5.4c0.4-0.5,0.6-1.2,0.8-2.1c0.7-3.2,0.4-8.6,0.3-12c0-0.4,0-0.8,0-1.1c0-0.6,0-1,0.1-1.4
			c0.4-2.7-2.1-2.6-2.1-2.6c-4.5,3.3-8.1-3.1-11-1.6c0,0-1.2,0.6-4.7,3c-3.5,2.3-9,3.4-13.7,4.7c-6.1,1.6-8.1,3.8-8.6,5.4
			C498.3,405.6,498.7,406.5,498.7,406.5z"/>
		<path class="st16" d="M498.7,406.5l38.8,5.4c0.4-0.5,0.6-1.2,0.8-2.1l-39.6-5.5C498.3,405.6,498.7,406.5,498.7,406.5z"/>
		<path class="st0" d="M524.9,392.8c0,0-0.5-1.8-2.1-1.5c-1.6,0.3-1.8,2.9-1.8,2.9S521.6,396.7,524.9,392.8z"/>
		<path class="st0" d="M524.3,400.5c0.4,0,0.7-0.2,0.7-0.6c0.5-3.9-1.6-6.3-1.7-6.4c-0.2-0.3-0.6-0.3-0.9-0.1
			c-0.3,0.2-0.3,0.6-0.1,0.9c0.1,0.1,1.8,2.1,1.4,5.3C523.7,400.1,523.9,400.5,524.3,400.5z"/>
		<path class="st0" d="M516.9,394.4c0.2,0,0.3,0,0.4-0.1c0.9-0.6,3.3-0.4,4.6-0.1c0.3,0.1,0.7-0.2,0.8-0.5c0.1-0.3-0.2-0.7-0.5-0.8
			c-0.4-0.1-3.9-0.8-5.6,0.3c-0.3,0.2-0.4,0.6-0.2,0.9C516.6,394.2,516.7,394.3,516.9,394.4z"/>
		<path class="st0" d="M522.8,393l0.3,0.4c0,0,0,0,0,0l0,0l-0.4,1.3c0,0,0.1,0,0.1,0c0.2,0.1,0.6,0.2,1.2,0.2c0.1,0,0.2,0,0.3,0
			c0.7,0.1,1.6,0.2,2.9,0.2c1.7,0,3.1-0.5,3.9-1.3c0.2-0.2,0.3-0.4,0.4-0.6c0,0,0-0.1,0.1-0.1c0.3-0.7,0.2-1.4-0.2-2
			c-0.5-0.6-1.1-1-1.9-1.1l-0.1,0c-0.6-0.1-1.2,0-1.9,0.1c-1.2,0.3-2.5,0.9-3.4,1.5c-0.1,0-0.1,0.1-0.2,0.1
			c-0.4,0.2-0.7,0.4-0.9,0.6c-0.2,0.1-0.3,0.2-0.4,0.3L522.8,393z M524.2,393.6c-0.2,0-0.3,0-0.5-0.1c0.3-0.2,0.7-0.5,1.1-0.7
			c0.7-0.4,1.4-0.8,2.2-1c0.4-0.1,0.8-0.3,1.2-0.3c0.3-0.1,0.6-0.1,0.9,0l0,0c0.4,0.1,0.7,0.2,1,0.6c0.1,0.2,0.2,0.4,0.1,0.6
			c0,0,0,0.1,0,0.1c-0.2,0.3-0.7,0.7-1.4,0.9c-0.5,0.1-1,0.2-1.7,0.2C525.8,393.8,524.8,393.7,524.2,393.6z"/>
		<path class="st0" d="M521.6,393.9l0.8-1.2c-1.2-0.8-2.2-2.5-2-3.5c0.1-0.2,0.2-0.5,0.8-0.6c0.4-0.1,0.6,0.1,0.7,0.2
			c0.6,0.6,0.6,2.4,0.4,3.4l1.4,0.2c0.1-0.3,0.5-3.3-0.8-4.6c-0.3-0.4-1-0.7-1.9-0.6c-1.4,0.2-1.9,1.1-2,1.7
			C518.7,390.6,520.1,392.9,521.6,393.9z"/>
		<path class="st16" d="M533.6,411.4l1.2,0.2c-1-1.5-1.8-3.6-1.2-6.5c0.7-3.8,3.4-6.1,5.2-7.2c0-0.4,0-0.8,0-1.1
			c-1.9,1.1-5.2,3.6-6.1,8.1C532.1,407.6,532.7,409.8,533.6,411.4z"/>
		<path class="st0" d="M521.3,396.6c0.3,0,0.6-0.1,0.7-0.4c0.1-0.3,0-0.7-0.4-0.8l-2.3-0.9c-0.3-0.1-0.7,0-0.8,0.4
			c-0.1,0.3,0,0.7,0.4,0.8l2.3,0.9C521.2,396.6,521.3,396.6,521.3,396.6z"/>
		<path class="st0" d="M518.7,397.7c0.3,0,0.6-0.1,0.7-0.4c0.1-0.3,0-0.7-0.4-0.8l-2.3-0.9c-0.3-0.1-0.7,0-0.8,0.4
			c-0.1,0.3,0,0.7,0.4,0.8l2.3,0.9C518.6,397.7,518.7,397.7,518.7,397.7z"/>
		<path class="st0" d="M516.1,398.7c0.3,0,0.6-0.1,0.7-0.4c0.1-0.3,0-0.7-0.4-0.8l-2.3-0.9c-0.3-0.1-0.7,0-0.8,0.4
			c-0.1,0.3,0,0.7,0.4,0.8l2.3,0.9C516,398.7,516,398.7,516.1,398.7z"/>
		<path class="st0" d="M513.3,399.6c0.3,0,0.6-0.1,0.7-0.4c0.1-0.3,0-0.7-0.4-0.8l-2.3-0.9c-0.3-0.1-0.7,0-0.8,0.4
			c-0.1,0.3,0,0.7,0.4,0.8l2.3,0.9C513.2,399.6,513.2,399.6,513.3,399.6z"/>
		<path class="st0" d="M510.3,400.3c0.3,0,0.6-0.1,0.7-0.4c0.1-0.3,0-0.7-0.4-0.8l-2.3-0.9c-0.3-0.1-0.7,0-0.8,0.4
			c-0.1,0.3,0,0.7,0.4,0.8l2.3,0.9C510.2,400.2,510.2,400.3,510.3,400.3z"/>
		<polygon class="st15" points="499.6,382.9 495.5,387.9 486.4,382.3 490.5,377.3 		"/>
		<path class="st5" d="M455.5,383.4l33.4,20.4c0.5-0.3,1.1-0.9,1.6-1.6c1.9-2.7,3.8-7.8,5.1-10.9c0.1-0.4,0.3-0.7,0.4-1
			c0.2-0.5,0.4-0.9,0.6-1.2c1.4-2.3-0.9-3.2-0.9-3.2c-5.4,1.3-6.2-6.1-9.4-5.8c0,0-1.4,0.1-5.5,0.9c-4.1,0.8-9.6-0.4-14.4-1.2
			c-6.2-1-8.9,0.3-10,1.5C455.4,382.4,455.5,383.4,455.5,383.4z"/>
		<path class="st16" d="M455.5,383.4l33.4,20.4c0.5-0.3,1.1-0.9,1.6-1.6l-34.2-20.9C455.4,382.4,455.5,383.4,455.5,383.4z"/>
		<path class="st0" d="M484.9,381.2c0,0,0.3-1.8-1.3-2.2c-1.6-0.3-2.8,1.9-2.8,1.9S480.4,383.5,484.9,381.2z"/>
		<path class="st0" d="M481.3,388.1c0.3,0.2,0.7,0.1,0.9-0.2c2-3.3,1.1-6.4,1-6.5c-0.1-0.3-0.5-0.5-0.8-0.4
			c-0.3,0.1-0.5,0.5-0.4,0.8c0,0.1,0.8,2.7-0.9,5.4C480.9,387.5,481,387.9,481.3,388.1z"/>
		<path class="st0" d="M477,379.5c0.1,0.1,0.3,0.1,0.5,0.1c1.1-0.2,3.2,0.9,4.3,1.7c0.3,0.2,0.7,0.1,0.9-0.2
			c0.2-0.3,0.1-0.7-0.2-0.9c-0.3-0.2-3.3-2.3-5.3-1.9c-0.4,0.1-0.6,0.4-0.5,0.7C476.8,379.2,476.9,379.4,477,379.5z"/>
		<path class="st0" d="M483,380.6l0.1,0.5c0,0,0,0,0,0l0,0l-0.9,1c0,0,0,0,0.1,0.1c0.2,0.1,0.5,0.4,1,0.7c0.1,0,0.1,0.1,0.2,0.1
			c0.6,0.4,1.4,0.8,2.6,1.3c1.6,0.7,3.1,0.8,4.1,0.4c0.2-0.1,0.4-0.2,0.6-0.4c0,0,0.1-0.1,0.1-0.1c0.5-0.5,0.8-1.2,0.6-1.9
			c-0.2-0.8-0.6-1.4-1.3-1.8l0,0c-0.5-0.3-1.1-0.5-1.8-0.6c-1.2-0.2-2.6-0.1-3.7,0c-0.1,0-0.2,0-0.3,0c-0.4,0.1-0.8,0.1-1.1,0.2
			c-0.2,0-0.4,0.1-0.5,0.1L483,380.6z M484,381.7c-0.2-0.1-0.3-0.2-0.4-0.3c0.4-0.1,0.8-0.1,1.3-0.2c0.7-0.1,1.6-0.1,2.4-0.1
			c0.4,0,0.8,0.1,1.2,0.2c0.3,0.1,0.6,0.2,0.9,0.3l0,0c0.4,0.2,0.6,0.5,0.7,0.9c0.1,0.2,0,0.4-0.1,0.6c0,0-0.1,0.1-0.1,0.1
			c-0.3,0.2-0.9,0.4-1.6,0.3c-0.5-0.1-1-0.2-1.6-0.5C485.4,382.5,484.6,382,484,381.7z"/>
		<path class="st0" d="M481.5,381l1.2-0.8c-0.8-1.2-1-3.2-0.4-4c0.1-0.2,0.4-0.4,1-0.2c0.4,0.1,0.5,0.3,0.6,0.5
			c0.3,0.8-0.4,2.4-1,3.2l1.2,0.8c0.2-0.3,1.8-2.8,1.1-4.5c-0.2-0.5-0.6-1.1-1.5-1.3c-1.4-0.4-2.2,0.3-2.5,0.7
			C480.1,376.8,480.6,379.5,481.5,381z"/>
		<path class="st16" d="M485.5,401.7l1,0.6c-0.3-1.7-0.2-4,1.5-6.5c2.2-3.2,5.5-4.2,7.6-4.5c0.1-0.4,0.3-0.7,0.4-1
			c-2.2,0.2-6.2,1.2-8.8,5C485.6,397.7,485.3,399.9,485.5,401.7z"/>
		<path class="st0" d="M480.2,383.3c0.2,0.2,0.6,0.1,0.8-0.1c0.3-0.3,0.3-0.7,0-0.9l-1.8-1.8c-0.2-0.3-0.7-0.3-0.9,0
			c-0.3,0.3-0.3,0.7,0,0.9l1.8,1.8C480.1,383.3,480.1,383.3,480.2,383.3z"/>
		<path class="st0" d="M477.3,383.3c0.2,0.2,0.6,0.1,0.8-0.1c0.3-0.3,0.3-0.7,0-0.9l-1.8-1.8c-0.2-0.3-0.7-0.3-0.9,0
			c-0.3,0.3-0.3,0.7,0,0.9l1.8,1.8C477.3,383.2,477.3,383.2,477.3,383.3z"/>
		<path class="st0" d="M474.5,383.1c0.2,0.2,0.6,0.1,0.8-0.1c0.3-0.3,0.3-0.7,0-0.9l-1.8-1.8c-0.3-0.3-0.7-0.3-0.9,0
			c-0.3,0.3-0.3,0.7,0,0.9l1.8,1.8C474.5,383.1,474.5,383.1,474.5,383.1z"/>
		<path class="st0" d="M471.6,382.8c0.2,0.2,0.6,0.1,0.8-0.1c0.3-0.3,0.3-0.7,0-0.9l-1.8-1.8c-0.3-0.3-0.7-0.3-0.9,0
			c-0.3,0.3-0.3,0.7,0,0.9l1.8,1.8C471.5,382.8,471.6,382.8,471.6,382.8z"/>
		<path class="st0" d="M468.6,382.2c0.2,0.2,0.6,0.1,0.8-0.1c0.3-0.3,0.3-0.7,0-0.9l-1.8-1.8c-0.3-0.3-0.7-0.3-0.9,0
			c-0.3,0.3-0.3,0.7,0,0.9l1.8,1.8C468.5,382.2,468.5,382.2,468.6,382.2z"/>
		<path class="st8" d="M533.3,306.3c4.1-2.7,61.4-5.9,78.4,2.6c1.3,4.4-26.8,15.8-35.1,23.9c-24.4-0.7-39.1,4.6-39.1,4.6
			s-12.2,17.7-18.5,23.9c-6.4,6.1-19.7,24-19.7,24l-11.9-8.7C487.5,376.6,522.2,313.7,533.3,306.3z"/>
		<path class="st17" d="M504.3,378.5c0.2,0,0.4,0,0.5-0.2c0.2-0.2,0.1-0.5-0.1-0.7l-12.3-8.4c-0.2-0.2-0.5-0.1-0.7,0.1
			c-0.2,0.2-0.1,0.5,0.1,0.7l12.3,8.4C504.2,378.4,504.2,378.5,504.3,378.5z"/>
		<path class="st17" d="M501.1,376.3c0.2,0,0.4,0,0.5-0.2c0.1-0.1,1.6-2.2,11.7-13.3c11-12.1,23.3-30.2,23.4-30.4
			c0.2-0.2,0.1-0.5-0.1-0.7c-0.2-0.2-0.5-0.1-0.7,0.1c-0.1,0.2-12.3,18.3-23.3,30.3c-10.3,11.2-11.7,13.3-11.8,13.4
			c-0.2,0.2-0.1,0.5,0.1,0.7C501,376.2,501,376.2,501.1,376.3z"/>
		<path class="st6" d="M631.8,308.2c0,0,10.7,44.6-41.1,37.6c-23.3-3.1-33.7-8.9-33.7-8.9s-4.5,20.3-7.3,28.7
			c-2.8,8.4-8.9,23.1-8.9,23.1l-13.8-2.7c0,0,6.7-64,19.2-68.7c12.5-4.7,32.9-6.1,60.9-3.4C607.1,314,627.3,309.4,631.8,308.2z"/>
		<path class="st8" d="M540.5,381c0.2,0,0.5-0.1,0.6-0.3c3.9-9.5,7-21.7,9.4-31.4c2-8.1,4-15.8,5.2-16.5c1-0.6,4.4,0.7,8.8,2.3
			c8.6,3.2,21.7,8.1,37.2,7.5c8.5-0.3,15.2-3.1,20-8.2c8.2-8.9,7.8-22,7.8-22.1c0-0.3-0.2-0.5-0.5-0.5c-0.3,0-0.5,0.2-0.5,0.5
			c0,0.1,0.4,12.8-7.6,21.4c-4.6,5-11.1,7.6-19.2,7.9c-15.3,0.6-28.2-4.3-36.8-7.4c-5.1-1.9-8.2-3.1-9.6-2.2
			c-1.5,0.9-3,6.5-5.7,17.1c-2.5,9.7-5.5,21.9-9.4,31.3C540.1,380.6,540.2,380.9,540.5,381C540.5,381,540.5,381,540.5,381z"/>
		<path class="st8" d="M528.2,378.6C528.2,378.6,528.2,378.6,528.2,378.6l15.5,2.7c0.3,0,0.5-0.1,0.6-0.4c0-0.3-0.1-0.5-0.4-0.6
			l-15.5-2.7c-0.3,0-0.5,0.1-0.6,0.4C527.7,378.3,527.9,378.6,528.2,378.6z"/>
		<path class="st5" d="M594.4,316.2l-53.7-2.2c-0.6,0-1.1-0.6-1.1-1.2l0.2-5c0-0.6,0.6-1.1,1.2-1.1l53.7,2.2c0.6,0,1.1,0.6,1.1,1.2
			l-0.2,5C595.5,315.7,595,316.2,594.4,316.2z"/>
		<path class="st5" d="M533.7,313.7c-2.1-0.1-3.9-1.6-4.4-3.6l-8.9-39.6c-0.5-2.4,1.4-4.7,3.8-4.6l25.1,1c1.7,0.1,3.1,1.3,3.5,2.9
			l10.7,45.2L533.7,313.7z"/>
		<path class="st7" d="M536.3,290.3c0.6,2.6,2.9,4.9,5.3,5.1c2.3,0.2,3.7-1.7,3.2-4.3c-0.6-2.6-2.9-4.9-5.3-5.1
			C537.1,285.7,535.7,287.7,536.3,290.3z"/>
		<path class="st5" d="M541,289.8c0.1,0.5,0.4,1,0.6,1c0.2,0,0.3-0.4,0.2-0.9c-0.1-0.5-0.4-1-0.6-1C541,288.9,540.9,289.3,541,289.8
			z"/>
		<path class="st5" d="M538.8,289.6c0.1,0.5,0.4,1,0.6,1c0.2,0,0.3-0.4,0.2-0.9c-0.1-0.5-0.4-1-0.6-1
			C538.8,288.7,538.7,289.1,538.8,289.6z"/>
		<path class="st5" d="M541,292.9c1.8,0.2,1.8-1.8,1.8-1.8c0-0.1-0.1-0.2-0.2-0.3c-0.1,0-0.2,0-0.2,0.1c0,0.1,0,1.7-1.5,1.6
			c-1.5-0.1-2.2-1.8-2.3-1.9c0-0.1-0.2-0.2-0.3-0.2c-0.1,0-0.1,0.1-0.1,0.2C538.3,290.7,539.2,292.8,541,292.9z"/>
		<path class="st5" d="M552.9,269.7l10.6,44.8l2.9,0.1l-10.6-44.8c-0.4-1.6-1.8-2.8-3.5-2.9l-2.9-0.1
			C551.1,266.9,552.5,268.1,552.9,269.7z"/>
		<path class="st16" d="M562.8,311.7c-0.2,0-0.4-0.1-0.4-0.3l-9.9-41.6c-0.1-0.2,0.1-0.4,0.3-0.5c0.2-0.1,0.4,0.1,0.5,0.3l9.9,41.6
			C563.2,311.4,563.1,311.7,562.8,311.7C562.8,311.7,562.8,311.7,562.8,311.7z"/>
		<path class="st7" d="M585.2,276.5c0,0,0,0.1,0,0.1c0.2,0.5,0.3,1,0.6,1.5c1.3,3,3.5,5.6,4.3,6.5c0.2,0.3,0.4,0.4,0.4,0.4
			c0,0,0,0,0,0.1c0,0.2,0,0.3-0.1,0.5c-0.1,0.6-0.2,1.4-0.4,2.3c-2.2,9.9-2.7,11.5-3.6,15.7c12.9,18.7,43.6,6.9,45.2,4.6
			c1.4-10,1.4-10,2.9-19.7c0.7-4.7,2.6-11.7,5.2-18.6c0.1-0.3,0.2-0.6,0.3-0.8c0.8-2,1.6-4.1,2.4-6c3.7-8.6,2.9-16.3-2.1-19.8
			c-1.7-1.2-6.9-2.8-9.2-3.3c-0.6-0.1-1.2-0.3-1.8-0.4c-3.3-0.6-5.8-1-5.8-1l-15.7,0.1c-1.5,0.2-2.9,0.4-4.2,0.6
			c-1.1,0.2-2.1,0.4-3,0.7c-8,2.2-8.3,6.4-9.8,13.9c-0.4,2.2-1,4.3-1.7,6.3c-0.2,0.6-0.4,1.3-0.6,1.9
			C586.6,268.2,584.3,273.3,585.2,276.5z"/>
		<path class="st15" d="M608.3,238.1l-0.6,5.5c-0.5,4.5,4.4,7.6,8.3,5.2c4.5-2.8,8.6-6.5,8.7-10.1L608.3,238.1z"/>
		<path class="st11" d="M590.5,285.1C590.5,285.1,590.5,285.2,590.5,285.1c0,0.2,0,0.4-0.1,0.5c2.9,0.7,6.5,0.8,10.9-0.1
			c8.5-1.6,15.5,2.4,15.6,2.4c0.1,0,0.1,0.1,0.2,0.1c0.1,0,0.3-0.1,0.4-0.2c0.1-0.2,0.1-0.5-0.2-0.6c-0.3-0.2-7.3-4.2-16.2-2.5
			c-4.5,0.9-8.2,0.7-11,0C590.4,285,590.5,285.1,590.5,285.1z"/>
		<path class="st11" d="M604.7,263.9c5.2,0,15.9-7.4,16.4-7.7c0.2-0.1,0.2-0.4,0.1-0.6c-0.1-0.2-0.4-0.2-0.6-0.1
			c-0.1,0.1-10.9,7.6-15.9,7.6c-4.7,0-5.8-5.2-5.8-5.3c0-0.2-0.3-0.4-0.5-0.3c-0.2,0-0.4,0.3-0.3,0.5
			C598.1,258,599.2,263.8,604.7,263.9z"/>
		<path class="st11" d="M587.7,296.5c0.2,0,0.5-0.1,0.6-0.3c1.2-3.9,2.7-10.8,2.7-10.9c0-0.2,0-0.4-0.2-0.5c0,0-4.2-3.2-5.1-8.3
			c0-0.3-0.3-0.5-0.6-0.4c-0.3,0-0.5,0.3-0.4,0.6c0.9,4.9,4.3,8,5.3,8.8c-0.3,1.4-1.6,7.1-2.6,10.5
			C587.3,296.2,587.4,296.4,587.7,296.5C587.7,296.5,587.7,296.5,587.7,296.5z"/>
		<path class="st5" d="M605.6,196.8c0,0-4.1-1.8-8.5,0.8c-4.4,2.6-4.7,6.2-4.4,9.2c0.3,3-2.1,1.9-2.5,6.6s3.1,3.2,2.5,7.4
			c-0.7,4.2-2.2,8.8,1,11c3.1,2.2,1.4,6,2.1,9.8c0.2,1.1,4.1-2.3,12.5-2.5c3.2-0.1,2.1-3.2,0-6.8c-2.1-3.6-2.8-23.9-1.1-27.4
			C608.9,201.4,605.6,196.8,605.6,196.8z"/>
		<path class="st18" d="M599.6,220.5c0,0-2.8-2.3-3.7,0.7c-0.8,3,1.2,8.4,4.6,6.9L599.6,220.5z"/>
		<path class="st15" d="M607.5,233.7l1,7.6c0,0,5.6,7.6,16.1-2.5c-2-3-3.7-8.7-3.3-11.7c0,0-0.8,0.5-2.1,1.6
			c-0.3,0.2-0.6,0.4-0.9,0.6C615.6,231,611.3,233.3,607.5,233.7z"/>
		<path class="st5" d="M607.5,233.7l0.5,3.6c3.1-1.3,8.7-4.1,11.2-8.7c-0.3,0.2-0.6,0.4-0.9,0.6C615.6,231,611.3,233.3,607.5,233.7z
			"/>
		<path class="st15" d="M600.5,232c6.7,6.5,20.4-4.6,20.8-4.9c0,0,0,0,0,0c0-0.6,0-1.2,0-1.8c0-5.1-0.7-9.7-2-13.9
			c-0.6-4.6-4.1-8.4-8.7-9.2c-4.8-0.8-8.4,1.8-10.7,3c-3.4,1.8-4.9,6.9-3.7,13.6C597.7,226.9,598.6,230.2,600.5,232z"/>
		<path class="st5" d="M602.6,203.7c0,0-2.8,10.3-9.6,9.8C593,213.5,592.7,203,602.6,203.7z"/>
		<path class="st5" d="M601.1,200.7c0,0-0.9,7,5.5,7.7c6.4,0.7,8.5,2.1,8.8,5.5c0.3,3.5,3.9,2.4,5.8,2.6c1.9,0.2-1.3,4.7-0.4,9.1
			c0.8,4.1-2,6.4-1.6,10c0.4,3.5,10.9,3.6,16.4,5.8c5.4,2.1-4.1-9.4-1.9-13.1c3.2-5.6-5.9-7.4-3.6-12.2c2.5-5.3,0.1-8.7-3.2-11.1
			c-3.2-2.4-2.7-6.2-6.9-9.1c-2.8-2-5.9-1.9-11.5-1.3C602.6,195.2,601.3,199.7,601.1,200.7z"/>
		<path class="st0" d="M609.1,258.1c-1.7,0-3-0.6-3.9-1.9c-3.3-4.7,0.6-16.7,0.8-17.2c0.1-0.3,0.5-0.5,0.8-0.4
			c0.3,0.1,0.5,0.5,0.4,0.8c0,0.1-4,11.9-1,16c0.6,0.9,1.6,1.3,2.9,1.3c10.7,0,16.9-17.6,17-17.7c0.1-0.3,0.5-0.5,0.8-0.4
			c0.3,0.1,0.5,0.5,0.4,0.8C627,240.2,620.6,258.1,609.1,258.1z"/>
		<path class="st5" d="M612.7,201.7c0,0-7.2-10.1,2.3-14.1c9-3.8,15.2,4.5,14.2,9.8c-1,5.3-7.8,7.8-7.8,7.8L612.7,201.7z"/>
		<path class="st18" d="M605.7,228.7c-0.8,0.1-1.4-0.1-1.5-0.1c-0.1,0-0.2-0.2-0.2-0.3c0-0.1,0.2-0.2,0.3-0.2l0,0
			c0,0,1.2,0.4,2.3-0.3c0.1-0.1,0.3-0.1,0.4,0.1c0.1,0.1,0.1,0.3-0.1,0.4C606.6,228.5,606.2,228.7,605.7,228.7z"/>
		<path class="st0" d="M600.8,224.4c0,0,3.9-0.5,8.3-1.4c0,0-0.1,3.5-3.6,4.2C602,227.9,600.8,224.4,600.8,224.4z"/>
		<path d="M604.1,222.3c0.1,0,0.1-0.1,0.2-0.2c0-0.2-0.1-0.3-0.2-0.4l-2.1-0.6l1.2-1.3c0.1-0.1,0.1-0.2,0.1-0.3l-0.5-3.4
			c0-0.2-0.2-0.3-0.4-0.3c-0.2,0-0.3,0.2-0.3,0.4l0.5,3.3l-1.4,1.6c-0.1,0.1-0.1,0.2-0.1,0.3c0,0.1,0.1,0.2,0.2,0.2l2.6,0.7
			C603.9,222.3,604,222.3,604.1,222.3z"/>
		<path class="st5" d="M605.5,210.8c0,0-1.3,0.4-0.6,1.5c0.7,1.1,3.1-0.7,5.4,1.2C610.3,213.5,610.6,210.4,605.5,210.8z"/>
		<path class="st5" d="M599.4,211.9c0,0,1.4-0.1,1.1,1.2c-0.2,1.3-3.2,0.4-4.7,3C595.9,216.1,594.6,213.3,599.4,211.9z"/>
		<path class="st18" d="M607.6,220.2c0.1,0.6,1.5,0.9,3.1,0.6c1.6-0.3,2.8-1,2.7-1.6c-0.1-0.6-1.5-0.9-3.1-0.6
			S607.5,219.6,607.6,220.2z"/>
		<path class="st18" d="M596.2,223.4c0.2,0,0.5,0,0.7-0.1c1.6-0.3,2.8-1,2.6-1.6c-0.1-0.6-1.5-0.9-3-0.6c-0.2,0-0.4,0.1-0.6,0.1
			L596.2,223.4z"/>
		<path class="st5" d="M617.9,224.1c0.1,0.1,1.6,2.5,3.4,3c0,0,0,0,0,0c0,0,0,0,0,0c0-0.6,0-1.2,0-1.8
			C621.3,225.2,619.6,225.3,617.9,224.1z"/>
		<path class="st15" d="M618.4,217.9c0,0,2.6-5.2,5.7-2c2.6,2.6,0.1,11-4.5,9.1L618.4,217.9z"/>
		<path class="st5" d="M619.9,223.5c0.2,0,0.3-0.2,0.3-0.4c-0.2-3.5,2.4-5.2,2.6-5.3c0.2-0.1,0.2-0.3,0.1-0.5
			c-0.1-0.2-0.3-0.2-0.5-0.1c-0.1,0.1-3.2,2-2.9,6C619.5,223.4,619.7,223.5,619.9,223.5C619.9,223.5,619.9,223.5,619.9,223.5z"/>
		<path class="st5" d="M622.8,220.8c0.1,0,0.2-0.1,0.2-0.2c0.1-0.2,0-0.4-0.1-0.5c-0.2-0.1-1.6-0.9-2.6-0.4
			c-0.2,0.1-0.3,0.3-0.2,0.5c0.1,0.2,0.3,0.3,0.5,0.2c0.6-0.3,1.6,0.2,2,0.4C622.6,220.8,622.7,220.8,622.8,220.8z"/>
		<path class="st5" d="M606.5,217.1c0.2,0.9,0.7,1.5,1.1,1.4c0.5-0.1,0.7-0.8,0.6-1.7c-0.2-0.9-0.7-1.5-1.1-1.4
			C606.6,215.5,606.3,216.2,606.5,217.1z"/>
		<path class="st5" d="M598,218.4c0.2,0.9,0.7,1.5,1.1,1.4c0.5-0.1,0.7-0.8,0.6-1.7c-0.2-0.9-0.7-1.5-1.1-1.4
			C598.2,216.8,597.9,217.5,598,218.4z"/>
		<path class="st0" d="M606.5,220.9c-1.3,0-2.5-1-2.7-2.3l-0.3-1.9c-0.1-0.7,0.4-1.4,1.1-1.5l7.6-1.1c0.7-0.1,1.4,0.4,1.5,1.1
			l0.3,1.9c0.1,0.7-0.1,1.4-0.5,2c-0.4,0.6-1.1,1-1.8,1.1l-4.9,0.7C606.7,220.9,606.6,220.9,606.5,220.9z M612.5,214.7
			C612.5,214.7,612.4,214.7,612.5,214.7l-7.7,1.1c-0.4,0.1-0.6,0.4-0.6,0.8l0.3,1.9c0.1,0.5,0.4,1,0.8,1.4c0.4,0.3,1,0.5,1.5,0.4
			l4.9-0.7c0.5-0.1,1-0.4,1.4-0.8c0.3-0.4,0.5-1,0.4-1.5l-0.3-1.9C613.1,215,612.8,214.7,612.5,214.7z"/>
		<path class="st0" d="M596.6,222.4c-0.6,0-1.1-0.2-1.6-0.5c-0.6-0.4-1-1.1-1.1-1.8l-0.3-1.9c-0.1-0.7,0.4-1.4,1.1-1.5l5.1-0.7
			c0.7-0.1,1.4,0.4,1.5,1.1l0.3,1.9c0.2,1.5-0.8,2.9-2.3,3.1l-2.5,0.4C596.8,222.4,596.7,222.4,596.6,222.4z M600.1,216.5
			C600.1,216.5,600,216.5,600.1,216.5l-5.2,0.7c-0.4,0.1-0.6,0.4-0.6,0.8l0.3,1.9c0.1,0.5,0.4,1,0.8,1.4c0.4,0.3,1,0.5,1.5,0.4
			l2.5-0.4c1.1-0.2,1.9-1.2,1.7-2.3l-0.3-1.9C600.7,216.8,600.4,216.5,600.1,216.5z"/>
		<path class="st0" d="M601.1,217l-0.3-0.6c1-0.6,2.1-0.7,3.2-0.3l-0.2,0.6C602.8,216.3,602,216.4,601.1,217z"/>
		<path class="st0" d="M613.5,215.6c-0.1,0-0.3-0.1-0.3-0.2c-0.1-0.2,0-0.4,0.2-0.4c0.2-0.1,4.1-1.4,7.2-0.2
			c0.2,0.1,0.3,0.3,0.2,0.4c-0.1,0.2-0.3,0.3-0.4,0.2c-2.9-1.1-6.7,0.2-6.8,0.2C613.6,215.6,613.5,215.6,613.5,215.6z"/>
		<path class="st15" d="M577.8,304.7c0,0-9.8-4.4-14.3-2.2l1.8,7.5c0,0,3.9,1.8,5.7,2.7c1.7,0.8,1.9,4.1,8.5,4.1L577.8,304.7z"/>
		<path class="st7" d="M645.5,262.2c0-2.4-0.2-4.7-0.4-7.1c-0.1-1.2-0.3-2.4-0.5-3.5c-0.1-0.6-0.2-1.2-0.3-1.8
			c-0.1-0.3-0.1-0.6-0.2-0.9l-0.1-0.5l-0.1-0.3l-0.1-0.4l-17,4.2l0.1,0.4l0.1,0.6c0.1,0.4,0.2,0.9,0.2,1.3c0.1,0.9,0.3,1.8,0.4,2.7
			c0.2,1.8,0.3,3.7,0.4,5.6c0.1,3.7,0,7.5-0.5,11.1c-0.1,0.9-0.3,1.8-0.4,2.7c-0.2,0.9-0.3,1.8-0.6,2.7c-0.2,0.9-0.4,1.8-0.7,2.6
			c-0.2,0.9-0.5,1.7-0.8,2.6c-0.3,0.9-0.6,1.7-0.9,2.5c-0.3,0.8-0.7,1.7-1.1,2.5c-0.4,0.8-0.8,1.6-1.2,2.4c-0.2,0.4-0.4,0.8-0.7,1.2
			l0,0c-0.2,0.1-0.4,0.3-0.6,0.4c-0.5,0.3-1.2,0.7-2,1.1c-1.5,0.7-3.3,1.4-5.1,2c-3.6,1.3-7.5,2.3-11.5,3.3c-3.9,1-8,1.9-12,2.7
			c-2,0.4-4,0.8-6.1,1.2l-3,0.5l-1.5,0.3l-1.5,0.3l1.6,13.5l1.7-0.2l1.6-0.2c1.1-0.1,2.1-0.2,3.2-0.4c2.1-0.2,4.3-0.5,6.4-0.8
			c4.3-0.6,8.5-1.3,12.8-2.1c4.3-0.8,8.6-1.8,13-3.1c2.2-0.7,4.4-1.4,6.8-2.4c0.2-0.1,0.5-0.2,0.8-0.3c0.9-0.4,1.9-0.9,2.9-1.5
			c0.6-0.4,1.3-0.8,2-1.3c0.7-0.5,1.4-1.1,2.2-1.8c0.4-0.4,0.8-0.8,1.2-1.3c0.2-0.3,0.4-0.5,0.6-0.8l0.1-0.2l0.1-0.1l0.1-0.2
			c0.3-0.5,0.7-1,1-1.5c0.6-0.9,1.1-1.9,1.6-2.8c0.1-0.1,0.1-0.2,0.2-0.3c0.6-1.1,1.1-2.2,1.6-3.3c0.5-1.1,1-2.2,1.4-3.3
			c1.7-4.5,3-9.2,3.7-13.9C645.2,271.7,645.6,266.9,645.5,262.2z M621.1,292.9C621.1,292.9,621.1,292.9,621.1,292.9
			c0.1-0.1,0.1-0.2,0.2-0.2C621.3,292.7,621.2,292.8,621.1,292.9z"/>
		<path class="st11" d="M637.5,297.2c-0.5,1-1,1.9-1.6,2.8c-0.3,0.5-0.6,1-1,1.5l-0.1,0.2l-0.1,0.1l-0.1,0.2
			c-0.2,0.3-0.4,0.6-0.6,0.8c-0.4,0.5-0.8,0.9-1.2,1.3c-0.8,0.8-1.5,1.3-2.2,1.8c-0.7,0.5-1.4,0.9-2,1.3c-1,0.6-2,1-2.9,1.5
			C626.2,297.5,633.6,296.8,637.5,297.2z"/>
		<path class="st11" d="M626,297.6c0.2,0,0.3,0,0.5-0.1c0.2-0.2,0.2-0.5,0-0.7c-2.4-2.5-5.9-4.9-6-5c-0.2-0.2-0.5-0.1-0.7,0.1
			c-0.2,0.2-0.1,0.5,0.1,0.7c0,0,3.5,2.5,5.9,4.9C625.9,297.5,626,297.6,626,297.6z"/>
		<path class="st11" d="M625.1,294c0.3,0,0.5-0.1,0.6-0.4c0.1-0.3-0.1-0.5-0.3-0.6c-0.1,0-2.7-0.8-4.8-1.2c-0.3-0.1-0.5,0.1-0.6,0.4
			c-0.1,0.3,0.1,0.5,0.4,0.6C622.4,293.2,625,294,625.1,294C625.1,294,625.1,294,625.1,294z"/>
		<path class="st11" d="M588,303.1c0.1,0,0.1,0,0.2,0c18.7-4.7,31.3-10,31.9-10.6c0.1,0,0.1-0.1,0.1-0.2c0.4-1.1,10.5-26,9.1-36.1
			c0-0.3-0.3-0.5-0.6-0.4c-0.3,0-0.5,0.3-0.4,0.6c1.4,9.4-8.1,33.4-8.9,35.4c-1.3,0.8-13.5,5.9-31.4,10.3c-0.3,0.1-0.4,0.3-0.4,0.6
			C587.7,302.9,587.8,303,588,303.1z"/>
		<path class="st11" d="M628.5,261c0.1,0,0.3,0,0.4-0.1c0.2-0.2,0.3-0.5,0.1-0.7l-1.7-2.6c-0.2-0.2-0.5-0.3-0.7-0.1
			c-0.2,0.2-0.3,0.5-0.1,0.7l1.7,2.6C628.3,260.9,628.4,261,628.5,261z"/>
		<path class="st11" d="M587.4,317.5c0.1,0,0.1,0,0.2,0c0.3,0,0.5-0.3,0.4-0.6l-1.7-13.2c0-0.3-0.3-0.5-0.6-0.4
			c-0.3,0-0.5,0.3-0.4,0.6l1.7,13.2C587,317.3,587.1,317.5,587.4,317.5z"/>
		<path class="st11" d="M579.4,315.4c0.1,0,0.1,0,0.2,0l7.3-1.1c0.3,0,0.5-0.3,0.4-0.6c0-0.3-0.3-0.5-0.6-0.4l-7.3,1.1
			c-0.3,0-0.5,0.3-0.4,0.6C579,315.2,579.2,315.4,579.4,315.4z"/>
		<path class="st11" d="M581.5,310.2c-0.2,0.6,0.1,1.3,0.7,1.5c0.6,0.2,1.3-0.1,1.5-0.7c0.2-0.6-0.1-1.3-0.7-1.5
			C582.4,309.3,581.7,309.6,581.5,310.2z"/>
		<path class="st19" d="M446.4,281.3h-85.1c-7.1,0-12.8-5.8-12.8-12.8c0-7.1,5.8-12.8,12.8-12.8h85.1c7.1,0,12.8,5.8,12.8,12.8
			C459.2,275.5,453.5,281.3,446.4,281.3z M361.3,257c-6.3,0-11.5,5.1-11.5,11.5s5.1,11.5,11.5,11.5h85.1c6.3,0,11.5-5.1,11.5-11.5
			s-5.1-11.5-11.5-11.5H361.3z"/>
		<polygon class="st7" points="366.8,273.6 361.9,276.2 362.8,270.6 358.8,266.7 364.4,265.9 366.8,260.9 369.3,265.9 374.9,266.7 
			370.9,270.6 371.8,276.2 		"/>
		<polygon class="st7" points="392.2,273.6 387.2,276.2 388.2,270.6 384.2,266.7 389.7,265.9 392.2,260.9 394.7,265.9 400.2,266.7 
			396.2,270.6 397.2,276.2 		"/>
		<polygon class="st7" points="417.5,273.6 412.6,276.2 413.5,270.6 409.5,266.7 415,265.9 417.5,260.9 420,265.9 425.6,266.7 
			421.5,270.6 422.5,276.2 		"/>
		<polygon class="st3" points="442.9,273.6 437.9,276.2 438.8,270.6 434.8,266.7 440.4,265.9 442.9,260.9 445.3,265.9 450.9,266.7 
			446.9,270.6 447.8,276.2 		"/>
		<path class="st19" d="M628.3,168.4C628.3,168.4,628.3,168.4,628.3,168.4l-4.7-0.1c-0.1,0-0.2,0-0.3-0.1c-0.1-0.1-0.1-0.2-0.1-0.3
			l0.1-3.1c-2-0.2-3.9-0.7-5.6-1.3c-1-0.4-1.9-0.8-2.6-1.3c-0.2-0.1-0.2-0.3-0.1-0.5l2.7-5.6c0.1-0.1,0.1-0.2,0.3-0.2
			c0.1,0,0.2,0,0.3,0c1.3,0.8,2.9,1.5,4.6,1.9c1,0.2,1.9,0.4,2.8,0.4c1,0,1.7-0.1,2.2-0.2c0.4-0.2,0.4-0.4,0.4-0.5
			c0-0.7-1.4-1.1-3-1.4l-0.6-0.1c-1.8-0.4-3.8-0.9-5.5-1.9c-1.3-0.7-2.2-1.6-2.7-2.7c-0.5-1-0.7-2.1-0.7-3.4
			c0.1-4.1,3.3-7.1,8.3-7.7l0.1-3.2c0-0.1,0-0.2,0.1-0.3c0.1-0.1,0.2-0.1,0.3-0.1l4.7,0.1c0.2,0,0.4,0.2,0.4,0.4l-0.1,3.2
			c0.8,0.1,1.5,0.3,2.3,0.4c1.6,0.4,3,1,4.2,1.7c0.2,0.1,0.2,0.3,0.2,0.5l-2.5,5.6c0,0.1-0.1,0.2-0.2,0.2c-0.1,0-0.2,0-0.3,0
			c-0.2-0.1-0.3-0.2-0.5-0.2c-2-1-3.9-1.6-5.7-1.6c-0.1,0-0.3,0-0.4,0c-1,0-2.2,0.2-2.2,1c0,0.1,0,0.3,0.3,0.5
			c0.6,0.4,1.8,0.7,3.2,1c0.9,0.2,1.9,0.4,2.9,0.7c1.8,0.6,4.4,1.6,5.6,4v0c0.4,0.9,0.6,1.9,0.6,3.1c-0.1,4-3.1,6.9-7.9,7.7
			l-0.1,3.3c0,0.1,0,0.2-0.1,0.3C628.5,168.4,628.4,168.4,628.3,168.4z M624,167.5l3.8,0.1l0.1-3.3c0-0.2,0.2-0.4,0.3-0.4
			c4.6-0.7,7.4-3.3,7.6-6.9c0-1-0.1-1.9-0.5-2.7l0,0c-0.8-1.6-2.4-2.8-5.1-3.6c-1-0.3-2-0.5-2.9-0.7c-1.5-0.3-2.7-0.6-3.4-1.1
			c-0.5-0.3-0.7-0.7-0.7-1.2c0-0.8,0.6-1.7,3.1-1.8c0.1,0,0.3,0,0.4,0c1.9,0.1,4,0.6,6.1,1.7c0,0,0.1,0,0.1,0l2.2-4.8
			c-1.1-0.6-2.3-1.1-3.7-1.4c-0.8-0.2-1.7-0.4-2.5-0.5c-0.2,0-0.4-0.2-0.4-0.4l0.1-3.1l-3.8-0.1l-0.1,3.2c0,0.2-0.2,0.4-0.4,0.4
			c-4.9,0.5-7.9,3.2-8,7c0,1.1,0.2,2.1,0.6,3c0.5,1,1.3,1.7,2.4,2.4c1.6,0.9,3.6,1.4,5.3,1.8l0.6,0.1c1.7,0.4,3.6,0.9,3.6,2.3
			c0,0.4-0.2,1-0.9,1.3c-0.6,0.2-1.4,0.3-2.5,0.3c-0.9,0-1.9-0.2-2.9-0.4c-1.6-0.4-3.1-1-4.5-1.8l-2.3,4.9c0.6,0.4,1.3,0.7,2.2,1
			c1.7,0.6,3.8,1.1,5.8,1.3c0.2,0,0.4,0.2,0.4,0.4L624,167.5z"/>
		<path class="st19" d="M419.5,294.3h-66.2c-0.2,0-0.4-0.2-0.4-0.4c0-0.2,0.2-0.4,0.4-0.4h66.2c0.2,0,0.4,0.2,0.4,0.4
			C419.9,294.1,419.7,294.3,419.5,294.3z"/>
		<path class="st19" d="M506.8,136.2h-56.9c-0.2,0-0.4,0.2-0.4,0.4l0,0c0,0.2,0.2,0.4,0.4,0.4h56.9c0.2,0,0.4-0.2,0.4-0.4l0,0
			C507.2,136.4,507,136.2,506.8,136.2z"/>
		<path class="st19" d="M501,286.5l-5-5.4c-2.2,0.9-4.7,1.4-7.2,1.4c-8.9,0-16.2-6-16.2-13.4c0-7.4,7.3-13.4,16.2-13.4
			c9,0,16.2,6,16.2,13.4c0,3.6-1.8,7.1-4.9,9.5l1.5,7.5c0,0.2-0.1,0.4-0.2,0.4c-0.1,0-0.1,0-0.2,0
			C501.2,286.7,501.1,286.6,501,286.5z M473.4,269.1c0,6.9,6.9,12.6,15.4,12.6c2.5,0,4.9-0.5,7.1-1.4c0.2-0.1,0.3,0,0.5,0.1l4.2,4.6
			l-1.3-6.3c0-0.2,0-0.3,0.2-0.4c3-2.3,4.8-5.6,4.8-9.1c0-6.9-6.9-12.6-15.4-12.6C480.3,256.6,473.4,262.2,473.4,269.1z"/>
		<path class="st19" d="M493.1,268.9c0-1.5,1.2-2.6,2.6-2.6c1.5,0,2.6,1.2,2.6,2.6c0,1.5-1.2,2.6-2.6,2.6
			C494.2,271.6,493.1,270.4,493.1,268.9z M493.9,268.9c0,1,0.8,1.8,1.8,1.8c1,0,1.8-0.8,1.8-1.8c0-1-0.8-1.8-1.8-1.8
			C494.7,267.1,493.9,267.9,493.9,268.9z"/>
		<path class="st19" d="M486.1,268.9c0-1.5,1.2-2.6,2.6-2.6c1.5,0,2.6,1.2,2.6,2.6c0,1.5-1.2,2.6-2.6,2.6
			C487.3,271.6,486.1,270.4,486.1,268.9z M486.9,268.9c0,1,0.8,1.8,1.8,1.8c1,0,1.8-0.8,1.8-1.8c0-1-0.8-1.8-1.8-1.8
			C487.7,267.1,486.9,267.9,486.9,268.9z"/>
		<path class="st19" d="M479.1,268.9c0-1.5,1.2-2.6,2.6-2.6c1.5,0,2.6,1.2,2.6,2.6c0,1.5-1.2,2.6-2.6,2.6
			C480.3,271.6,479.1,270.4,479.1,268.9z M479.9,268.9c0,1,0.8,1.8,1.8,1.8c1,0,1.8-0.8,1.8-1.8c0-1-0.8-1.8-1.8-1.8
			C480.7,267.1,479.9,267.9,479.9,268.9z"/>
		<path class="st19" d="M655,219.9C655,219.9,655,219.9,655,219.9L655,219.9l-0.1,0c-3.2,0-6.2-1.3-8.4-3.5
			c-2.3-2.3-3.5-5.3-3.5-8.5l0-0.1c0-6.6,5.4-11.9,12-11.9c0,0,0,0,0,0h0.1c6.6,0,11.9,5.4,11.9,12l0,0.1c0,3.2-1.3,6.2-3.5,8.4
			C661.2,218.6,658.2,219.9,655,219.9z M655,219.1C655,219.1,655,219.1,655,219.1c3,0,5.8-1.2,7.9-3.2c2.1-2.1,3.3-4.9,3.3-7.9
			l0-0.1c0-6.1-5-11.2-11.1-11.2H655c0,0,0,0,0,0c-6.1,0-11.1,5-11.1,11.1l0,0.1c0,3,1.1,5.8,3.2,7.9
			C649.1,217.9,651.9,219.1,655,219.1L655,219.1z"/>
		<path class="st19" d="M655.2,215.8C655.2,215.8,655.2,215.8,655.2,215.8c-0.1,0-0.2,0-0.3-0.1l-5.8-5.8c-0.9-0.9-1.4-2.1-1.4-3.4
			c0-1.3,0.5-2.5,1.4-3.4c0.8-0.8,1.8-1.2,2.8-1.1c1.2,0.1,2.3,0.8,3.3,2.1c1-1.2,2.1-1.9,3.3-2c1-0.1,2,0.3,2.8,1.1
			c0.9,0.9,1.4,2.1,1.4,3.4c0,1.3-0.5,2.5-1.4,3.4l-5.8,5.8C655.4,215.8,655.3,215.8,655.2,215.8z M651.6,202.9
			c-0.7,0-1.4,0.3-1.9,0.8c-0.7,0.7-1.2,1.7-1.2,2.8c0,1.1,0.4,2.1,1.1,2.8l5.5,5.5l5.5-5.5c0.7-0.7,1.2-1.7,1.2-2.8v0
			c0-1.1-0.4-2.1-1.1-2.8c-0.6-0.6-1.4-0.9-2.2-0.8c-1.1,0.1-2.1,0.9-3,2.2c-0.1,0.1-0.2,0.2-0.3,0.2c0,0,0,0,0,0
			c-0.1,0-0.3-0.1-0.3-0.2c-0.9-1.3-1.9-2.1-3-2.2C651.8,202.9,651.7,202.9,651.6,202.9z"/>
		<path class="st19" d="M499.2,313.9c-2.4,0-4.3,1.9-4.3,4.3c0,2.4,1.9,4.3,4.3,4.3c2.4,0,4.3-1.9,4.3-4.3
			C503.5,315.8,501.6,313.9,499.2,313.9z M499.2,321.7c-1.9,0-3.5-1.6-3.5-3.5c0-1.9,1.6-3.5,3.5-3.5c1.9,0,3.5,1.6,3.5,3.5
			C502.7,320.1,501.1,321.7,499.2,321.7z"/>
		<path class="st19" d="M349.8,315.4c-2.4,0-4.3,1.9-4.3,4.3c0,2.4,1.9,4.3,4.3,4.3c2.4,0,4.3-1.9,4.3-4.3
			C354.1,317.3,352.2,315.4,349.8,315.4z M349.8,323.2c-1.9,0-3.5-1.6-3.5-3.5c0-1.9,1.6-3.5,3.5-3.5c1.9,0,3.5,1.6,3.5,3.5
			C353.3,321.7,351.8,323.2,349.8,323.2z"/>
		<path class="st19" d="M452.8,312.7H449c-0.5,0-0.8-0.4-0.8-0.8v-4.1h-4.1c-0.5,0-0.8-0.4-0.8-0.8v-3.8c0-0.5,0.4-0.8,0.8-0.8h4.1
			v-4.1c0-0.5,0.4-0.8,0.8-0.8h3.8c0.5,0,0.8,0.4,0.8,0.8v4.1h4.1c0.5,0,0.8,0.4,0.8,0.8v3.8c0,0.5-0.4,0.8-0.8,0.8h-4.1v4.1
			C453.6,312.4,453.2,312.7,452.8,312.7z M444.1,303.2C444.1,303.2,444,303.2,444.1,303.2L444,307c0,0,0,0.1,0.1,0.1h4.8v4.8
			c0,0,0,0.1,0.1,0.1h3.8c0,0,0.1,0,0.1-0.1v-4.8h4.8c0,0,0.1,0,0.1-0.1v-3.8c0,0,0-0.1-0.1-0.1h-4.8v-4.8c0,0,0-0.1-0.1-0.1H449
			c0,0-0.1,0-0.1,0.1v4.8H444.1z"/>
		<path class="st19" d="M661.2,177.3h-3.8c-0.5,0-0.8-0.4-0.8-0.8v-4.1h-4.1c-0.5,0-0.8-0.4-0.8-0.8v-3.8c0-0.5,0.4-0.8,0.8-0.8h4.1
			v-4.1c0-0.5,0.4-0.8,0.8-0.8h3.8c0.5,0,0.8,0.4,0.8,0.8v4.1h4.1c0.5,0,0.8,0.4,0.8,0.8v3.8c0,0.5-0.4,0.8-0.8,0.8h-4.1v4.1
			C662.1,176.9,661.7,177.3,661.2,177.3z M652.6,167.7C652.5,167.7,652.5,167.7,652.6,167.7l-0.1,3.8c0,0,0,0.1,0.1,0.1h4.8v4.8
			c0,0,0,0.1,0.1,0.1h3.8c0,0,0.1,0,0.1-0.1v-4.8h4.8c0,0,0.1,0,0.1-0.1v-3.8c0,0,0-0.1-0.1-0.1h-4.8v-4.8c0,0,0-0.1-0.1-0.1h-3.8
			c0,0-0.1,0-0.1,0.1v4.8H652.6z"/>
	</g>
</g>
</svg>
